<svg width="33" height="33" viewBox="0 0 33 33" fill="none" xmlns="http://www.w3.org/2000/svg">
<path d="M22.3529 9.51622C22.2862 9.51622 22.2047 9.51045 22.1124 9.50404C22.0399 9.4989 21.9623 9.49377 21.8802 9.48992C21.8782 9.47068 21.8763 9.45336 21.8757 9.44374C21.8551 9.1833 21.8551 9.07361 21.8551 8.72401C21.8551 8.67141 21.8385 8.19992 21.2534 7.86187L21.1867 7.8221C20.7184 7.54306 20.1873 7.22681 16.7503 7.22681C13.0131 7.22681 12.4172 7.68546 12.0971 7.93243C11.7795 8.17619 11.4184 8.45395 11.4184 8.83755V9.50468C11.3549 9.50981 11.2606 9.51622 11.1612 9.51622C11.1015 9.51622 11.0399 9.5143 10.9841 9.5066C10.9245 9.47645 10.7153 9.17753 10.7153 8.51938C10.7153 7.81376 10.7878 7.63222 10.9475 7.23515L11.0098 7.07927C11.0874 6.88042 11.1798 6.70337 11.2676 6.53145C11.4113 6.25241 11.5595 5.96439 11.6371 5.62313C11.7475 5.13818 12.2812 3.61019 12.8829 2.88469C13.7489 1.8378 15.0126 1.32912 16.7484 1.32912C19.007 1.32912 19.6844 2.045 20.4696 2.87378L20.5164 2.92382C20.8641 3.29074 21.3586 4.08809 21.7429 5.80787C21.8423 6.2569 21.9828 6.52055 22.1316 6.79895C22.2099 6.9452 22.2926 7.0998 22.3747 7.29673C22.5325 7.68097 22.5569 7.9613 22.5781 8.55466C22.5915 8.95686 22.5325 9.26348 22.4774 9.40397C22.4459 9.48223 22.4235 9.50788 22.419 9.51237C22.4203 9.51366 22.3946 9.51622 22.3529 9.51622Z" fill="white"/>
<path d="M16.749 1.67038C18.8608 1.67038 19.4323 2.27336 20.2226 3.10856L20.2701 3.15859C20.5299 3.43314 21.0244 4.15223 21.4145 5.8996C21.5203 6.37622 21.6787 6.67322 21.8314 6.95996C21.911 7.10878 21.986 7.2499 22.0585 7.42438C22.1971 7.76116 22.2176 8.00491 22.2381 8.56492C22.2464 8.81638 22.2234 9.01331 22.1977 9.14096C22.1945 9.03448 22.1945 8.91837 22.1945 8.724C22.1945 8.60533 22.1573 7.9908 21.4228 7.56679L21.3586 7.52894C20.7473 7.16459 20.0186 6.88555 16.7477 6.88555C13.1921 6.88555 12.3742 7.28647 11.8873 7.66109C11.5262 7.93884 11.0752 8.2846 11.0752 8.8369C11.0624 8.7471 11.0547 8.6419 11.0547 8.51937C11.0547 7.87919 11.1111 7.7387 11.2625 7.36152L11.326 7.20243C11.3953 7.02539 11.48 6.86117 11.5698 6.68733C11.7225 6.38969 11.8809 6.08178 11.9681 5.69946C12.0701 5.25108 12.5872 3.77377 13.1452 3.1015C13.9426 2.13865 15.121 1.67038 16.749 1.67038ZM16.749 0.989136C14.3897 0.989136 13.2344 1.92633 12.6205 2.66787C11.9624 3.46137 11.4184 5.04901 11.3042 5.54808C11.1907 6.04778 10.8962 6.43267 10.6923 6.95482C10.4876 7.47634 10.3741 7.65852 10.3741 8.51937C10.3741 9.38151 10.6923 9.81258 10.9411 9.84466C11.0104 9.85364 11.0874 9.85684 11.1618 9.85684C11.3549 9.85684 11.5326 9.83567 11.5326 9.83567C11.5326 9.83567 11.5557 9.8453 11.5871 9.8453C11.6538 9.8453 11.7584 9.8036 11.7584 9.54124C11.7584 9.15507 11.7584 9.04282 11.7584 8.83754C11.7584 8.63356 12.0086 8.42957 12.3043 8.20249C12.5987 7.97541 13.2107 7.56807 16.7497 7.56807C20.2887 7.56807 20.6517 7.90805 21.0828 8.15758C21.5145 8.40712 21.5145 8.72465 21.5145 8.72465C21.5145 9.08708 21.5145 9.20126 21.5363 9.47324C21.5485 9.61116 21.5723 9.82092 21.7686 9.82669C22.0001 9.83311 22.2092 9.85684 22.3529 9.85684C22.5518 9.85684 22.6846 9.81066 22.7955 9.52905C22.8732 9.33148 22.9347 8.97354 22.92 8.54247C22.8988 7.95745 22.8751 7.61618 22.6903 7.16587C22.4556 6.60266 22.2163 6.36403 22.0803 5.75207C21.9899 5.34858 21.6037 3.57427 20.7646 2.68968C19.9269 1.80573 19.2007 0.989136 16.749 0.989136Z" fill="white"/>
<path fill-rule="evenodd" clip-rule="evenodd" d="M8.37902 6.06587C7.49269 6.13563 6.78508 6.20432 6.28788 6.25702C6.01984 6.28543 5.81289 6.30919 5.67201 6.32598C5.60157 6.33438 5.54764 6.34103 5.51084 6.34564L5.46857 6.351L5.45721 6.35247L5.454 6.35289L5.45302 6.35301L5.45268 6.35306C5.45256 6.35307 5.45245 6.35309 5.58276 7.34456L5.45245 6.35309L4.58276 6.46739V7.34456H5.58276C4.58276 7.34456 4.58276 7.3446 4.58276 7.34466V7.34497V7.34548V7.34619V7.34711V7.34823V7.34954V7.35106V7.35278V7.3547V7.35682V7.35913V7.36164V7.36435V7.36726V7.37036V7.37366V7.37715V7.38083V7.38471V7.38878V7.39304V7.3975V7.40214V7.40697V7.412V7.41721V7.42261V7.4282V7.43398V7.43994V7.44609V7.45242V7.45894V7.46564V7.47253V7.4796V7.48685V7.49428V7.5019V7.50969V7.51767V7.52582V7.53415V7.54266V7.55135V7.56021V7.56925V7.57847V7.58786V7.59742V7.60716V7.61707V7.62715V7.63741V7.64784V7.65844V7.6692V7.68014V7.69125V7.70252V7.71396V7.72557V7.73735V7.74929V7.76139V7.77366V7.7861V7.7987V7.81146V7.82438V7.83746V7.85071V7.86411V7.87768V7.8914V7.90528V7.91932V7.93352V7.94788V7.96239V7.97705V7.99187V8.00685V8.02197V8.03725V8.05269V8.06827V8.08401V8.0999V8.11593V8.13212V8.14845V8.16494V8.18156V8.19834V8.21526V8.23233V8.24955V8.26691V8.28441V8.30205V8.31984V8.33777V8.35584V8.37405V8.39241V8.4109V8.42953V8.4483V8.4672V8.48625V8.50543V8.52474V8.54419V8.56378V8.5835V8.60335V8.62334V8.64346V8.66371V8.68409V8.7046V8.72524V8.74601V8.76691V8.78793V8.80909V8.83037V8.85178V8.87331V8.89497V8.91675V8.93865V8.96068V8.98283V9.0051V9.0275V9.05001V9.07265V9.0954V9.11827V9.14126V9.16437V9.1876V9.21094V9.2344V9.25797V9.28166V9.30546V9.32937V9.3534V9.37754V9.40179V9.42615V9.45062V9.4752V9.49989V9.52469V9.5496V9.57461V9.59973V9.62496V9.65029V9.67573V9.70127V9.72691V9.75266V9.77851V9.80446V9.83051V9.85666V9.88292V9.90927V9.93572V9.96227V9.98891V10.0157V10.0425V10.0694V10.0965V10.1236V10.1508V10.1781V10.2055V10.233V10.2606V10.2883V10.316V10.3439V10.3718V10.3999V10.428V10.4562V10.4845V10.5129V10.5414V10.5699V10.5985V10.6273V10.6561V10.6849V10.7139V10.743V10.7721V10.8013V10.8306V10.8599V10.8894V10.9189V10.9485V10.9782V11.0079V11.0377V11.0676V11.0976V11.1276V11.1578V11.188V11.2182V11.2485V11.2789V11.3094V11.3399V11.3706V11.4012V11.432V11.4628V11.4936V11.5246V11.5556V11.5866V11.6178V11.649V11.6802V11.7115V11.7429V11.7743V11.8058V11.8374V11.869V11.9007V11.9324V11.9642V11.996V12.0279V12.0599V12.0919V12.1239V12.1561V12.1882V12.2204V12.2527V12.285V12.3174V12.3498V12.3823V12.4148V12.4473V12.4799V12.5126V12.5453V12.578V12.6108V12.6437V12.6765V12.7095V12.7424V12.7754V12.8085V12.8415V12.8747V12.9078V12.941V12.9743V13.0075V13.0408V13.0742V13.1076V13.141V13.1744V13.2079V13.2414V13.275V13.3086V13.3422V13.3758V13.4095V13.4432V13.4769V13.5107V13.5444V13.5782V13.6121V13.6459V13.6798V13.7137V13.7477V13.7816V13.8156V13.8496V13.8836V13.9177V13.9517V13.9858V14.0199V14.054V14.0882V14.1223V14.1565V14.1907V14.2249V14.2591V14.2933V14.3276V14.3618V14.3961V14.4304V14.4647V14.499V14.5333V14.5676V14.6019V14.6362V14.6706V14.7049V14.7393V14.7736V14.808V14.8424V14.8767V14.9111V14.9455V14.9799V15.0142V15.0486V15.083V15.1174V15.1518V15.1861V15.2205V15.2549V15.2892V15.3236V15.358V15.3923V15.4267V15.461V15.4953V15.5296V15.564V15.5983V15.6326V15.6668V15.7011V15.7354V15.7696V15.8039V15.8381V15.8723V15.9065V15.9407V15.9748V16.009V16.0431V16.0772V16.1113V16.1454V16.1794V16.2134V16.2475V16.2814V16.3154V16.3494V16.3833V16.4172V16.451V16.4849V16.5187V16.5525V16.5863V16.62V16.6537V16.6874V16.7211V16.7547V16.7883V16.8218V16.8554V16.8889V16.9223V16.9558V16.9892V17.0225V17.0559V17.0891V17.1224V17.1556V17.1888V17.2219V17.255V17.2881V17.3211V17.3541V17.387V17.4199V17.4528V17.4856V17.5183V17.5511V17.5837V17.6164V17.6489V17.6815V17.714V17.7464V17.7788V17.8111V17.8434V17.8757V17.9079V17.94V17.9721V18.0041V18.0361V18.068V18.0999V18.1317V18.1634V18.1951V18.2268V18.2584V18.2899V18.3213V18.3527V18.3841V18.4154V18.4466V18.4778V18.5088V18.5399V18.5708V18.6017V18.6326V18.6634V18.6941V18.7247V18.7553V18.7858V18.8162V18.8466V18.8769V18.9071V18.9372V18.9673V18.9973V19.0272V19.0571V19.0869V19.1166V19.1462V19.1758V19.2052V19.2346V19.264V19.2932V19.3224V19.3515V19.3805V19.4094V19.4382V19.467V19.4957V19.5242V19.5528V19.5812V19.6095V19.6378V19.6659V19.694V19.722V19.7499V19.7777V19.8054V19.833V19.8606V19.888V19.9154V19.9426V19.9698V19.9969V20.0239V20.0507V20.0775V20.1042V20.1308V20.1573V20.1837V20.21V20.2362V20.2623V20.2883V20.3142V20.34V20.3657V20.3913V20.4168V20.4421V20.4674V20.4926V20.5177V20.5426C4.58276 23.7067 6.25795 26.6578 8.49974 28.7735C9.78848 29.9907 11.4546 31.0309 12.9319 31.765C13.6748 32.1341 14.3878 32.4348 15.0036 32.6457C15.5864 32.8453 16.1817 33 16.6486 33C17.1475 33 17.7475 32.846 18.3356 32.6398C18.9488 32.4248 19.6417 32.1193 20.3571 31.7475C21.7829 31.0063 23.3624 29.9679 24.6315 28.7748L24.6318 28.7745C26.891 26.6489 28.7132 23.6677 28.7132 20.5886V20.5553V20.522V20.4886V20.4551V20.4216V20.3881V20.3545V20.3209V20.2873V20.2536V20.2199V20.1861V20.1523V20.1185V20.0846V20.0507V20.0168V19.9828V19.9488V19.9147V19.8806V19.8465V19.8123V19.7782V19.7439V19.7097V19.6754V19.6411V19.6067V19.5724V19.5379V19.5035V19.469V19.4345V19.4V19.3655V19.3309V19.2963V19.2616V19.227V19.1923V19.1576V19.1228V19.088V19.0533V19.0184V18.9836V18.9487V18.9139V18.879V18.844V18.8091V18.7741V18.7391V18.7041V18.6691V18.634V18.5989V18.5639V18.5288V18.4936V18.4585V18.4233V18.3882V18.353V18.3178V18.2825V18.2473V18.212V18.1768V18.1415V18.1062V18.0709V18.0356V18.0003V17.9649V17.9296V17.8942V17.8588V17.8235V17.7881V17.7527V17.7173V17.6819V17.6464V17.611V17.5756V17.5401V17.5047V17.4692V17.4338V17.3983V17.3628V17.3274V17.2919V17.2564V17.2209V17.1854V17.15V17.1145V17.079V17.0435V17.008V16.9725V16.937V16.9016V16.8661V16.8306V16.7951V16.7596V16.7242V16.6887V16.6532V16.6178V16.5823V16.5469V16.5114V16.476V16.4406V16.4052V16.3697V16.3343V16.2989V16.2636V16.2282V16.1928V16.1574V16.1221V16.0868V16.0514V16.0161V15.9808V15.9455V15.9102V15.875V15.8397V15.8045V15.7693V15.7341V15.6989V15.6637V15.6286V15.5934V15.5583V15.5232V15.4881V15.453V15.418V15.383V15.348V15.313V15.278V15.2431V15.2081V15.1732V15.1383V15.1035V15.0686V15.0338V14.999V14.9643V14.9295V14.8948V14.8601V14.8255V14.7909V14.7562V14.7217V14.6871V14.6526V14.6181V14.5836V14.5492V14.5148V14.4804V14.4461V14.4118V14.3775V14.3432V14.309V14.2748V14.2407V14.2066V14.1725V14.1384V14.1044V14.0704V14.0365V14.0026V13.9687V13.9349V13.9011V13.8673V13.8336V13.7999V13.7663V13.7327V13.6991V13.6656V13.6321V13.5987V13.5653V13.532V13.4987V13.4654V13.4322V13.399V13.3659V13.3328V13.2997V13.2667V13.2338V13.2009V13.168V13.1352V13.1024V13.0697V13.037V13.0044V12.9718V12.9393V12.9069V12.8744V12.8421V12.8098V12.7775V12.7453V12.7131V12.681V12.649V12.617V12.585V12.5531V12.5213V12.4895V12.4578V12.4261V12.3945V12.363V12.3315V12.3V12.2687V12.2373V12.2061V12.1749V12.1438V12.1127V12.0817V12.0507V12.0198V11.989V11.9582V11.9275V11.8969V11.8663V11.8358V11.8054V11.775V11.7447V11.7144V11.6842V11.6541V11.6241V11.5941V11.5642V11.5343V11.5046V11.4749V11.4452V11.4157V11.3862V11.3568V11.3274V11.2981V11.2689V11.2398V11.2108V11.1818V11.1529V11.124V11.0953V11.0666V11.038V11.0095V10.981V10.9526V10.9243V10.8961V10.868V10.8399V10.8119V10.784V10.7562V10.7285V10.7008V10.6732V10.6457V10.6183V10.591V10.5637V10.5366V10.5095V10.4825V10.4556V10.4287V10.402V10.3753V10.3488V10.3223V10.2959V10.2696V10.2434V10.2172V10.1912V10.1653V10.1394V10.1136V10.0879V10.0623V10.0369V10.0114V9.98613V9.96091V9.93579V9.91075V9.88581V9.86097V9.83622V9.81157V9.78701V9.76255V9.73818V9.71391V9.68974V9.66567V9.6417V9.61782V9.59405V9.57037V9.54679V9.52332V9.49994V9.47667V9.4535V9.43043V9.40746V9.3846V9.36184V9.33918V9.31663V9.29418V9.27184V9.2496V9.22747V9.20544V9.18352V9.16171V9.14001V9.11841V9.09693V9.07555V9.05428V9.03312V9.01208V8.99114V8.97031V8.9496V8.92899V8.9085V8.88812V8.86786V8.84771V8.82767V8.80775V8.78794V8.76824V8.74867V8.72921V8.70986V8.69063V8.67152V8.65253V8.63365V8.6149V8.59626V8.57774V8.55935V8.54107V8.52291V8.50488V8.48696V8.46917V8.4515V8.43396V8.41653V8.39923V8.38206V8.36501V8.34808V8.33128V8.31461V8.29806V8.28164V8.26534V8.24918V8.23314V8.21723V8.20144V8.18579V8.17027V8.15487V8.13961V8.12448V8.10948V8.09461V8.07987V8.06527V8.0508V8.03646V8.02225V8.00819V7.99425V7.98045V7.96679V7.95326V7.93986V7.92661V7.91349V7.90051V7.88767V7.87496V7.8624V7.84997V7.83769V7.82554V7.81353V7.80167V7.78995V7.77837V7.76693V7.75563V7.74448V7.73347V7.7226V7.71188V7.7013V7.69087V7.68059V7.67045V7.66045V7.65061V7.64091V7.63136V7.62196V7.6127V7.6036V7.59464V7.58583V7.57718V7.56867V7.56032V7.55212V7.54407V7.53617V7.52842V7.52083V7.51339V7.50611V7.49898V7.49201V7.48519V7.47852V7.47202V7.46567V7.45947V7.45344V7.44756V7.44184V7.43628V7.43087V7.42563V7.42055V7.41563V7.41086V7.40626V7.40183V7.39755V7.39344V7.38949V7.3857V7.38207V7.37861V7.37532V7.37219V7.36923V7.36643V7.3638V7.36133V7.35903V7.3569V7.35494V7.35315V7.35152V7.35006V7.34878V7.34766V7.34672V7.34594V7.34534V7.34491V7.34465L27.7132 7.34456H28.7132V6.46059L27.8359 6.35212L27.7132 7.34456C27.8359 6.35212 27.8358 6.35211 27.8357 6.35209L27.8354 6.35205L27.8345 6.35194L27.8312 6.35154L27.8195 6.35011L27.7753 6.34482C27.7368 6.34025 27.6802 6.33365 27.6064 6.3253C27.4588 6.3086 27.2424 6.28491 26.9637 6.25658C26.467 6.20606 25.7721 6.14074 24.917 6.07387V7.07695C26.6667 7.21516 27.7132 7.34456 27.7132 7.34456V20.5886C27.7132 23.2888 26.0949 26.025 23.9466 28.0462C21.5722 30.2784 17.9517 32 16.6486 32C15.4848 32 11.5754 30.3031 9.18609 28.0462C7.0812 26.0598 5.58276 23.3551 5.58276 20.5426V7.34456C5.58276 7.34456 6.60542 7.21015 8.37902 7.069V6.06587Z" fill="white"/>
</svg>
