<svg width="32" height="32" viewBox="0 0 32 32" fill="none" xmlns="http://www.w3.org/2000/svg">
<path d="M30.5116 25.1343L30.5116 31.0878L32 31.0878L32 25.1343L30.5116 25.1343Z" fill="white"/>
<path d="M8.62646 26.1591L8.62646 30.0629L11.3422 31.0878L11.3422 25.1343L8.62646 26.1591Z" fill="white"/>
<path d="M-3.2532e-08 28.1109C-2.17791e-08 28.6029 4.44375 29.2539 7.44186 29.5994L7.44186 26.6227C4.44342 26.968 -4.32849e-08 27.6189 -3.2532e-08 28.1109Z" fill="white"/>
<path d="M29.2501 31.0878L29.2501 30.0643L29.2501 26.1577L29.2501 25.1343L12.527 25.1343L12.527 31.0878L29.2501 31.0878Z" fill="white"/>
<path d="M30.5116 17.2107L30.5116 23.1642L32 23.1642L32 17.2107L30.5116 17.2107Z" fill="white"/>
<path d="M8.62653 18.2355L8.62653 22.1393L11.3422 23.1642L11.3422 17.2107L8.62653 18.2355Z" fill="white"/>
<path d="M6.10026e-05 20.1873C6.10134e-05 20.6793 4.44381 21.3303 7.44192 21.6758L7.44192 18.6991C4.44348 19.0444 6.09919e-05 19.6953 6.10026e-05 20.1873Z" fill="white"/>
<path d="M29.2501 23.1642L29.2501 22.1407L29.2501 18.2341L29.2501 17.2107L12.527 17.2107L12.527 23.1642L29.2501 23.1642Z" fill="white"/>
<path d="M30.5116 9.28714L30.5116 15.2406L32 15.2406L32 9.28714L30.5116 9.28714Z" fill="white"/>
<path d="M8.62646 10.3119L8.62646 14.2158L11.3422 15.2406L11.3422 9.28713L8.62646 10.3119Z" fill="white"/>
<path d="M-3.2532e-08 12.2638C-2.17791e-08 12.7558 4.44375 13.4067 7.44186 13.7523L7.44186 10.7755C4.44342 11.1208 -4.32849e-08 11.7718 -3.2532e-08 12.2638Z" fill="white"/>
<path d="M29.25 15.2406L29.25 14.2171L29.25 10.3106L29.25 9.28711L12.5269 9.28711L12.5269 15.2406L29.25 15.2406Z" fill="white"/>
<path d="M30.5116 1.36356L30.5116 7.31705L32 7.31705L32 1.36356L30.5116 1.36356Z" fill="white"/>
<path d="M8.62646 2.38835L8.62646 6.2922L11.3422 7.31702L11.3422 1.36353L8.62646 2.38835Z" fill="white"/>
<path d="M-3.2532e-08 4.34017C-2.17791e-08 4.83217 4.44375 5.48313 7.44186 5.82866L7.44186 2.85191C4.44342 3.19721 -4.32849e-08 3.84817 -3.2532e-08 4.34017Z" fill="white"/>
<path d="M29.2501 7.31702L29.2501 6.29356L29.2501 2.38698L29.2501 1.36353L12.527 1.36353L12.527 7.31702L29.2501 7.31702Z" fill="white"/>
</svg>
