<svg width="32" height="32" viewBox="0 0 32 32" fill="none" xmlns="http://www.w3.org/2000/svg">
<path d="M10.0465 30.5116H4.09302V32H10.0465V30.5116Z" fill="white"/>
<path d="M9.02169 8.62653H5.11784L4.09302 11.3422H10.0465L9.02169 8.62653Z" fill="white"/>
<path d="M7.06985 0C6.57785 0 5.92689 4.44375 5.58136 7.44186H8.5581C8.21281 4.44342 7.56185 0 7.06985 0Z" fill="white"/>
<path d="M4.09302 29.25H5.11647H9.02305H10.0465V12.5269H4.09302V29.25Z" fill="white"/>
<path d="M19.2083 30.5116H13.2548V32H19.2083V30.5116Z" fill="white"/>
<path d="M18.1835 8.62653H14.2796L13.2548 11.3422H19.2083L18.1835 8.62653Z" fill="white"/>
<path d="M16.2317 0C15.7397 0 15.0887 4.44375 14.7432 7.44186H17.7199C17.3746 4.44342 16.7237 0 16.2317 0Z" fill="white"/>
<path d="M13.2548 29.25H14.2783H18.1849H19.2083V12.5269H13.2548V29.25Z" fill="white"/>
<path d="M28.3701 30.5116H22.4166V32H28.3701V30.5116Z" fill="white"/>
<path d="M27.3453 8.62653H23.4414L22.4166 11.3422H28.3701L27.3453 8.62653Z" fill="white"/>
<path d="M25.3935 0C24.9015 0 24.2505 4.44375 23.905 7.44186H26.8817C26.5364 4.44342 25.8855 0 25.3935 0Z" fill="white"/>
<path d="M22.4166 29.25H23.4401H27.3467H28.3701V12.5269H22.4166V29.25Z" fill="white"/>
</svg>
