<svg width="32" height="32" viewBox="0 0 32 32" fill="none" xmlns="http://www.w3.org/2000/svg">
<path d="M14.6983 7.52178L16.0303 0.620087L17.3622 7.52178L18.8151 11.3964V31.375H13.1848V11.3964L14.6983 7.52178Z" stroke="white" stroke-linejoin="round"/>
<path d="M23.8703 7.52178L25.2022 0.620087L26.5342 7.52178L27.9871 11.3964V31.375H22.3568V11.3964L23.8703 7.52178Z" stroke="white" stroke-linejoin="round"/>
<path d="M10.0465 30.5116H4.09302V32H10.0465V30.5116Z" fill="white"/>
<path d="M9.02169 8.62653H5.11784L4.09302 11.3422H10.0465L9.02169 8.62653Z" fill="white"/>
<path d="M7.06985 0C6.57785 0 5.92689 4.44375 5.58136 7.44186H8.5581C8.21281 4.44342 7.56185 0 7.06985 0Z" fill="white"/>
<path d="M4.09302 29.25H5.11647H9.02305H10.0465V12.5269H4.09302V29.25Z" fill="white"/>
</svg>
