<svg width="16" height="14" viewBox="0 0 16 14" fill="none" xmlns="http://www.w3.org/2000/svg">
<path d="M4 5C4.55228 5 5 4.55228 5 4C5 3.44772 4.55228 3 4 3C3.44772 3 3 3.44772 3 4C3 4.55228 3.44772 5 4 5Z" fill="black"/>
<path d="M4 13C4.55228 13 5 12.5523 5 12C5 11.4477 4.55228 11 4 11C3.44772 11 3 11.4477 3 12C3 12.5523 3.44772 13 4 13Z" fill="black"/>
<path d="M12 5C12.5523 5 13 4.55228 13 4C13 3.44772 12.5523 3 12 3C11.4477 3 11 3.44772 11 4C11 4.55228 11.4477 5 12 5Z" fill="black"/>
<path d="M12 13C12.5523 13 13 12.5523 13 12C13 11.4477 12.5523 11 12 11C11.4477 11 11 11.4477 11 12C11 12.5523 11.4477 13 12 13Z" fill="black"/>
</svg>
