<svg width="48" height="126" viewBox="0 0 48 126" fill="none" xmlns="http://www.w3.org/2000/svg">
<mask id="mask0_2274_4276" style="mask-type:alpha" maskUnits="userSpaceOnUse" x="10" y="8" width="28" height="39">
<path d="M37.5 13.2006V41.6006C37.5 42.449 37.4996 43.0551 37.4608 43.5303C37.4224 43.9996 37.3491 44.297 37.2275 44.5356C36.9878 45.006 36.6054 45.3885 36.135 45.6282C35.8963 45.7497 35.599 45.8231 35.1297 45.8614C34.6545 45.9002 34.0483 45.9006 33.2 45.9006H24H14.8C13.9517 45.9006 13.3455 45.9002 12.8703 45.8614C12.401 45.8231 12.1037 45.7497 11.865 45.6282C11.3946 45.3885 11.0122 45.006 10.7725 44.5356C10.6509 44.297 10.5776 43.9996 10.5392 43.5303C10.5004 43.0551 10.5 42.449 10.5 41.6006V13.2006C10.5 12.3523 10.5004 11.7461 10.5392 11.271C10.5776 10.8016 10.6509 10.5043 10.7725 10.2657C11.0122 9.79525 11.3946 9.4128 11.865 9.17312C12.1037 9.05153 12.401 8.97819 12.8703 8.93985C13.3455 8.90102 13.9517 8.90063 14.8 8.90063H24H33.2C34.0483 8.90063 34.6545 8.90102 35.1297 8.93985C35.599 8.97819 35.8963 9.05153 36.135 9.17312C36.6054 9.4128 36.9878 9.79525 37.2275 10.2657C37.3491 10.5043 37.4224 10.8016 37.4608 11.271C37.4996 11.7461 37.5 12.3523 37.5 13.2006Z" fill="black" stroke="white"/>
</mask>
<g mask="url(#mask0_2274_4276)">
<path d="M37.5 13.2006V41.6006C37.5 42.449 37.4996 43.0551 37.4608 43.5303C37.4224 43.9996 37.3491 44.297 37.2275 44.5356C36.9878 45.006 36.6054 45.3885 36.135 45.6282C35.8963 45.7497 35.599 45.8231 35.1297 45.8614C34.6545 45.9002 34.0483 45.9006 33.2 45.9006H24H14.8C13.9517 45.9006 13.3455 45.9002 12.8703 45.8614C12.401 45.8231 12.1037 45.7497 11.865 45.6282C11.3946 45.3885 11.0122 45.006 10.7725 44.5356C10.6509 44.297 10.5776 43.9996 10.5392 43.5303C10.5004 43.0551 10.5 42.449 10.5 41.6006V13.2006C10.5 12.3523 10.5004 11.7461 10.5392 11.271C10.5776 10.8016 10.6509 10.5043 10.7725 10.2657C11.0122 9.79525 11.3946 9.4128 11.865 9.17312C12.1037 9.05153 12.401 8.97819 12.8703 8.93985C13.3455 8.90102 13.9517 8.90063 14.8 8.90063H24H33.2C34.0483 8.90063 34.6545 8.90102 35.1297 8.93985C35.599 8.97819 35.8963 9.05153 36.135 9.17312C36.6054 9.4128 36.9878 9.79525 37.2275 10.2657C37.3491 10.5043 37.4224 10.8016 37.4608 11.271C37.4996 11.7461 37.5 12.3523 37.5 13.2006Z" fill="black" stroke="#D0D0D0"/>
<path d="M25.2886 32.4006C26.2326 32.4006 26.9846 31.6486 26.9846 30.7206V28.0806C26.9846 27.4566 26.6646 27.1206 26.2326 26.9286C26.6006 26.7206 26.9046 26.3526 26.9046 25.8726V23.4246C26.9046 22.4966 26.1526 21.7446 25.2086 21.7446H22.4726C21.5446 21.7446 20.8086 22.4966 20.8086 23.4246V24.6886H22.6166V23.8406C22.6166 23.6006 22.8086 23.4246 23.0486 23.4246H24.6326C24.8726 23.4246 25.0646 23.6006 25.0646 23.8406V25.7286C25.0646 25.9526 24.9046 26.1286 24.6806 26.1446H22.4246V27.8246H24.7126C24.9526 27.8246 25.1446 28.0006 25.1446 28.2406V30.3046C25.1446 30.5446 24.9526 30.7206 24.7126 30.7206H23.0166C22.7766 30.7206 22.5846 30.5446 22.5846 30.3046V29.4566H20.7766V30.7206C20.7766 31.6486 21.5126 32.4006 22.4406 32.4006H25.2886Z" fill="white"/>
</g>
</svg>
