<svg width="48" height="126" viewBox="0 0 48 126" fill="none" xmlns="http://www.w3.org/2000/svg">
<path d="M16.8823 21.3952L15.1015 25.3507L15.1016 21.3952L15.1016 16.4315L13.2288 16.4315L13.2288 14.7975L14.1871 15.6567L15.1651 15.3001C15.197 14.9693 15.4688 11.7057 15.5002 11.4006L16.5002 11.4006L16.7256 15.3045L18.8357 15.3001L18.8357 16.9226L17.9654 16.1744L16.8823 16.4526L16.8823 21.3952Z" fill="white"/>
<path d="M31.118 33.4059L32.8989 29.4504L32.8988 33.4059L32.8988 38.3696L34.7716 38.3696L34.7716 40.0037L33.8132 39.1445L32.8352 39.501C32.8034 39.8319 32.5316 43.0954 32.5001 43.4005L31.5001 43.4005L31.2747 39.4967L29.1647 39.501L29.1647 37.8786L30.0349 38.6267L31.118 38.3485L31.118 33.4059Z" fill="white"/>
</svg>
