<svg width="48" height="126" viewBox="0 0 48 126" fill="none" xmlns="http://www.w3.org/2000/svg">
<path d="M16.64 20.4006C18.387 20.4006 21.26 18.9448 19.1327 14.1841C19.7878 16.6893 18.5868 17.3388 18.5868 17.3388C19.3843 14.7803 17.0582 12.6996 17.4949 11.4006C15.6387 12.3285 15.24 13.9194 14.96 15.7683C14.54 14.9742 14.7276 15.2975 14.4 14.1841C13.28 19.4742 14.893 20.4006 16.64 20.4006C16.64 20.4006 14.54 20.2683 15.38 16.9595C15.94 20.533 16.78 14.9742 16.78 14.9742C18.04 16.9595 18.46 19.6065 16.64 20.4006Z" fill="white"/>
<path d="M31.36 34.4006C29.613 34.4006 26.74 35.8565 28.8673 40.6171C28.2122 38.112 29.4132 37.4625 29.4132 37.4625C28.6157 40.021 30.9418 42.1017 30.5051 43.4006C32.3613 42.4728 32.76 40.8818 33.04 39.033C33.46 39.8271 33.2724 39.5037 33.6 40.6171C34.72 35.3271 33.107 34.4006 31.36 34.4006C31.36 34.4006 33.46 34.533 32.62 37.8418C32.06 34.2683 31.22 39.8271 31.22 39.8271C29.96 37.8418 29.54 35.1948 31.36 34.4006Z" fill="white"/>
</svg>
