<svg width="48" height="126" viewBox="0 0 48 126" fill="none" xmlns="http://www.w3.org/2000/svg">
<mask id="mask0_2208_3206" style="mask-type:alpha" maskUnits="userSpaceOnUse" x="10" y="8" width="28" height="39">
<path d="M10 13.2006C10 11.5205 10 10.6804 10.327 10.0387C10.6146 9.47418 11.0735 9.01524 11.638 8.72762C12.2798 8.40063 13.1198 8.40063 14.8 8.40063H24H33.2C34.8802 8.40063 35.7202 8.40063 36.362 8.72762C36.9265 9.01524 37.3854 9.47418 37.673 10.0387C38 10.6804 38 11.5205 38 13.2006V41.6006C38 43.2808 38 44.1209 37.673 44.7626C37.3854 45.3271 36.9265 45.786 36.362 46.0737C35.7202 46.4006 34.8802 46.4006 33.2 46.4006H24H14.8C13.1198 46.4006 12.2798 46.4006 11.638 46.0737C11.0735 45.786 10.6146 45.3271 10.327 44.7626C10 44.1209 10 43.2808 10 41.6006V13.2006Z" fill="white"/>
</mask>
<g mask="url(#mask0_2208_3206)">
<path d="M37.5 13.2006V41.6006C37.5 42.449 37.4996 43.0551 37.4608 43.5303C37.4224 43.9996 37.3491 44.297 37.2275 44.5356C36.9878 45.006 36.6054 45.3885 36.135 45.6282C35.8963 45.7497 35.599 45.8231 35.1297 45.8614C34.6545 45.9002 34.0483 45.9006 33.2 45.9006H24H14.8C13.9517 45.9006 13.3455 45.9002 12.8703 45.8614C12.401 45.8231 12.1037 45.7497 11.865 45.6282C11.3946 45.3885 11.0122 45.006 10.7725 44.5356C10.6509 44.297 10.5776 43.9996 10.5392 43.5303C10.5004 43.0551 10.5 42.449 10.5 41.6006V13.2006C10.5 12.3523 10.5004 11.7461 10.5392 11.271C10.5776 10.8016 10.6509 10.5043 10.7725 10.2657C11.0122 9.79525 11.3946 9.4128 11.865 9.17312C12.1037 9.05153 12.401 8.97819 12.8703 8.93985C13.3455 8.90102 13.9517 8.90063 14.8 8.90063H24H33.2C34.0483 8.90063 34.6545 8.90102 35.1297 8.93985C35.599 8.97819 35.8963 9.05153 36.135 9.17312C36.6054 9.4128 36.9878 9.79525 37.2275 10.2657C37.3491 10.5043 37.4224 10.8016 37.4608 11.271C37.4996 11.7461 37.5 12.3523 37.5 13.2006Z" fill="white" stroke="#D0D0D0"/>
</g>
</svg>
