<svg width="48" height="126" viewBox="0 0 48 126" fill="none" xmlns="http://www.w3.org/2000/svg">
<mask id="mask0_2274_4282" style="mask-type:alpha" maskUnits="userSpaceOnUse" x="10" y="8" width="28" height="39">
<path d="M37.5 13.2006V41.6006C37.5 42.449 37.4996 43.0551 37.4608 43.5303C37.4224 43.9996 37.3491 44.297 37.2275 44.5356C36.9878 45.006 36.6054 45.3885 36.135 45.6282C35.8963 45.7497 35.599 45.8231 35.1297 45.8614C34.6545 45.9002 34.0483 45.9006 33.2 45.9006H24H14.8C13.9517 45.9006 13.3455 45.9002 12.8703 45.8614C12.401 45.8231 12.1037 45.7497 11.865 45.6282C11.3946 45.3885 11.0122 45.006 10.7725 44.5356C10.6509 44.297 10.5776 43.9996 10.5392 43.5303C10.5004 43.0551 10.5 42.449 10.5 41.6006V13.2006C10.5 12.3523 10.5004 11.7461 10.5392 11.271C10.5776 10.8016 10.6509 10.5043 10.7725 10.2657C11.0122 9.79525 11.3946 9.4128 11.865 9.17312C12.1037 9.05153 12.401 8.97819 12.8703 8.93985C13.3455 8.90102 13.9517 8.90063 14.8 8.90063H24H33.2C34.0483 8.90063 34.6545 8.90102 35.1297 8.93985C35.599 8.97819 35.8963 9.05153 36.135 9.17312C36.6054 9.4128 36.9878 9.79525 37.2275 10.2657C37.3491 10.5043 37.4224 10.8016 37.4608 11.271C37.4996 11.7461 37.5 12.3523 37.5 13.2006Z" fill="black" stroke="white"/>
</mask>
<g mask="url(#mask0_2274_4282)">
<path d="M37.5 13.2006V41.6006C37.5 42.449 37.4996 43.0551 37.4608 43.5303C37.4224 43.9996 37.3491 44.297 37.2275 44.5356C36.9878 45.006 36.6054 45.3885 36.135 45.6282C35.8963 45.7497 35.599 45.8231 35.1297 45.8614C34.6545 45.9002 34.0483 45.9006 33.2 45.9006H24H14.8C13.9517 45.9006 13.3455 45.9002 12.8703 45.8614C12.401 45.8231 12.1037 45.7497 11.865 45.6282C11.3946 45.3885 11.0122 45.006 10.7725 44.5356C10.6509 44.297 10.5776 43.9996 10.5392 43.5303C10.5004 43.0551 10.5 42.449 10.5 41.6006V13.2006C10.5 12.3523 10.5004 11.7461 10.5392 11.271C10.5776 10.8016 10.6509 10.5043 10.7725 10.2657C11.0122 9.79525 11.3946 9.4128 11.865 9.17312C12.1037 9.05153 12.401 8.97819 12.8703 8.93985C13.3455 8.90102 13.9517 8.90063 14.8 8.90063H24H33.2C34.0483 8.90063 34.6545 8.90102 35.1297 8.93985C35.599 8.97819 35.8963 9.05153 36.135 9.17312C36.6054 9.4128 36.9878 9.79525 37.2275 10.2657C37.3491 10.5043 37.4224 10.8016 37.4608 11.271C37.4996 11.7461 37.5 12.3523 37.5 13.2006Z" fill="black" stroke="#D0D0D0"/>
<path d="M16.6761 32.4006C13.2431 27.4006 24.0001 17.4006 24.0001 14.4006V25.4006V36.4006H22.1691C22.1691 36.4006 23.0845 34.4006 23.0845 33.4006C23.0845 33.4006 19.4225 36.4006 16.6761 32.4006Z" fill="white"/>
<path d="M31.3238 32.4006C34.7569 27.4006 24.0001 17.4006 24.0001 14.4006V25.4006V36.4006H25.8311L24.9157 33.4006C24.9157 33.4006 28.5775 36.4006 31.3238 32.4006Z" fill="white"/>
<path fill-rule="evenodd" clip-rule="evenodd" d="M27.9997 27.1202C28.0063 26.515 27.8052 26.5014 27.7923 26.1302C27.7854 25.9445 27.8068 25.4232 27.7923 24.9207C27.7775 24.42 27.727 23.9371 27.6884 23.8208C27.6106 23.5872 27.5223 23.2017 26.8575 22.6109C26.1301 21.9646 24.7277 21.4146 23.9492 21.401C23.1701 21.387 22.2613 21.7997 21.5599 22.2809C20.8589 22.7621 20.6901 22.9684 20.4177 23.3808C20.1447 23.7932 20.0408 24.082 20.1058 24.8107C20.1708 25.5394 20.1863 25.3474 20.2097 26.0206C20.2295 26.5775 19.9904 26.7497 20.0019 27.1205C20.0191 27.6746 20.2156 27.7895 20.2097 28.0004C20.2054 28.1387 19.9759 28.3122 20.0019 28.7704C20.0283 29.2369 20.1187 29.3615 20.9367 29.8703C21.4676 30.2002 22.0921 30.3239 22.0793 30.5302C22.0602 30.8323 21.9886 31.3277 21.9757 31.6301C21.9629 31.9325 22.0925 31.9601 22.3909 32.0701C22.69 32.1801 23.3906 32.4137 24.157 32.4001C24.9229 32.3861 25.2477 32.2213 25.6111 32.0701C25.9745 31.9189 26.0266 31.7813 26.0266 31.5201C26.0266 31.259 25.8188 30.723 25.8188 30.5302C25.8188 30.3378 26.442 30.1315 27.1691 29.7603C27.8965 29.3891 27.8879 29.0183 27.8965 28.7704C27.912 28.3032 27.6884 28.1932 27.6884 28.0004C27.6884 27.6244 27.9958 27.5601 27.9997 27.1202ZM21.8715 28.2201C21.5078 28.234 20.729 28.234 20.729 27.1202C20.729 25.5771 21.5078 25.4015 22.0793 25.3603C22.6507 25.3191 22.7285 25.2503 23.0144 25.4703C23.5275 25.8656 23.4945 26.5657 23.3257 27.1202C23.202 27.5262 23.0659 27.6837 22.8064 27.8901C22.5469 28.0965 22.2352 28.2061 21.8715 28.2201ZM24.2608 29.9799L24.1177 29.4184L23.8968 29.4209L23.7412 29.9803C23.1437 29.8085 22.9036 29.5543 22.9102 29.2103C22.9168 28.8667 23.0985 28.5092 23.4292 28.2204C23.7606 27.9316 23.814 27.8869 24.0528 27.8904C24.2806 27.8939 24.3007 27.9407 24.4682 28.1104C24.83 28.4774 25.0641 28.7218 25.0918 29.2103C25.1188 29.6908 24.5916 29.9593 24.2608 29.9799ZM26.1301 28.2201C25.7664 28.2061 25.4551 28.0965 25.1953 27.8901C24.9358 27.6837 24.7825 27.5315 24.676 27.1202C24.5418 26.6023 24.4748 25.8656 24.9879 25.4703C25.2734 25.2503 25.3513 25.3191 25.9227 25.3603C26.4935 25.4015 27.273 25.5771 27.273 27.1202C27.273 28.234 26.4938 28.234 26.1301 28.2201Z" fill="black"/>
</g>
</svg>
