<svg width="48" height="126" viewBox="0 0 48 126" fill="none" xmlns="http://www.w3.org/2000/svg">
<path fill-rule="evenodd" clip-rule="evenodd" d="M28.0001 38.721C27.9944 39.2161 28.1704 39.2273 28.1816 39.531C28.1877 39.6829 28.1689 40.1095 28.1816 40.5206C28.1946 40.9303 28.2387 41.3254 28.2725 41.4205C28.3406 41.6116 28.4179 41.927 28.9996 42.4104C29.636 42.9392 30.8631 43.3892 31.5443 43.4004C32.2261 43.4118 33.0213 43.0741 33.6349 42.6804C34.2483 42.2867 34.3961 42.1179 34.6344 41.7805C34.8733 41.4431 34.9642 41.2068 34.9073 40.6106C34.8505 40.0143 34.8369 40.1715 34.8164 39.6207C34.7991 39.165 35.0083 39.0241 34.9982 38.7207C34.9832 38.2674 34.8112 38.1734 34.8164 38.0008C34.8202 37.8877 35.021 37.7457 34.9982 37.3709C34.9751 36.9892 34.8961 36.8872 34.1802 36.4709C33.7157 36.201 33.1693 36.0998 33.1805 35.931C33.1973 35.6839 33.2599 35.2785 33.2711 35.031C33.2824 34.7836 33.169 34.7611 32.9079 34.6711C32.6462 34.5811 32.0331 34.39 31.3626 34.4011C30.6923 34.4125 30.4081 34.5474 30.0902 34.6711C29.7722 34.7948 29.7266 34.9073 29.7266 35.121C29.7266 35.3347 29.9084 35.7733 29.9084 35.931C29.9084 36.0884 29.3631 36.2572 28.7269 36.5609C28.0904 36.8646 28.0979 37.168 28.0904 37.3709C28.0769 37.7531 28.2725 37.8431 28.2725 38.0008C28.2725 38.3085 28.0036 38.3611 28.0001 38.721ZM33.3623 37.8211C33.6805 37.8097 34.362 37.8097 34.362 38.721C34.362 39.9835 33.6805 40.1272 33.1805 40.1609C32.6805 40.1946 32.6124 40.2509 32.3623 40.0709C31.9133 39.7475 31.9422 39.1747 32.0899 38.721C32.1981 38.3888 32.3173 38.2599 32.5443 38.0911C32.7714 37.9222 33.0441 37.8325 33.3623 37.8211ZM31.2717 36.3812L31.3969 36.8406L31.5902 36.8386L31.7264 36.3809C32.2492 36.5215 32.4592 36.7295 32.4534 37.0109C32.4477 37.292 32.2887 37.5846 31.9993 37.8208C31.7094 38.0571 31.6626 38.0937 31.4537 38.0908C31.2544 38.0879 31.2368 38.0497 31.0902 37.9108C30.7737 37.6105 30.5688 37.4106 30.5446 37.0109C30.5209 36.6178 30.9823 36.3981 31.2717 36.3812ZM29.636 37.8211C29.9543 37.8325 30.2267 37.9222 30.454 38.0911C30.6811 38.2599 30.8152 38.3845 30.9084 38.721C31.0259 39.1447 31.0844 39.7475 30.6355 40.0709C30.3856 40.2509 30.3175 40.1946 29.8175 40.1609C29.3181 40.1272 28.636 39.9835 28.636 38.721C28.636 37.8097 29.3178 37.8097 29.636 37.8211Z" fill="white"/>
<path fill-rule="evenodd" clip-rule="evenodd" d="M19.9999 16.0802C20.0056 15.5851 19.8296 15.574 19.8184 15.2703C19.8123 15.1183 19.8311 14.6918 19.8184 14.2807C19.8054 13.871 19.7613 13.4759 19.7275 13.3808C19.6594 13.1896 19.5821 12.8742 19.0004 12.3908C18.364 11.862 17.1369 11.4121 16.4557 11.4009C15.7739 11.3895 14.9787 11.7272 14.3651 12.1209C13.7517 12.5145 13.6039 12.6834 13.3656 13.0208C13.1267 13.3582 13.0358 13.5944 13.0927 14.1907C13.1495 14.7869 13.1631 14.6298 13.1836 15.1806C13.2009 15.6363 12.9917 15.7771 13.0018 16.0805C13.0168 16.5339 13.1888 16.6279 13.1836 16.8005C13.1798 16.9136 12.979 17.0556 13.0018 17.4304C13.0249 17.8121 13.1039 17.9141 13.8198 18.3303C14.2843 18.6003 14.8307 18.7015 14.8195 18.8703C14.8027 19.1174 14.7401 19.5228 14.7289 19.7702C14.7176 20.0176 14.831 20.0402 15.0921 20.1302C15.3538 20.2202 15.9669 20.4113 16.6374 20.4002C17.3077 20.3887 17.5919 20.2539 17.9098 20.1302C18.2278 20.0065 18.2734 19.8939 18.2734 19.6802C18.2734 19.4665 18.0916 19.028 18.0916 18.8703C18.0916 18.7129 18.6369 18.544 19.2731 18.2403C19.9096 17.9367 19.9021 17.6333 19.9096 17.4304C19.9231 17.0482 19.7275 16.9582 19.7275 16.8005C19.7275 16.4928 19.9964 16.4402 19.9999 16.0802ZM14.6377 16.9802C14.3195 16.9916 13.638 16.9916 13.638 16.0802C13.638 14.8178 14.3195 14.6741 14.8195 14.6404C15.3195 14.6067 15.3876 14.5504 15.6377 14.7304C16.0867 15.0538 16.0578 15.6266 15.9101 16.0802C15.8019 16.4125 15.6827 16.5413 15.4557 16.7102C15.2286 16.879 14.956 16.9687 14.6377 16.9802ZM16.7283 18.42L16.6031 17.9607L16.4098 17.9627L16.2736 18.4203C15.7508 18.2798 15.5408 18.0718 15.5466 17.7904C15.5523 17.5093 15.7113 17.2167 16.0007 16.9805C16.2906 16.7442 16.3374 16.7076 16.5463 16.7105C16.7456 16.7133 16.7632 16.7516 16.9098 16.8905C17.2263 17.1907 17.4312 17.3907 17.4554 17.7904C17.4791 18.1835 17.0177 18.4032 16.7283 18.42ZM18.364 16.9802C18.0457 16.9687 17.7733 16.879 17.546 16.7102C17.3189 16.5413 17.1848 16.4168 17.0916 16.0802C16.9741 15.6566 16.9156 15.0538 17.3645 14.7304C17.6144 14.5504 17.6825 14.6067 18.1825 14.6404C18.6819 14.6741 19.364 14.8178 19.364 16.0802C19.364 16.9916 18.6822 16.9916 18.364 16.9802Z" fill="white"/>
</svg>
