<svg width="48" height="126" viewBox="0 0 48 126" fill="none" xmlns="http://www.w3.org/2000/svg">
<path d="M12.1075 14.0578L14.3929 15.3166L12.6741 17.915L15.5257 17.085L15.7304 20.2394L17.2735 17.3097L19.7441 19.6635L18.7579 16.3822L21.8925 16.3041L19.3338 14.3022L20.6816 11.9975L18.1425 13.2181L18.035 10.5619L16.3163 12.4956L14.1385 10.7475L14.6463 13.4331L12.1075 14.0578ZM15.2032 12.5344L16.3166 13.5597L17.4397 12.261L17.6057 14.1263L19.1682 13.3938L18.426 14.4875L20.1447 15.6791L17.9182 15.7475L18.3575 17.4369L17.0488 16.2453L16.2675 17.6419L16.0091 16.1147L14.4219 16.5872L15.4472 15.015L14.0354 14.2735L15.4472 13.98L15.2032 12.5344Z" fill="white"/>
<path d="M18.0019 15.1056L17.166 15.0831L17.3222 15.6791L16.746 15.4347L16.5216 15.9035L16.4238 15.4347L15.9063 15.4935L16.2188 15.0831L15.7597 14.6635H16.1991L16.0529 14.136L16.5607 14.4875L16.9122 14.0285V14.5463L17.4004 14.4972L17.2147 14.7706L18.0019 15.1056Z" fill="white"/>
<path d="M35.8925 40.7435L33.6072 39.4847L35.326 36.8863L32.4744 37.7163L32.2697 34.5619L30.7266 37.4916L28.256 35.1378L29.2422 38.4191L26.1075 38.4972L28.6663 40.4991L27.3185 42.8038L29.8575 41.5831L29.965 44.2394L31.6838 42.3056L33.8616 44.0538L33.3538 41.3681L35.8925 40.7435ZM32.7969 42.2669L31.6835 41.2416L30.5604 42.5403L30.3944 40.675L28.8319 41.4075L29.5741 40.3138L27.8554 39.1222L30.0819 39.0538L29.6425 37.3644L30.9513 38.556L31.7325 37.1594L31.991 38.6866L33.5782 38.2141L32.5529 39.7863L33.9647 40.5278L32.5529 40.8213L32.7969 42.2669Z" fill="white"/>
<path d="M29.9982 39.6956L30.8341 39.7181L30.6779 39.1222L31.2541 39.3666L31.4785 38.8978L31.5763 39.3666L32.0938 39.3078L31.7813 39.7181L32.2404 40.1378H31.801L31.9472 40.6653L31.4394 40.3138L31.0879 40.7728V40.255L30.5997 40.3041L30.7854 40.0306L29.9982 39.6956Z" fill="white"/>
</svg>
