<svg width="48" height="126" viewBox="0 0 48 126" fill="none" xmlns="http://www.w3.org/2000/svg">
<path d="M12.1075 16.6572L14.3929 17.9159L12.6741 20.5144L15.5257 19.6844L15.7304 22.8388L17.2735 19.9091L19.7441 22.2628L18.7579 18.9816L21.8925 18.9034L19.3338 16.9016L20.6816 14.5969L18.1425 15.8175L18.035 13.1613L16.3163 15.095L14.1385 13.3469L14.6463 16.0325L12.1075 16.6572ZM15.2032 15.1338L16.3166 16.1591L17.4397 14.8603L17.6057 16.7256L19.1682 15.9931L18.426 17.0869L20.1447 18.2784L17.9182 18.3469L18.3575 20.0363L17.0488 18.8447L16.2675 20.2413L16.0091 18.7141L14.4219 19.1866L15.4472 17.6144L14.0354 16.8728L15.4472 16.5794L15.2032 15.1338Z" fill="white"/>
<path d="M18.0019 17.705L17.166 17.6825L17.3222 18.2784L16.746 18.0341L16.5216 18.5028L16.4238 18.0341L15.9063 18.0928L16.2188 17.6825L15.7597 17.2628H16.1991L16.0529 16.7353L16.5607 17.0869L16.9122 16.6278V17.1456L17.4004 17.0966L17.2147 17.37L18.0019 17.705Z" fill="white"/>
<path d="M35.8925 43.3428L33.6072 42.0841L35.326 39.4856L32.4744 40.3156L32.2697 37.1613L30.7266 40.0909L28.256 37.7372L29.2422 41.0184L26.1075 41.0966L28.6663 43.0984L27.3185 45.4031L29.8575 44.1825L29.965 46.8388L31.6838 44.905L33.8616 46.6531L33.3538 43.9675L35.8925 43.3428ZM32.7969 44.8663L31.6835 43.8409L30.5604 45.1397L30.3944 43.2744L28.8319 44.0069L29.5741 42.9131L27.8554 41.7216L30.0819 41.6531L29.6425 39.9638L30.9513 41.1553L31.7325 39.7588L31.991 41.2859L33.5782 40.8134L32.5529 42.3856L33.9647 43.1272L32.5529 43.4206L32.7969 44.8663Z" fill="white"/>
<path d="M29.9982 42.295L30.8341 42.3175L30.6779 41.7216L31.2541 41.9659L31.4785 41.4972L31.5763 41.9659L32.0938 41.9072L31.7813 42.3175L32.2404 42.7372H31.801L31.9472 43.2647L31.4394 42.9131L31.0879 43.3722V42.8544L30.5997 42.9034L30.7854 42.63L29.9982 42.295Z" fill="white"/>
</svg>
