<svg width="48" height="126" viewBox="0 0 48 126" fill="none" xmlns="http://www.w3.org/2000/svg">
<mask id="mask0_2274_4273" style="mask-type:alpha" maskUnits="userSpaceOnUse" x="10" y="8" width="28" height="39">
<path d="M37.5 13.2006V41.6006C37.5 42.449 37.4996 43.0551 37.4608 43.5303C37.4224 43.9996 37.3491 44.297 37.2275 44.5356C36.9878 45.006 36.6054 45.3885 36.135 45.6282C35.8963 45.7497 35.599 45.8231 35.1297 45.8614C34.6545 45.9002 34.0483 45.9006 33.2 45.9006H24H14.8C13.9517 45.9006 13.3455 45.9002 12.8703 45.8614C12.401 45.8231 12.1037 45.7497 11.865 45.6282C11.3946 45.3885 11.0122 45.006 10.7725 44.5356C10.6509 44.297 10.5776 43.9996 10.5392 43.5303C10.5004 43.0551 10.5 42.449 10.5 41.6006V13.2006C10.5 12.3523 10.5004 11.7461 10.5392 11.271C10.5776 10.8016 10.6509 10.5043 10.7725 10.2657C11.0122 9.79525 11.3946 9.4128 11.865 9.17312C12.1037 9.05153 12.401 8.97819 12.8703 8.93985C13.3455 8.90102 13.9517 8.90063 14.8 8.90063H24H33.2C34.0483 8.90063 34.6545 8.90102 35.1297 8.93985C35.599 8.97819 35.8963 9.05153 36.135 9.17312C36.6054 9.4128 36.9878 9.79525 37.2275 10.2657C37.3491 10.5043 37.4224 10.8016 37.4608 11.271C37.4996 11.7461 37.5 12.3523 37.5 13.2006Z" fill="black" stroke="white"/>
</mask>
<g mask="url(#mask0_2274_4273)">
<path d="M37.5 13.2006V41.6006C37.5 42.449 37.4996 43.0551 37.4608 43.5303C37.4224 43.9996 37.3491 44.297 37.2275 44.5356C36.9878 45.006 36.6054 45.3885 36.135 45.6282C35.8963 45.7497 35.599 45.8231 35.1297 45.8614C34.6545 45.9002 34.0483 45.9006 33.2 45.9006H24H14.8C13.9517 45.9006 13.3455 45.9002 12.8703 45.8614C12.401 45.8231 12.1037 45.7497 11.865 45.6282C11.3946 45.3885 11.0122 45.006 10.7725 44.5356C10.6509 44.297 10.5776 43.9996 10.5392 43.5303C10.5004 43.0551 10.5 42.449 10.5 41.6006V13.2006C10.5 12.3523 10.5004 11.7461 10.5392 11.271C10.5776 10.8016 10.6509 10.5043 10.7725 10.2657C11.0122 9.79525 11.3946 9.4128 11.865 9.17312C12.1037 9.05153 12.401 8.97819 12.8703 8.93985C13.3455 8.90102 13.9517 8.90063 14.8 8.90063H24H33.2C34.0483 8.90063 34.6545 8.90102 35.1297 8.93985C35.599 8.97819 35.8963 9.05153 36.135 9.17312C36.6054 9.4128 36.9878 9.79525 37.2275 10.2657C37.3491 10.5043 37.4224 10.8016 37.4608 11.271C37.4996 11.7461 37.5 12.3523 37.5 13.2006Z" fill="black" stroke="#D0D0D0"/>
<path d="M27.0746 32.4006V30.7206H22.7066V29.2006C22.7066 28.9606 22.8506 28.8806 23.0746 28.7686C24.2586 28.2086 25.1706 27.8086 25.9066 27.4566C26.6426 27.1046 26.9786 26.7846 26.9786 26.0646V23.4246C26.9786 22.4966 26.2266 21.7446 25.2826 21.7446H22.5146C21.5866 21.7446 20.8506 22.4966 20.8506 23.4246V24.8646H22.6906V23.8406C22.6906 23.6006 22.8826 23.4246 23.1226 23.4246H24.7066C24.9466 23.4246 25.1386 23.6006 25.1386 23.8406V25.6646C25.1386 25.9046 24.9946 26.0326 24.7706 26.1286C23.7626 26.5766 23.2666 26.7526 22.2586 27.2006C21.4266 27.5686 20.8666 27.8246 20.8666 28.7526V32.4006H27.0746Z" fill="white"/>
</g>
</svg>
