<svg width="256" height="76" viewBox="0 0 256 76" fill="none" xmlns="http://www.w3.org/2000/svg">
<path fill-rule="evenodd" clip-rule="evenodd" d="M173.392 15.166C178.545 15.166 182.696 15.085 186.84 15.193C189.82 15.271 192.774 15.672 195.594 16.787C198.971 18.121 200.789 20.621 201.191 24.155C201.384 25.856 201.357 27.58 201.45 29.292C201.475 29.748 201.285 29.848 200.868 29.847C196.68 29.835 192.494 29.834 188.306 29.848C187.857 29.849 187.652 29.737 187.698 29.257C187.727 28.969 187.717 28.666 187.661 28.382C187.267 26.354 186.554 25.668 184.422 25.397C183.284 25.253 182.132 25.162 180.985 25.155C175.762 25.131 170.538 25.126 165.315 25.163C164.471 25.17 163.605 25.343 162.794 25.584C161.245 26.043 160.359 27.292 160.489 28.782C160.641 30.533 161.18 31.631 163.082 32.076C164.211 32.341 165.39 32.504 166.548 32.519C172.55 32.6 178.554 32.568 184.554 32.678C188.038 32.741 191.533 32.915 194.938 33.745C196.795 34.197 198.644 34.741 200.072 36.154C201.602 37.668 202.371 39.563 202.849 41.609C203.433 44.108 203.417 46.655 203.29 49.185C203.18 51.366 202.784 53.517 201.768 55.509C200.857 57.295 199.533 58.593 197.628 59.268C195.54 60.008 193.375 60.369 191.179 60.605C183.695 61.408 176.187 60.947 168.69 61.063C166.558 61.096 164.423 61.113 162.293 61.057C159.291 60.976 156.299 60.738 153.402 59.862C149.949 58.818 147.88 56.493 147.089 52.986C146.593 50.786 146.758 48.556 146.751 46.334C146.751 46.197 147 46.043 147.156 45.93C147.219 45.884 147.346 45.922 147.444 45.922C151.552 45.922 155.661 45.929 159.769 45.913C160.275 45.911 160.44 46.018 160.5 46.577C160.595 47.454 160.814 48.337 161.114 49.168C161.454 50.11 162.26 50.604 163.225 50.726C164.517 50.89 165.818 51.062 167.117 51.071C172.459 51.11 177.799 51.121 183.14 51.064C184.544 51.049 185.98 51.044 187.326 50.415C188.997 49.632 189.437 48.063 189.176 46.562C188.863 44.779 187.787 43.818 185.821 43.596C184.159 43.408 182.483 43.291 180.812 43.235C178.293 43.15 175.772 43.142 173.252 43.104C170.497 43.062 167.74 43.09 164.988 42.972C161.235 42.811 157.476 42.633 153.808 41.699C152.21 41.292 150.69 40.755 149.447 39.566C148.044 38.223 147.293 36.568 147.113 34.706C146.887 32.342 146.746 29.959 146.773 27.586C146.791 25.985 147.028 24.356 147.41 22.798C148.118 19.919 150.058 18.045 152.753 16.912C154.842 16.034 157.039 15.624 159.279 15.399C164.312 14.894 169.359 15.32 173.392 15.166Z" fill="white"/>
<path fill-rule="evenodd" clip-rule="evenodd" d="M119.294 60.599C113.19 60.599 107.086 60.557 100.982 60.619C98.226 60.647 95.865 59.723 93.713 58.112C91.097 56.154 89.812 53.456 89.45 50.274C89.35 49.405 89.331 48.523 89.329 47.647C89.32 40.897 89.302 34.148 89.335 27.399C89.351 24.369 90.303 21.67 92.404 19.407C94.26 17.408 96.485 16.116 99.18 15.667C99.736 15.574 100.305 15.524 100.868 15.524C113.212 15.515 125.557 15.522 137.901 15.503C138.508 15.502 138.651 15.677 138.645 16.262C138.616 19.255 138.613 22.248 138.647 25.242C138.654 25.859 138.456 25.979 137.881 25.978C126.67 25.962 115.461 25.966 104.251 25.968C103.169 25.968 103.297 25.856 103.294 26.954C103.289 28.793 103.293 30.632 103.293 32.471C103.293 33.245 103.294 33.246 104.053 33.246C114.695 33.246 125.337 33.246 135.98 33.246C136.868 33.246 136.868 33.246 136.868 34.127C136.868 36.69 136.851 39.253 136.882 41.815C136.888 42.386 136.718 42.533 136.157 42.532C125.475 42.516 114.794 42.52 104.112 42.52C103.294 42.52 103.294 42.52 103.294 43.353C103.294 45.27 103.294 47.187 103.294 49.104C103.294 49.911 103.294 49.912 104.079 49.912C112.706 49.912 121.334 49.912 129.962 49.912C132.896 49.912 135.831 49.924 138.765 49.901C139.291 49.897 139.471 50.027 139.466 50.583C139.44 53.693 139.442 56.805 139.465 59.915C139.468 60.449 139.325 60.612 138.778 60.61C132.284 60.592 125.789 60.599 119.294 60.599Z" fill="white"/>
<path fill-rule="evenodd" clip-rule="evenodd" d="M224.452 32.305C224.452 37.665 224.461 43.026 224.439 48.386C224.436 48.957 224.6 49.105 225.163 49.104C234.944 49.087 244.726 49.091 254.508 49.092C255.327 49.092 255.327 49.092 255.327 49.924C255.327 53.25 255.318 56.575 255.337 59.901C255.34 60.411 255.24 60.612 254.668 60.611C244.064 60.593 233.46 60.63 222.857 60.579C219.803 60.564 216.978 59.745 214.654 57.577C212.552 55.617 211.136 53.317 210.838 50.425C210.7 49.089 210.611 47.743 210.609 46.401C210.591 36.365 210.599 26.329 210.599 16.293C210.599 15.519 210.601 15.517 211.359 15.517C215.486 15.517 219.614 15.528 223.742 15.505C224.306 15.502 224.467 15.657 224.464 16.225C224.443 21.584 224.452 26.945 224.452 32.305Z" fill="white"/>
<path fill-rule="evenodd" clip-rule="evenodd" d="M37.667 75.04C17.596 75.321 0.236028 58.418 0.671028 37.211C1.07403 17.61 17.211 0.623014 38.488 0.961014C58.106 1.27401 75.009 17.5 74.806 38.515C74.616 58.352 58.149 75.331 37.667 75.04ZM37.758 4.82401C19.566 4.75001 4.72303 19.594 4.52003 37.651C4.31503 55.767 18.863 71.231 37.688 71.259C56.063 71.286 70.97 56.555 70.966 38.027C70.963 19.151 55.564 4.75601 37.758 4.82401Z" fill="white"/>
<path fill-rule="evenodd" clip-rule="evenodd" d="M55.582 13.845C41.593 28.12 27.647 42.3501 13.683 56.6001C11.725 54.0951 10.225 51.392 9.15903 48.452C9.09303 48.267 9.18003 47.958 9.30503 47.784C12.681 43.036 16.069 38.296 19.458 33.558C25.433 25.211 31.414 16.87 37.373 8.51105C37.732 8.00705 38.083 7.82004 38.708 7.84804C44.792 8.12204 50.301 10.029 55.241 13.585C55.334 13.654 55.426 13.727 55.582 13.845Z" fill="white"/>
<path fill-rule="evenodd" clip-rule="evenodd" d="M27.918 66.701C41.322 57.1031 54.586 47.605 67.974 38.019C67.788 46.767 64.747 54.207 58.374 60.047C49.617 68.072 39.393 69.9911 27.918 66.701Z" fill="white"/>
<path fill-rule="evenodd" clip-rule="evenodd" d="M67.426 32.353C66.438 27.239 64.26 22.692 60.944 18.687C60.364 17.987 59.723 17.338 58.995 16.537C58.807 16.803 58.706 17.001 58.556 17.152C55.502 20.212 52.445 23.268 49.385 26.322C44.567 31.132 39.745 35.94 34.927 40.75C34.777 40.901 34.642 41.068 34.499 41.228C34.354 41.357 34.2 41.479 34.063 41.617C31.77 43.916 29.482 46.221 27.187 48.518C23.73 51.978 20.268 55.435 16.81 58.894C16.663 59.041 16.525 59.197 16.358 59.375C18.529 61.545 20.916 63.325 23.588 64.714C23.709 64.777 23.961 64.709 24.091 64.617C24.953 64.009 25.801 63.378 26.652 62.752C30.667 59.794 34.68 56.834 38.696 53.877C39.958 52.949 41.225 52.03 42.491 51.107C44.079 49.968 45.678 48.847 47.25 47.688C51.954 44.22 56.642 40.731 61.347 37.264C63.265 35.85 65.206 34.467 67.15 33.085C67.433 32.882 67.492 32.692 67.426 32.353Z" fill="url(#paint0_linear)"/>
<defs>
<linearGradient id="paint0_linear" x1="18.6406" y1="62.0947" x2="64.8396" y2="23.3292" gradientUnits="userSpaceOnUse">
<stop stop-color="#1E9AD2"/>
<stop offset="1" stop-color="#42B7E9"/>
</linearGradient>
</defs>
</svg>
