<svg width="256" height="48" viewBox="0 0 256 48" fill="none" xmlns="http://www.w3.org/2000/svg">
<path d="M213.337 45.085C212.422 44.04 211.538 43.031 210.626 41.991C211.24 39.527 211.85 37.092 212.453 34.656C213.482 30.499 214.524 26.345 215.515 22.182C215.674 21.516 216.002 21.067 216.602 20.672C217.83 19.865 219.007 18.997 220.191 18.164C225.349 18.164 230.466 18.164 235.718 18.164C235.141 20.447 234.588 22.64 234.016 24.904C230.237 24.904 226.551 24.904 222.744 24.904C222.393 26.073 222.059 27.182 221.679 28.448C225.584 28.448 229.305 28.448 233.192 28.448C232.591 30.792 232.028 32.985 231.444 35.261C227.667 35.261 223.983 35.261 220.201 35.261C220.048 35.867 219.905 36.389 219.787 36.916C219.676 37.411 219.593 37.912 219.468 38.561C223.209 38.404 226.876 38.218 230.651 38.367C230.048 40.649 229.47 42.838 228.876 45.085C223.685 45.085 218.566 45.085 213.337 45.085Z" fill="#F4F2F2"/>
<path d="M21.293 32.539C20.546 35.586 19.853 38.487 19.105 41.376C19.006 41.759 18.705 42.168 18.365 42.421C17.095 43.366 15.77 44.252 14.505 45.132C10.591 45.132 6.767 45.132 2.775 45.132C1.92 44.18 0.998 43.155 0 42.046C0.5 40.07 1.006 38.069 1.52 36.04C4.136 36.04 6.596 36.04 9.193 36.04C9.082 36.752 8.978 37.42 8.857 38.191C10.016 38.191 11.071 38.191 12.289 38.191C12.684 36.965 13.091 35.702 13.512 34.397C12.629 34.004 11.757 34.242 10.919 34.201C10.052 34.158 9.18 34.191 8.31 34.191C7.443 34.191 6.575 34.191 5.657 34.191C4.729 33.142 3.815 32.108 2.801 30.962C3.569 27.847 4.347 24.689 5.14 21.47C6.631 20.434 8.141 19.386 9.619 18.359C13.426 18.359 17.163 18.359 21.084 18.359C22.095 19.324 23.19 20.369 24.368 21.493C23.774 23.446 23.173 25.425 22.566 27.422C20.01 27.422 17.549 27.422 14.889 27.422C15.221 26.57 15.511 25.824 15.835 24.991C14.523 24.991 13.361 24.991 12.091 24.991C11.699 26.256 11.307 27.522 10.864 28.953C12.207 29.12 13.45 29.017 14.681 29.035C15.895 29.053 17.11 29.039 18.401 29.039C19.361 30.202 20.315 31.355 21.293 32.539Z" fill="#F4F2F2"/>
<path d="M31.222 24.929C29.187 24.929 27.335 24.929 25.336 24.929C25.947 22.607 26.523 20.421 27.09 18.266C28.296 18.023 45.25 18.035 46.305 18.279C45.746 20.437 45.187 22.596 44.594 24.884C42.774 25.014 40.917 24.875 38.963 24.965C37.258 31.676 35.559 38.358 33.851 45.079C31.275 45.079 28.783 45.079 26.146 45.079C27.839 38.362 29.504 31.751 31.222 24.929Z" fill="#F4F2F2"/>
<path d="M135.216 38.261C136.074 34.816 136.909 31.513 137.716 28.205C138.529 24.87 139.531 21.571 140.238 18.096C136.506 18.096 132.947 18.104 129.388 18.094C125.795 18.083 122.201 18.142 118.51 18.054C118.177 11.98 117.851 6.03399 117.525 0.0879898C117.435 0.0609898 117.346 0.0349956 117.256 0.00799561C113.179 6.022 109.209 12.096 105.108 18.137C93.07 18.137 81.118 18.137 69.087 18.137C66.873 27.157 64.676 36.106 62.451 45.172C65.121 45.188 67.622 45.209 70.168 45.162C71.133 41.754 72.062 38.471 73.013 35.109C74.188 35.162 75.249 34.985 76.456 35.262C75.63 38.569 74.818 41.817 73.975 45.193C76.567 45.166 78.982 45.221 81.425 45.155C82.304 41.671 83.146 38.331 83.968 35.073C82.935 33.893 82.001 32.825 81.005 31.687C81.353 31.389 81.614 31.142 81.902 30.923C82.866 30.191 83.822 29.451 84.816 28.753C85.29 28.42 85.582 28.034 85.699 27.506C85.953 26.356 86.233 25.21 86.507 24.064C86.76 23.006 87.018 21.95 87.326 20.682C90.811 23.495 94.121 26.168 97.48 28.88C93.345 35.167 89.278 41.352 85.21 47.538C85.284 47.602 85.357 47.666 85.431 47.73C92.43 43.847 99.429 39.964 106.464 36.06C110.948 39.654 115.352 43.184 119.756 46.714C119.849 46.675 119.942 46.636 120.034 46.598C119.719 40.847 119.404 35.097 119.088 29.343C123.122 27.153 127.044 25.025 130.967 22.896C131.043 22.95 131.118 23.004 131.194 23.058C129.688 29.306 128.183 35.553 126.68 41.789C127.635 42.944 128.54 44.037 129.429 45.112C134.695 45.112 139.768 45.112 144.954 45.112C145.431 42.825 146.243 40.657 146.634 38.262C142.77 38.261 139.091 38.261 135.216 38.261ZM78.054 28.141C76.901 28.141 75.805 28.141 74.545 28.141C74.802 26.973 75.04 25.89 75.286 24.774C76.534 24.774 77.72 24.774 79.056 24.774C78.687 26.013 78.378 27.053 78.054 28.141Z" fill="#F4F2F2"/>
<path d="M115.561 13.577C115.682 15.627 115.849 17.675 116.061 19.719C116.085 19.952 116.083 20.187 116.292 20.415C116.68 20.682 117.173 20.545 117.631 20.547C121.484 20.559 125.337 20.582 129.19 20.59C129.616 20.591 129.811 20.616 130.278 20.59C131.166 20.589 130.718 20.574 131.315 20.59C130.89 20.903 130.093 21.33 129.759 21.498C127.193 22.783 124.88 23.997 122.329 25.305C120.433 26.278 118.59 27.336 116.623 28.412C116.691 32.934 117.15 37.427 117.221 41.984C113.642 39.401 110.361 36.593 107.055 33.799C104.63 35.142 102.324 36.454 99.98 37.707C97.653 38.951 95.48 40.441 92.741 41.5C92.893 41.11 92.935 40.906 93.045 40.736C94.281 38.817 95.521 36.899 96.774 34.988C98.092 32.978 99.426 30.976 100.786 28.92C97.466 26.213 94.21 23.557 90.728 20.718C96.005 20.718 100.935 20.718 105.882 20.718C106.112 20.5 106.363 20.333 106.512 20.111C108.787 16.708 110.459 14.2 112.714 10.786C113.15 10.126 114.214 8.62199 115.186 7.33899" fill="#CF2327"/>
<path d="M211.272 18.142C206.064 18.142 200.988 18.142 195.774 18.142C193.476 27.169 191.205 36.087 188.911 45.096C194.252 45.096 199.452 45.096 204.73 45.096C206.163 44.097 207.636 43.071 209.149 42.017C210.862 35.078 212.572 28.15 214.273 21.259C213.2 20.144 212.21 19.116 211.272 18.142ZM202.216 38.227C200.901 38.227 199.785 38.227 198.48 38.227C199.568 33.662 200.787 29.22 201.996 24.776C203.275 24.776 204.471 24.776 205.773 24.776C204.576 29.303 203.402 33.74 202.216 38.227Z" fill="#F4F2F2"/>
<path d="M190.298 18.16C185.113 18.16 179.996 18.16 174.78 18.16C172.503 27.107 170.237 36.012 167.926 45.093C173.31 45.093 178.512 45.093 183.748 45.093C185.177 44.097 186.619 43.093 188.154 42.024C189.853 35.162 191.568 28.233 193.294 21.265C192.266 20.198 191.274 19.171 190.298 18.16ZM181.262 38.219C179.977 38.219 178.823 38.219 177.67 38.219C177.607 37.268 180.369 26.448 181.118 24.746C182.309 24.746 183.428 24.746 184.724 24.746C183.717 29.308 182.33 33.711 181.262 38.219Z" fill="#F4F2F2"/>
<path d="M255.815 21.255C254.868 20.123 254.01 19.099 253.221 18.156C247.981 18.156 242.905 18.156 237.746 18.156C235.463 27.125 233.191 36.053 230.893 45.082C233.519 45.082 236.016 45.082 238.612 45.082C239.637 41.824 240.66 38.573 241.667 35.37C242.869 35.37 243.93 35.37 245.147 35.37C244.311 38.764 243.502 42.046 242.654 45.489C245.273 45.445 247.681 45.555 250.06 45.422C250.956 41.946 251.816 38.607 252.666 35.307C251.657 34.163 250.717 33.099 249.639 31.877C251.211 30.681 252.663 29.576 254.234 28.38C254.706 26.04 255.643 23.68 255.815 21.255ZM246.466 28.128C245.299 28.128 244.202 28.128 242.966 28.128C243.241 26.942 243.492 25.856 243.744 24.767C245.001 24.767 246.155 24.767 247.498 24.767C247.139 25.94 246.81 27.01 246.466 28.128Z" fill="#F4F2F2"/>
<path d="M169.01 18.134C165.17 18.134 161.393 18.134 157.56 18.134C156.221 19.005 154.854 19.904 153.475 20.787C152.982 21.102 152.745 21.515 152.617 22.042C151.277 27.533 149.917 33.02 148.562 38.508C148.028 40.669 147.493 42.83 146.916 45.158C149.472 45.157 151.917 45.176 154.407 45.148C155.02 42.778 155.595 40.555 156.162 38.364C157.506 38.364 158.664 38.364 159.948 38.364C159.358 40.635 158.79 42.818 158.199 45.091C160.817 45.091 163.314 45.091 165.931 45.091C167.891 37.106 169.844 29.152 171.781 21.259C170.789 20.139 169.898 19.134 169.01 18.134ZM161.756 31.848C160.493 31.848 159.338 31.848 158.002 31.848C158.44 29.512 159.224 27.336 159.748 24.986C160.926 24.986 161.995 24.986 163.241 24.986C162.803 27.319 162.24 29.565 161.756 31.848Z" fill="#F4F2F2"/>
<path d="M63.204 18.231C59.364 18.231 55.587 18.231 51.754 18.231C50.415 19.102 49.048 20.001 47.669 20.884C47.176 21.199 46.939 21.612 46.811 22.139C45.471 27.63 44.111 33.117 42.756 38.605C42.222 40.766 41.687 42.927 41.11 45.255C43.666 45.254 46.111 45.273 48.601 45.245C49.214 42.875 49.789 40.652 50.356 38.461C51.7 38.461 52.858 38.461 54.142 38.461C53.552 40.732 52.984 42.915 52.393 45.188C55.011 45.188 57.508 45.188 60.125 45.188C62.085 37.203 64.038 29.249 65.975 21.356C64.983 20.236 64.092 19.232 63.204 18.231ZM55.95 31.946C54.687 31.946 53.532 31.946 52.196 31.946C52.634 29.61 53.418 27.434 53.942 25.084C55.12 25.084 56.189 25.084 57.435 25.084C56.997 27.417 56.434 29.663 55.95 31.946Z" fill="#F4F2F2"/>
</svg>
