<svg width="256" height="86" viewBox="0 0 256 86" fill="none" xmlns="http://www.w3.org/2000/svg">
<path fill-rule="evenodd" clip-rule="evenodd" d="M0.37796 65.421C5.99182 65.427 11.6047 65.419 17.2185 65.452C18.5066 65.46 19.8037 65.541 21.0817 65.708C24.2071 66.114 25.7159 67.504 26.107 70.609C26.498 73.704 26.5202 76.833 26.0203 79.924C25.5194 83.02 23.8796 84.465 20.7169 84.705C19.0468 84.831 17.3697 84.905 15.6946 84.915C10.8488 84.942 6.0019 84.926 1.15604 84.922C0.897015 84.922 0.637992 84.879 0.378968 84.857C0.37796 78.378 0.37796 71.899 0.37796 65.421ZM6.31434 79.845C10.2098 79.845 14.0437 79.887 17.8777 79.822C19.4308 79.796 20.1545 79.058 20.2512 77.514C20.347 76.002 20.3611 74.474 20.2522 72.964C20.1192 71.112 19.3663 70.476 17.4755 70.428C14.9821 70.365 12.4906 70.332 9.99711 70.298C8.7796 70.282 7.56108 70.295 6.31333 70.295C6.31434 73.538 6.31434 76.72 6.31434 79.845Z" fill="#FCFDFF"/>
<path fill-rule="evenodd" clip-rule="evenodd" d="M220.668 85.029C221.14 84.954 221.622 84.937 222.091 84.85C223.821 84.531 225.384 83.988 225.998 82.088C226.493 80.559 226.387 79.009 226.334 77.456C224.291 77.456 222.314 77.456 220.357 77.456C220.303 77.832 220.257 78.16 220.21 78.491C220.043 79.682 219.7 80.038 218.476 80.162C217.642 80.245 216.802 80.3 215.965 80.291C213.761 80.266 211.556 80.234 209.353 80.13C208.27 80.079 207.688 79.534 207.496 78.478C207.109 76.356 207.126 74.218 207.484 72.095C207.71 70.764 208.364 70.181 209.726 70.157C212.432 70.113 215.143 70.07 217.843 70.18C219.314 70.241 219.922 70.223 219.985 72.232C219.987 72.293 220.037 72.353 220.061 72.404C222.041 72.404 224 72.404 226.065 72.404C226 71.349 226.022 70.321 225.858 69.324C225.469 66.978 224.495 65.928 222.116 65.574C220.206 65.288 218.253 65.148 216.323 65.17C212.851 65.212 209.374 65.316 205.917 65.595C203.239 65.812 201.802 67.195 201.487 69.474C201.339 70.555 201.261 71.654 201.272 72.744C201.301 75.48 201.322 78.218 201.497 80.945C201.608 82.672 202.608 83.922 204.316 84.442C205.222 84.717 206.183 84.813 207.114 85.012L214.211 85.179L220.668 85.029Z" fill="#FCFDFF"/>
<path fill-rule="evenodd" clip-rule="evenodd" d="M255.622 85C255.456 84.975 255.288 84.928 255.122 84.928C252.243 84.924 249.363 84.925 246.442 84.925C244.11 82.953 241.709 81.018 239.428 78.953C238.262 77.897 237.093 77.203 235.476 77.486C235.156 77.541 234.819 77.495 234.443 77.495C234.443 79.978 234.443 82.4 234.443 84.875C232.417 84.875 230.439 84.875 228.429 84.875C228.429 78.423 228.429 71.979 228.429 65.488C230.401 65.488 232.375 65.488 234.414 65.488C234.414 67.83 234.414 70.152 234.414 72.512C235.524 72.512 236.57 72.512 237.679 72.512C240.106 70.264 242.571 67.972 245.054 65.701C245.275 65.501 245.617 65.318 245.904 65.315C248.759 65.285 251.614 65.297 254.68 65.297C250.817 68.601 247.08 71.794 243.297 75.029C244.998 76.399 246.648 77.728 248.3 79.056C250.516 80.838 252.729 82.621 254.954 84.392C255.141 84.543 255.398 84.609 255.623 84.713C255.622 84.81 255.622 84.905 255.622 85Z" fill="#FCFDFF"/>
<path fill-rule="evenodd" clip-rule="evenodd" d="M69.8064 0.820984C69.9535 1.58698 70.1178 2.34999 70.2387 3.12099C70.2791 3.36799 70.3012 3.69098 70.1773 3.87998C69.1412 5.46198 68.0698 7.01998 66.8835 8.76998C66.4542 7.69998 66.0712 6.87098 65.8051 6.00598C65.7305 5.76198 65.9311 5.36599 66.1186 5.12399C67.2333 3.67599 68.3812 2.25198 69.5191 0.820984C69.6139 0.820984 69.7106 0.820984 69.8064 0.820984Z" fill="#F06722"/>
<path fill-rule="evenodd" clip-rule="evenodd" d="M55.2315 84.895C55.2315 78.419 55.2315 71.976 55.2315 65.486C62.4559 65.486 69.6703 65.486 76.9351 65.486C76.9351 66.965 76.9351 68.452 76.9351 70.024C71.7123 70.024 66.4733 70.024 61.1901 70.024C61.1901 71 61.1901 71.889 61.1901 72.828C66.1417 72.828 71.1005 72.828 76.1086 72.828C76.1086 74.265 76.1086 75.657 76.1086 77.128C71.1741 77.128 66.1992 77.128 61.185 77.128C61.185 78.172 61.185 79.137 61.185 80.185C66.4391 80.185 71.7012 80.185 77.06 80.185C77.06 81.691 77.06 83.119 77.06 84.547C77.1165 84.559 77.1749 84.57 77.2314 84.582C80.637 78.221 84.0446 71.86 87.4623 65.477C90.5625 65.477 93.6527 65.477 96.8194 65.477C100.207 71.895 103.612 78.348 107.058 84.875C104.76 84.875 102.543 84.875 100.231 84.875C99.706 83.868 99.1526 82.801 98.5902 81.719C94.2655 81.719 89.9497 81.719 85.5867 81.719C85.0454 82.766 84.4951 83.831 83.9448 84.896C74.3599 84.895 64.8164 84.895 55.2315 84.895ZM96.4233 77.315C95.1514 74.827 93.9198 72.414 92.6972 70.023C92.2749 70.023 91.897 70.023 91.5089 70.023C90.2702 72.452 89.0417 74.862 87.7909 77.315C90.6986 77.315 93.5065 77.315 96.4233 77.315Z" fill="#FCFDFF"/>
<path fill-rule="evenodd" clip-rule="evenodd" d="M127.177 84.898C125.48 84.898 123.829 84.898 122.14 84.898C119.68 80.058 117.221 75.224 114.757 70.377C114.426 70.377 114.124 70.377 113.812 70.377C113.812 75.212 113.812 80.03 113.812 84.887C111.907 84.887 109.974 84.887 108.004 84.887C108.004 78.429 108.004 71.966 108.004 65.471C111.603 65.471 115.173 65.471 118.834 65.471C120.741 69.592 122.67 73.757 124.648 78.034C126.608 73.803 128.532 69.646 130.465 65.47C134.047 65.47 137.611 65.47 141.221 65.47C141.221 71.948 141.221 78.409 141.221 84.898C139.288 84.898 137.374 84.898 135.429 84.898C135.429 80.08 135.429 75.263 135.429 70.396C135.191 70.396 134.917 70.396 134.548 70.396C132.117 75.178 129.659 80.013 127.177 84.898Z" fill="#FCFDFF"/>
<path fill-rule="evenodd" clip-rule="evenodd" d="M34.6568 79.999C34.6568 81.69 34.6568 83.278 34.6568 84.896C32.6783 84.896 30.7432 84.896 28.7476 84.896C28.7476 78.437 28.7476 71.978 28.7476 65.44C29.0097 65.44 29.2677 65.44 29.5237 65.44C35.1395 65.44 40.7564 65.434 46.3723 65.446C47.3782 65.447 48.386 65.49 49.3868 65.571C51.1778 65.716 52.7411 66.993 52.9315 68.765C53.1261 70.595 53.1321 72.463 53.0132 74.301C52.9013 76.065 51.7382 77.033 49.9896 77.322C50.0279 77.364 50.051 77.409 50.0793 77.416C52.5153 77.917 52.863 79.016 52.9446 81.091C52.993 82.347 52.9527 83.606 52.9527 84.894C50.9682 84.894 49.0371 84.894 47.0667 84.894C47.0123 83.891 46.9679 82.898 46.9034 81.909C46.8228 80.69 46.3824 80.213 45.1699 80.053C44.7446 79.996 44.3102 80 43.8778 80C40.835 79.996 37.7923 79.999 34.6568 79.999ZM34.7334 70.294C34.7334 71.943 34.7334 73.52 34.7334 75.123C37.2379 75.123 39.6851 75.136 42.1312 75.119C43.3063 75.111 44.4805 75.078 45.6497 74.995C46.5759 74.929 47.0083 74.507 47.0435 73.593C47.0849 72.482 47.5364 71.218 46.1475 70.507C46.0447 70.453 45.9198 70.435 45.8028 70.424C45.4934 70.392 45.183 70.354 44.8726 70.351C41.7542 70.329 38.6359 70.312 35.5175 70.296C35.2615 70.293 35.0045 70.294 34.7334 70.294Z" fill="#FCFDFF"/>
<path fill-rule="evenodd" clip-rule="evenodd" d="M170.091 84.904C167.977 84.904 165.941 84.904 163.826 84.904C163.826 82.566 163.826 80.246 163.826 77.891C159.296 77.891 154.847 77.891 150.352 77.891C150.352 80.224 150.352 82.526 150.352 84.877C148.235 84.877 146.163 84.877 144.05 84.877C144.05 78.423 144.05 71.981 144.05 65.489C146.13 65.489 148.201 65.489 150.34 65.489C150.34 67.777 150.34 70.051 150.34 72.367C154.835 72.367 159.266 72.367 163.771 72.367C163.771 70.1 163.771 67.824 163.771 65.494C165.914 65.494 167.983 65.494 170.091 65.494C170.091 71.954 170.091 78.396 170.091 84.904Z" fill="#FCFDFF"/>
<path fill-rule="evenodd" clip-rule="evenodd" d="M190.743 65.464C194.146 71.911 197.548 78.357 200.993 84.883C198.662 84.883 196.442 84.883 194.165 84.883C193.627 83.846 193.072 82.778 192.52 81.714C188.173 81.714 183.859 81.714 179.523 81.714C178.964 82.786 178.411 83.85 177.863 84.905C175.581 84.905 173.358 84.905 170.992 84.905C174.487 78.376 177.944 71.918 181.398 65.464C184.521 65.464 187.588 65.464 190.743 65.464ZM181.719 77.317C184.63 77.317 187.443 77.317 190.355 77.317C189.084 74.831 187.85 72.415 186.629 70.028C186.201 70.028 185.824 70.028 185.438 70.028C184.201 72.452 182.977 74.854 181.719 77.317Z" fill="#FCFDFF"/>
<path fill-rule="evenodd" clip-rule="evenodd" d="M1.17619 60.413C1.38382 60.232 1.57733 60.031 1.80107 59.871C4.11616 58.22 6.43528 56.576 8.75541 54.933C9.71793 54.252 10.7601 53.864 11.9746 53.933C14.4136 54.073 16.8557 54.165 19.2968 54.288C19.5245 54.299 19.7483 54.394 20.1404 54.49C19.9025 54.819 19.7755 55.101 19.5598 55.274C17.5521 56.896 15.5203 58.488 13.5136 60.111C12.7718 60.711 11.9121 60.827 11.0191 60.819C8.04586 60.797 5.07364 60.753 2.10142 60.714C1.80914 60.711 1.51484 60.678 1.22457 60.658C1.20945 60.577 1.19333 60.494 1.17619 60.413Z" fill="#F06722"/>
<path fill-rule="evenodd" clip-rule="evenodd" d="M20.1071 60.683C20.354 60.382 20.5012 60.142 20.7028 59.967C22.3416 58.54 23.9945 57.128 25.6353 55.704C26.5172 54.936 27.5301 54.699 28.6881 54.774C30.9831 54.927 33.283 55.005 35.578 55.126C35.9468 55.145 36.3117 55.23 36.8348 55.306C36.6251 55.671 36.5294 55.938 36.351 56.128C35.0388 57.515 33.7386 58.918 32.3659 60.243C32.0091 60.586 31.4023 60.846 30.9075 60.852C27.5271 60.894 24.1446 60.861 20.7632 60.844C20.5868 60.84 20.4125 60.759 20.1071 60.683Z" fill="#F06722"/>
<path fill-rule="evenodd" clip-rule="evenodd" d="M39.1035 60.811C39.3021 60.476 39.3968 60.259 39.5409 60.085C40.4682 58.965 41.4539 57.889 42.3337 56.733C43.2771 55.495 44.5571 55.506 45.9006 55.579C47.8599 55.684 49.8202 55.762 51.7795 55.87C52.3631 55.904 52.9436 55.994 53.6481 56.074C53.5111 56.488 53.4697 56.771 53.3337 56.997C52.6735 58.098 51.9791 59.18 51.3149 60.279C51.0135 60.778 50.5983 61.005 50.0137 61.001C46.6807 60.982 43.3477 60.98 40.0146 60.96C39.7626 60.961 39.5097 60.88 39.1035 60.811Z" fill="#F06722"/>
<path fill-rule="evenodd" clip-rule="evenodd" d="M36.5496 40.519C36.3399 40.835 36.2341 41.103 36.0406 41.274C34.2395 42.879 32.4314 44.479 30.6011 46.05C30.3481 46.266 29.9429 46.466 29.6325 46.435C27.1169 46.185 24.6083 45.876 21.89 45.561C22.1632 45.202 22.275 44.975 22.4554 44.833C24.5417 43.195 26.6401 41.571 28.7335 39.941C29.5811 39.281 30.4912 39.093 31.5606 39.368C32.9474 39.725 34.3655 39.963 35.7685 40.262C35.9892 40.31 36.2018 40.403 36.5496 40.519Z" fill="#F06722"/>
<path fill-rule="evenodd" clip-rule="evenodd" d="M57.988 60.843C58.6885 59.425 59.2963 58.093 60.0149 56.82C60.164 56.556 60.7174 56.396 61.0852 56.396C62.5678 56.39 64.0524 56.459 65.535 56.516C66.8785 56.565 68.2169 56.631 69.5574 56.693C70.5623 56.74 70.7326 56.951 70.5522 57.908C70.4 58.724 70.2297 59.539 70.1007 60.359C70.021 60.871 69.7419 61.131 69.2399 61.129C65.7618 61.103 62.2836 61.071 58.8054 61.029C58.5847 61.028 58.367 60.933 57.988 60.843Z" fill="#F06722"/>
<path fill-rule="evenodd" clip-rule="evenodd" d="M35.3109 47.11C35.5145 46.84 35.6304 46.635 35.7937 46.479C37.2903 45.039 38.7941 43.61 40.2928 42.176C40.8945 41.6 41.6151 41.426 42.4134 41.578C44.0532 41.89 45.691 42.216 47.3268 42.554C47.5697 42.602 47.7934 42.73 48.126 42.861C47.9093 43.215 47.7743 43.515 47.5697 43.755C46.4832 45.02 45.3675 46.26 44.287 47.532C43.8546 48.041 43.3366 48.209 42.6976 48.129C40.4692 47.85 38.2398 47.576 36.0114 47.295C35.8098 47.267 35.6143 47.191 35.3109 47.11Z" fill="#F06722"/>
<path fill-rule="evenodd" clip-rule="evenodd" d="M60.1741 45.07C59.6158 46.102 59.1491 47.004 58.6472 47.886C57.4317 50.021 57.9215 49.813 55.551 49.561C53.6481 49.36 51.7443 49.157 49.8424 48.944C49.5914 48.916 49.3495 48.822 49.1087 48.761C49.1087 48.616 49.0794 48.529 49.1117 48.486C50.2143 47.023 51.2837 45.534 52.4609 44.133C52.7148 43.83 53.3841 43.688 53.8215 43.751C55.6417 44.007 57.4488 44.363 59.2539 44.699C59.519 44.75 59.7629 44.901 60.1741 45.07Z" fill="#F06722"/>
<path fill-rule="evenodd" clip-rule="evenodd" d="M88.9721 61.081C88.6314 61.155 88.4057 61.247 88.1819 61.246C84.7582 61.222 81.3344 61.175 77.9097 61.158C77.2233 61.155 76.9613 60.881 77.0006 60.212C77.0419 59.525 77.0217 58.835 77.0308 58.145C77.0429 57.302 77.2193 57.088 78.0971 57.096C79.5313 57.108 80.9666 57.175 82.4018 57.229C83.837 57.282 85.2702 57.355 86.7054 57.408C87.4301 57.435 87.9158 57.706 88.1194 58.458C88.3523 59.317 88.6657 60.154 88.9721 61.081Z" fill="#F06722"/>
<path fill-rule="evenodd" clip-rule="evenodd" d="M39.4784 30.911C39.8261 30.695 40.2051 30.52 40.5115 30.26C42.0374 28.96 43.5452 27.64 45.057 26.324C46.2362 25.297 46.4479 25.266 47.8236 25.975C48.6602 26.406 49.4906 26.851 50.429 27.344C50.1639 27.744 50.0157 28.067 49.7799 28.304C48.4213 29.679 47.0355 31.027 45.6738 32.401C45.1276 32.95 44.5672 33.115 43.8072 32.808C42.6835 32.35 41.5214 31.982 40.3785 31.573C40.1618 31.495 39.9531 31.395 39.7405 31.306C39.6538 31.174 39.5671 31.042 39.4784 30.911Z" fill="#F06722"/>
<path fill-rule="evenodd" clip-rule="evenodd" d="M72.4944 47.133C72.2595 48.488 72.0368 49.784 71.7838 51.247C68.8096 50.949 65.9472 50.663 63.0093 50.367C63.0516 50.03 63.0324 49.811 63.108 49.63C63.5394 48.574 63.996 47.531 64.4344 46.479C64.6329 46 64.9938 45.732 65.4947 45.807C67.6233 46.122 69.7459 46.47 71.8685 46.818C72.0428 46.846 72.1991 46.979 72.4944 47.133Z" fill="#F06722"/>
<path fill-rule="evenodd" clip-rule="evenodd" d="M94.2332 57.9C94.7482 57.816 95.0274 57.722 95.3046 57.733C98.2677 57.853 101.233 57.981 104.195 58.133C104.514 58.148 104.911 58.235 105.122 58.441C106.037 59.331 106.898 60.276 107.831 61.259C107.493 61.304 107.153 61.392 106.814 61.389C103.654 61.364 100.493 61.297 97.3314 61.304C96.4253 61.307 95.8408 61.024 95.4648 60.196C95.1272 59.455 94.6968 58.756 94.2332 57.9Z" fill="#F06722"/>
<path fill-rule="evenodd" clip-rule="evenodd" d="M57.5385 30.663C57.5587 31.506 54.529 35.567 53.6028 35.98C51.9358 35.452 50.2133 34.907 48.3739 34.326C48.5332 34.026 48.6088 33.782 48.766 33.609C50.0198 32.231 51.2897 30.871 52.5485 29.501C53.0726 28.931 53.6421 28.832 54.3496 29.186C55.4109 29.715 56.5014 30.186 57.5385 30.663Z" fill="#F06722"/>
<path fill-rule="evenodd" clip-rule="evenodd" d="M86.2216 52.646C83.1012 52.345 80.1532 52.06 77.1598 51.771C77.1598 50.477 77.1266 49.387 77.1729 48.299C77.1981 47.717 77.7021 47.672 78.1455 47.734C79.8519 47.969 81.5521 48.228 83.2554 48.484C85.6159 48.839 85.123 48.767 85.7499 50.759C85.9233 51.314 86.0341 51.889 86.2216 52.646Z" fill="#F06722"/>
<path fill-rule="evenodd" clip-rule="evenodd" d="M65.6257 34.009C65.0694 35.738 64.2187 37.176 63.4114 38.826C61.443 38.268 59.519 37.723 57.5436 37.163C57.6363 36.873 57.6544 36.703 57.7381 36.575C58.5585 35.322 59.389 34.075 60.2235 32.83C60.5934 32.279 61.0621 32.131 61.7041 32.411C62.9458 32.945 64.2076 33.435 65.6257 34.009Z" fill="#F06722"/>
<path fill-rule="evenodd" clip-rule="evenodd" d="M111.749 58.466C112.019 58.446 112.289 58.402 112.558 58.41C115.501 58.504 118.446 58.604 121.388 58.705C121.508 58.708 121.641 58.7 121.743 58.747C123.453 59.548 125.163 60.357 126.87 61.165C126.844 61.266 126.819 61.365 126.792 61.465C126.21 61.465 125.628 61.468 125.046 61.465C122.169 61.45 119.293 61.423 116.418 61.425C115.59 61.425 114.876 61.215 114.234 60.684C113.398 59.992 112.53 59.338 111.673 58.668C111.701 58.602 111.725 58.533 111.749 58.466Z" fill="#F06722"/>
<path fill-rule="evenodd" clip-rule="evenodd" d="M100.725 53.886C99.9005 53.825 99.073 53.773 98.2486 53.701C96.2953 53.53 94.3421 53.342 92.3878 53.176C91.8395 53.13 91.5271 52.836 91.3154 52.364C91.0342 51.735 90.7157 51.124 90.4365 50.495C90.3277 50.249 90.2813 49.977 90.1543 49.535C90.9072 49.601 91.513 49.631 92.1106 49.709C93.8653 49.936 95.62 50.165 97.3707 50.43C97.7336 50.485 98.1639 50.62 98.4018 50.869C99.2484 51.762 100.027 52.722 100.833 53.655C100.797 53.733 100.761 53.81 100.725 53.886Z" fill="#F06722"/>
<path fill-rule="evenodd" clip-rule="evenodd" d="M74.0919 37.13C73.8671 38.624 73.6675 39.942 73.4428 41.442C71.2718 40.887 69.243 40.369 67.073 39.815C67.6586 38.241 68.1797 36.839 68.7401 35.333C70.6469 35.723 72.2938 36.463 74.0919 37.13Z" fill="#F06722"/>
<path fill-rule="evenodd" clip-rule="evenodd" d="M61.7897 15.18C60.2406 16.975 58.745 18.711 57.1586 20.55C56.1325 19.686 55.2184 18.915 54.146 18.011C55.937 16.049 57.7169 14.236 59.6934 12.458C60.4412 13.429 61.0459 14.214 61.7897 15.18Z" fill="#F06722"/>
<path fill-rule="evenodd" clip-rule="evenodd" d="M145.748 61.538C142.222 61.538 138.694 61.552 135.168 61.523C134.632 61.518 134.068 61.382 133.569 61.181C132.263 60.653 130.985 60.059 129.699 59.483C129.518 59.402 129.358 59.274 129.223 59.011C130.138 59.011 131.057 58.988 131.973 59.017C133.96 59.081 135.95 59.121 137.933 59.277C139.04 59.363 140.154 59.588 141.224 59.884C142.625 60.274 143.99 60.797 145.368 61.265C145.513 61.313 145.65 61.381 145.792 61.439C145.777 61.473 145.764 61.506 145.748 61.538Z" fill="#F06722"/>
<path fill-rule="evenodd" clip-rule="evenodd" d="M62.332 24.363C61.2898 23.62 60.2709 22.895 59.1138 22.073C60.3374 20.219 61.7061 18.57 63.2088 16.861C64.0181 17.696 64.7226 18.425 65.5158 19.244C65.4614 19.465 65.4634 19.794 65.3143 20.028C64.4525 21.394 63.5565 22.737 62.6676 24.086C62.6182 24.16 62.5265 24.205 62.332 24.363Z" fill="#F06722"/>
<path fill-rule="evenodd" clip-rule="evenodd" d="M83.9257 43.917C81.5662 43.368 79.4487 42.874 77.3856 42.391C77.3856 40.968 77.3856 39.728 77.3856 38.398C77.7646 38.43 78.0538 38.407 78.3118 38.484C79.612 38.874 80.9031 39.296 82.2012 39.693C82.7787 39.87 83.1234 40.2 83.2363 40.822C83.4127 41.788 83.6606 42.742 83.9257 43.917Z" fill="#F06722"/>
<path fill-rule="evenodd" clip-rule="evenodd" d="M103.578 51.256C104.111 51.308 104.645 51.346 105.174 51.411C107.097 51.642 109.023 51.865 110.943 52.134C111.377 52.197 111.83 52.363 112.205 52.593C113.323 53.281 114.407 54.027 115.507 54.745C115.604 54.808 115.72 54.84 115.827 54.887C115.785 54.96 115.743 55.034 115.701 55.107C115.218 55.071 114.737 55.038 114.257 54.998C111.893 54.808 109.531 54.623 107.169 54.416C106.894 54.393 106.568 54.319 106.37 54.148C105.383 53.295 104.429 52.401 103.463 51.522C103.504 51.434 103.541 51.345 103.578 51.256Z" fill="#F06722"/>
<path fill-rule="evenodd" clip-rule="evenodd" d="M146.793 59.721C152.426 59.242 161.339 60.26 165.008 61.705C164.084 61.705 163.334 61.707 162.582 61.705C160.11 61.698 157.638 61.674 155.166 61.687C152.622 61.7 150.316 60.683 147.917 60.08C147.535 59.985 147.167 59.842 146.793 59.721Z" fill="#F06722"/>
<path fill-rule="evenodd" clip-rule="evenodd" d="M67.5155 21.13C68.3419 21.85 69.1704 22.551 69.9717 23.284C70.0825 23.387 70.141 23.665 70.0866 23.81C69.5615 25.22 69.0081 26.619 68.3984 28.182C67.0932 27.39 65.9432 26.694 64.8244 26.015C64.767 25.333 66.6759 21.808 67.5155 21.13Z" fill="#F06722"/>
<path fill-rule="evenodd" clip-rule="evenodd" d="M86.5462 41.186C86.9322 41.211 87.1579 41.192 87.3655 41.247C88.8582 41.65 90.3489 42.063 91.8365 42.489C92.0814 42.56 92.3817 42.656 92.5239 42.842C93.308 43.868 94.0508 44.925 94.8097 45.974C94.7674 46.031 94.724 46.088 94.6817 46.145C93.8764 45.993 93.0681 45.847 92.2658 45.686C91.1209 45.454 89.983 45.202 88.836 44.98C88.2243 44.862 87.812 44.588 87.6074 43.957C87.3222 43.085 86.9543 42.24 86.5462 41.186Z" fill="#F06722"/>
<path fill-rule="evenodd" clip-rule="evenodd" d="M130.989 56.241C128.76 56.084 126.574 55.928 124.387 55.772C124.078 55.75 123.769 55.711 123.458 55.706C122.387 55.69 121.391 55.46 120.457 54.895C119.392 54.25 118.28 53.681 117.229 52.989C122.022 53.168 126.749 53.546 130.989 56.241Z" fill="#F06722"/>
<path fill-rule="evenodd" clip-rule="evenodd" d="M74.7379 31.627C73.4025 30.919 72.0882 30.225 70.7034 29.492C71.1821 27.987 71.6205 26.602 72.0922 25.113C72.4369 25.274 72.6586 25.343 72.839 25.469C73.5436 25.961 74.2672 26.436 74.9193 26.99C75.1723 27.206 75.4152 27.626 75.393 27.934C75.3144 29.046 75.1249 30.149 74.9647 31.255C74.9505 31.358 74.8488 31.451 74.7379 31.627Z" fill="#F06722"/>
<path fill-rule="evenodd" clip-rule="evenodd" d="M96.5997 43.763C97.2205 43.901 97.8474 44.029 98.4653 44.179C99.325 44.387 100.171 44.655 101.037 44.819C102.057 45.012 102.927 45.439 103.7 46.12C104.481 46.809 105.301 47.458 106.045 48.294C105.483 48.195 104.921 48.099 104.36 47.995C102.834 47.713 101.301 47.456 99.7876 47.125C99.3724 47.034 98.9309 46.786 98.6376 46.483C97.8696 45.685 97.1752 44.816 96.4515 43.977C96.5009 43.905 96.5503 43.833 96.5997 43.763Z" fill="#F06722"/>
<path fill-rule="evenodd" clip-rule="evenodd" d="M131.386 54.396C136.559 54.56 141.623 55.313 146.639 57.283C146.143 57.25 145.81 57.228 145.478 57.204C145.119 57.18 144.762 57.158 144.404 57.131C141.971 56.946 139.503 56.958 137.12 56.514C135.133 56.143 133.247 55.24 131.315 54.571C131.339 54.514 131.362 54.456 131.386 54.396Z" fill="#F06722"/>
<path fill-rule="evenodd" clip-rule="evenodd" d="M81.9281 34.95C81.4997 34.773 81.153 34.64 80.8154 34.487C79.9254 34.087 79.0456 33.659 78.1455 33.28C77.6597 33.076 77.435 32.763 77.4612 32.244C77.5146 31.168 77.5539 30.092 77.6013 28.928C77.8915 29.018 78.0518 29.045 78.1868 29.116C78.4388 29.249 78.6787 29.408 78.9236 29.556C81.6066 31.182 81.8313 31.571 81.9281 34.95Z" fill="#F06722"/>
<path fill-rule="evenodd" clip-rule="evenodd" d="M106.873 46.369C110.887 46.779 114.647 47.863 118.029 50.316C116.861 50.13 115.787 49.962 114.713 49.789C113.936 49.665 113.163 49.483 112.381 49.422C110.057 49.239 108.662 47.47 106.873 46.369Z" fill="#F06722"/>
<path fill-rule="evenodd" clip-rule="evenodd" d="M69.2692 13.303C68.7179 12.316 68.2351 11.457 67.6838 10.473C68.6765 8.91799 69.6834 7.33799 70.79 5.60199C71.427 7.24799 72.1567 8.61699 71.0501 10.144C70.5411 10.849 70.2196 11.687 69.8013 12.46C69.6713 12.704 69.509 12.929 69.2692 13.303Z" fill="#F06722"/>
<path fill-rule="evenodd" clip-rule="evenodd" d="M89.5375 38.034C89.2775 37.951 89.0114 37.881 88.7554 37.783C87.8896 37.449 87.045 37.042 86.1571 36.782C85.123 36.479 84.5697 35.856 84.3681 34.821C84.223 34.079 83.97 33.357 83.7644 32.624C83.833 32.57 83.9015 32.516 83.969 32.462C85.2268 33.158 86.6661 33.66 87.6901 34.606C88.5941 35.445 89.0346 36.777 89.6816 37.891C89.6333 37.938 89.5859 37.985 89.5375 38.034Z" fill="#F06722"/>
<path fill-rule="evenodd" clip-rule="evenodd" d="M72.3634 17.728C71.7153 16.846 71.1458 16.091 70.6086 15.316C70.5139 15.179 70.4746 14.922 70.5381 14.774C71.1408 13.368 71.7697 11.971 72.5135 10.584C73.1112 11.844 74.2824 12.882 73.5506 14.482C73.1888 15.275 72.9832 16.139 72.697 16.967C72.6244 17.177 72.5166 17.378 72.3634 17.728Z" fill="#F06722"/>
<path fill-rule="evenodd" clip-rule="evenodd" d="M117.784 48.56C122.185 49.085 126.326 50.244 130.229 52.06C127.591 52.402 120.08 50.323 117.784 48.56Z" fill="#F06722"/>
<path fill-rule="evenodd" clip-rule="evenodd" d="M90.6482 35.967C93.7031 36.829 96.1129 38.41 97.9301 41.062C96.9797 40.737 96.1522 40.326 95.2794 40.18C92.9754 39.796 91.8345 38.148 90.7903 36.355C90.7349 36.262 90.7127 36.148 90.6482 35.967Z" fill="#F06722"/>
<path fill-rule="evenodd" clip-rule="evenodd" d="M73.723 19.397C74.0838 17.968 74.4375 16.566 74.8084 15.101C76.5571 16.669 77.0348 19.301 76.0622 21.903C75.2902 21.075 74.5545 20.289 73.723 19.397Z" fill="#F06722"/>
<path fill-rule="evenodd" clip-rule="evenodd" d="M77.7293 19.478C80.1663 21.126 80.4163 23.416 80.4969 25.986C79.5495 25.136 78.719 24.406 77.9087 23.655C77.8008 23.555 77.7393 23.358 77.7373 23.205C77.7242 22.002 77.7293 20.798 77.7293 19.478Z" fill="#F06722"/>
<path fill-rule="evenodd" clip-rule="evenodd" d="M98.1851 39.164C101.387 40.01 104.209 41.586 106.777 43.727C103.449 43.008 100.26 42.117 98.1851 39.164Z" fill="#F06722"/>
<path fill-rule="evenodd" clip-rule="evenodd" d="M85.5453 29.804C84.4881 29.023 83.5689 28.348 82.6568 27.661C82.5288 27.565 82.3967 27.418 82.3584 27.27C82.0692 26.13 81.8031 24.984 81.5007 23.718C83.8471 25.137 84.7914 27.281 85.5453 29.804Z" fill="#F06722"/>
<path fill-rule="evenodd" clip-rule="evenodd" d="M116.192 46.262C114.392 45.813 112.521 45.54 110.813 44.865C109.197 44.226 107.753 43.167 106.231 42.292C106.262 42.229 106.294 42.166 106.324 42.104C107.083 42.353 107.833 42.618 108.598 42.843C111.29 43.63 113.739 44.947 116.182 46.273L116.192 46.262Z" fill="#F06722"/>
<path fill-rule="evenodd" clip-rule="evenodd" d="M91.13 33.207C88.5075 32.198 86.7286 30.458 86.015 27.766C88.2605 29.043 89.7885 31.016 91.13 33.207Z" fill="#F06722"/>
<path fill-rule="evenodd" clip-rule="evenodd" d="M97.8787 37.141C95.2925 36.155 93.1618 34.606 91.7407 32.145C94.1354 33.397 96.0635 35.204 97.9643 37.043C97.9341 37.075 97.9069 37.107 97.8787 37.141Z" fill="#F06722"/>
<path fill-rule="evenodd" clip-rule="evenodd" d="M98.4925 36.242C100.213 37.263 101.938 38.275 103.653 39.307C104.26 39.674 104.836 40.089 105.403 40.517C102.686 39.753 100.426 38.237 98.3887 36.35C98.4229 36.315 98.4572 36.279 98.4925 36.242Z" fill="#F06722"/>
<path fill-rule="evenodd" clip-rule="evenodd" d="M98.3887 36.351C98.3222 36.302 98.2546 36.253 98.1891 36.203C98.2062 36.172 98.2224 36.141 98.2395 36.11C98.3232 36.154 98.4078 36.197 98.4925 36.242C98.4572 36.279 98.4229 36.315 98.3887 36.351Z" fill="#F06722"/>
<path fill-rule="evenodd" clip-rule="evenodd" d="M116.182 46.272C116.225 46.291 116.27 46.309 116.214 46.286C116.253 46.33 116.223 46.296 116.193 46.261L116.182 46.272Z" fill="#F06722"/>
<path fill-rule="evenodd" clip-rule="evenodd" d="M97.9644 37.042C98.0168 37.086 98.0692 37.129 98.2798 37.304C98.0268 37.201 97.9523 37.171 97.8787 37.14C97.9069 37.107 97.9341 37.075 97.9644 37.042Z" fill="#F06722"/>
</svg>
