<svg width="256" height="64" viewBox="0 0 256 64" fill="none" xmlns="http://www.w3.org/2000/svg">
<path fill-rule="evenodd" clip-rule="evenodd" d="M48.8698 31.8835C48.8698 22.9474 48.8673 14.0125 48.871 5.0757C48.8723 1.76715 50.3622 0.266913 53.6669 0.265658C66.4284 0.260638 79.1905 0.261894 91.9519 0.264403C95.532 0.264403 97.072 1.76903 97.0707 5.2815C97.0682 17.9284 97.0619 30.5747 97.0536 43.2191C97.0511 46.4693 95.6498 47.8365 92.3021 47.8402C85.3939 47.849 78.4857 47.839 71.5775 47.8453C69.317 47.8478 69.0162 48.1502 68.9991 50.3664C68.9757 53.397 68.9707 56.4275 68.9314 59.4581C68.894 62.239 67.4092 63.7154 64.6326 63.7279C60.836 63.7436 57.0393 63.7436 53.2426 63.7279C50.4515 63.7154 48.8673 62.1311 48.8635 59.3176C48.8502 50.1731 48.8578 41.0286 48.8578 31.8835C48.8616 31.8835 48.866 31.8835 48.8698 31.8835ZM68.9517 24.0272C68.9517 29.8776 68.9466 35.7304 68.9542 41.5827C68.9567 43.5755 69.3385 43.9394 71.3717 43.9501C72.6369 43.9563 73.902 43.9551 75.1684 43.9463C76.393 43.9388 77.0085 43.3276 77.0072 42.1041C77.0047 30.0859 77.0009 18.0683 77.0059 6.05138C77.0072 4.74127 76.3544 4.14205 75.0582 4.15335C73.8463 4.16213 72.6331 4.14833 71.4211 4.1546C69.2955 4.16339 68.9548 4.49781 68.9529 6.62738C68.9479 12.4269 68.9517 18.2271 68.9517 24.0272Z" fill="#DB1A21"/>
<path fill-rule="evenodd" clip-rule="evenodd" d="M105.132 32.0564C105.132 23.0637 105.128 14.0699 105.133 5.07724C105.136 1.70845 106.567 0.267199 109.912 0.265944C123.578 0.260925 137.245 0.26343 150.91 0.264685C152.034 0.26594 153.198 0.16304 153.316 1.79504C153.446 3.5952 152.986 4.14547 151.105 4.14798C143.349 4.15802 135.593 4.15049 127.836 4.15426C125.49 4.15426 125.182 4.46045 125.182 6.75943C125.184 20.9812 125.186 35.203 125.19 49.4248C125.191 51.6027 125.478 51.8976 127.626 51.9052C130.054 51.9139 132.482 51.8732 134.908 51.9183C136.381 51.9453 137.012 51.3279 136.997 49.8572C136.957 46.0937 136.993 42.3278 136.979 38.563C136.972 36.7604 136.653 36.5226 134.879 36.3783C133.901 36.2986 132.897 36.0865 131.99 35.7251C130.944 35.3084 130.385 34.4432 130.406 33.246C130.44 31.4164 130.381 29.5855 130.425 27.7558C130.471 25.8528 131.433 24.8407 133.381 24.8206C138.763 24.7679 144.145 24.7591 149.528 24.8106C151.494 24.8288 153.287 26.7042 153.294 28.7604C153.328 39.1648 153.325 49.5692 153.284 59.9735C153.277 62.1245 151.613 63.7113 149.408 63.715C135.953 63.7408 122.499 63.7433 109.043 63.715C106.621 63.71 105.135 62.0103 105.126 59.3499C105.105 53.1795 105.124 47.0104 105.125 40.8401C105.126 37.9124 105.125 34.9847 105.125 32.0557C105.127 32.0564 105.13 32.0564 105.132 32.0564Z" fill="#DB1A21"/>
<path fill-rule="evenodd" clip-rule="evenodd" d="M161.321 31.8983C161.321 23.0136 161.318 14.1289 161.322 5.24479C161.323 1.73859 162.789 0.269101 166.28 0.264081C169.708 0.259062 173.136 0.256551 176.564 0.265336C179.781 0.27412 181.441 1.90236 181.442 5.07538C181.447 18.2443 181.443 31.4151 181.444 44.5841C181.444 47.4948 182.275 48.3231 185.179 48.3256C190.98 48.3281 196.782 48.3181 202.583 48.3438C203.47 48.3488 204.375 48.4366 205.237 48.6368C206.454 48.9185 207.121 49.7762 207.128 51.0205C207.152 54.7312 207.139 58.4407 207.141 62.1515C207.142 63.1773 206.62 63.6956 205.595 63.7251C205.227 63.7351 204.857 63.7314 204.488 63.7314C191.726 63.7314 178.962 63.7339 166.198 63.7314C162.757 63.7301 161.317 62.2964 161.316 58.8636C161.312 49.8748 161.314 40.8859 161.314 31.8977C161.318 31.8983 161.319 31.8983 161.321 31.8983Z" fill="#DB1A21"/>
</svg>
