<svg width="257" height="112" viewBox="0 0 257 112" fill="none" xmlns="http://www.w3.org/2000/svg">
<path d="M185.997 16.7683H182.817L182.625 16.5446H182.345L182.15 16.7357H181.808V17.053H175.414L175.186 16.9513V16.0687H175.467L175.252 15.3407H174.629V15.5969H174.162V15.0682H173.828V11.4483H172.966V15.7962H172.213V14.6493H148.806L148.802 13.8846L147.602 13.7789L147.424 13.4942L147.289 11.6924L146.748 11.7168L146.553 13.4779C146.553 13.4779 146.411 13.5552 146.338 13.8765C146.264 14.2019 146.423 14.4825 146.423 14.4825H144.829L144.621 14.8119L143.889 14.8241L143.063 15.1373C143.063 15.1373 141.965 15.2268 140.77 15.3285L140.778 15.2797C140.778 15.2797 141.03 15.1658 141.111 15.0804C141.197 14.999 141.229 14.8363 141.229 14.8363C141.245 14.6249 141.062 14.0473 141.062 14.0473L140.867 13.2827L140.928 12.2374C140.928 12.2374 142.018 11.973 142.173 11.8713C142.331 11.7737 142.27 11.668 142.27 11.668C142.27 11.668 142.677 11.733 143.283 11.2694C143.877 10.8016 143.84 8.49146 143.735 7.48685C143.641 6.47818 142.811 4.44863 142.811 4.44863C142.811 4.44863 143.051 3.94835 142.933 3.66365C142.811 3.38301 142.571 3.25692 142.445 3.18371C142.327 3.0983 141.404 2.63464 141.258 2.59396C141.123 2.55736 140.944 2.51262 140.944 2.51262C140.944 2.51262 139.012 1.08502 138.11 0.804381C137.198 0.527809 137.072 0.381389 135.246 0.352918C133.424 0.324447 130.5 1.26805 128.751 3.93209C127.002 6.60019 127.002 10.0126 127.169 10.6796C127.331 11.3426 127.893 13.0793 127.893 13.0793L127.104 13.8805C127.104 13.8805 126.302 13.0793 125.997 12.8922C125.684 12.7092 123.175 12.6441 121.149 13.8805C119.12 15.1048 116.972 17.9356 116.114 22.0435C115.252 26.1595 115.744 28.4291 115.801 29.0432C115.866 29.6574 116.049 29.9705 116.049 29.9705L115.927 30.8247C115.927 30.8247 114.764 31.1948 114.271 31.2517C113.779 31.3168 112.799 31.0728 112.307 31.2517C111.819 31.4388 111.571 31.6869 111.449 31.9309C111.323 32.1831 111.201 37.5844 111.018 38.1986C110.839 38.8127 110.387 41.2083 110.448 42.0706C110.513 42.9247 110.33 42.5627 110.94 42.8108C111.559 43.0589 114.995 43.608 114.995 43.608C114.995 43.608 113.759 43.7259 113.275 43.9171C112.787 44.1001 111.925 44.7183 111.738 45.0193C111.559 45.3243 111.738 49.0743 111.738 49.0743C111.738 49.0743 112.165 51.0388 112.165 51.2829C112.165 51.531 112.165 51.531 112.165 51.531L112.457 55.7039L112.498 56.192C112.498 56.192 112.039 55.8748 111.847 55.9154C111.66 55.9561 111.343 56.1676 111.164 56.3791C110.989 56.5865 110.44 58.6283 110.505 58.7991C110.574 58.9659 111.363 59.4865 111.363 59.4865C111.363 59.4865 110.542 60.731 110.587 60.8775C110.631 61.028 110.888 61.4265 111.091 61.6746C111.306 61.9309 110.672 62.4311 110.993 62.9802C111.306 63.5293 111.729 63.8221 111.729 63.8221C111.729 63.8221 109.94 73.0263 110.314 74.5596C110.692 76.093 110.265 77.2481 110.265 77.2481C110.265 77.2481 109.375 78.5618 109.155 79.0092C108.931 79.4566 108.813 80.0179 108.813 80.0179C108.813 80.0179 107.959 80.8801 107.731 81.3235C107.508 81.7709 105.352 85.2483 105.206 86.5214C105.059 87.7944 105.173 88.4289 104.835 89.2139C104.494 89.9989 103.721 91.1946 103.355 91.9064C102.973 92.6141 102.79 93.2527 102.753 94.2247C102.712 95.1927 102.647 95.9086 103.017 96.2461C103.392 96.5797 103.554 96.6935 103.554 96.6935C103.554 96.6935 102.224 101.891 101.818 103.539C101.395 105.186 100.874 106.601 100.874 107.614C100.874 108.623 101.073 110.355 101.248 110.551C101.427 110.738 103.689 111.124 104.762 111.128C106.389 111.136 108.927 110.831 109.082 110.791C109.228 110.754 109.379 109.074 109.379 109.074C109.379 109.074 109.224 108.106 108.85 107.651C108.553 107.276 108.565 106.329 108.541 105.8C108.52 105.458 108.565 103.543 108.638 102.424C108.716 101.302 110.404 97.5924 110.404 97.5924C110.404 97.5924 111.335 97.629 111.786 96.9945C112.242 96.3641 113.141 93.5211 113.218 93.1835C113.291 92.8459 114.414 90.9384 115.085 89.218C115.76 87.5016 115.902 86.7125 115.76 86.2285C115.61 85.7405 115.532 84.7318 115.532 84.7318C115.532 84.7318 116.334 83.2432 116.525 82.4989C116.712 81.7546 117.44 81.8319 117.965 81.1445C118.493 80.4571 119.164 78.753 119.164 78.753C119.164 78.753 120.324 78.3096 120.592 77.8175C120.852 77.3335 121.113 76.1743 121.145 75.2755C121.186 74.3766 122.117 72.2088 122.268 71.7573C122.414 71.3059 123.651 68.2798 123.651 68.2798C123.651 68.2798 125.001 67.0434 125.416 66.2177C125.826 65.3962 125.989 64.1638 125.989 64.1638C125.989 64.1638 127.189 67.0068 127.937 67.2671C128.686 67.5274 129.955 67.5274 129.955 67.5274L135.677 76.0523C135.677 76.0523 136.759 76.4631 137.211 76.4631C137.65 76.4631 138.89 76.3167 138.89 76.3167L139.899 77.85L139.566 81.5106C139.566 81.5106 138.813 81.9254 138.667 82.7836C138.52 83.6418 139.037 90.3771 139.557 91.6136C140.086 92.85 139.858 93.7448 140.009 94.119C140.155 94.485 140.615 94.4891 140.639 94.4891L141.058 101.29C141.058 101.29 140.314 102.079 140.237 102.937C140.159 103.799 139.712 105.105 139.712 105.105C139.712 105.105 139.334 107.537 139.484 107.76C139.635 107.984 140.416 108.399 141.583 108.399C142.742 108.399 144.198 108.061 144.463 108.171C144.723 108.285 147.232 108.956 147.342 109.034C147.456 109.107 151.454 109.444 152.544 109.371C153.622 109.294 155.944 109.139 156.127 108.993C156.323 108.846 156.359 107.354 156.359 107.354C156.359 107.354 156.274 106.569 155.721 106.308C155.159 106.044 154.33 105.41 153.699 105.296C153.065 105.186 152.272 104.922 151.873 104.698C151.454 104.47 148.396 100.769 148.241 100.505C148.095 100.248 147.753 98.113 147.871 97.1409C147.973 96.1689 148.013 93.6675 148.013 93.6675C148.013 93.6675 148.575 92.9964 148.611 92.85C148.644 92.6955 148.941 90.7513 148.867 90.2714C148.79 89.7792 148.363 87.6805 148.363 87.6805C148.363 87.6805 148.969 84.2071 149.01 83.7597C149.046 83.3083 149.579 76.9878 149.543 76.0971C149.51 75.1982 148.871 74.519 148.871 74.519C148.871 74.519 148.831 72.5423 148.644 72.3918C148.457 72.2413 148.009 72.465 147.867 72.3552C147.712 72.2454 146.216 67.6047 144.007 63.0412C141.803 58.4819 138.516 55.3013 138.516 55.3013L137.829 52.1614L138.5 50.8517C138.5 50.8517 140.147 51.6042 140.672 51.5635C141.193 51.5269 142.762 48.387 142.657 47.8623C142.539 47.3376 143.393 39.374 143.084 38.772C142.787 38.1782 142.787 37.5437 142.189 37.0923C141.595 36.6449 140.509 36.2707 140.509 36.2707C140.509 36.2707 141.054 34.9488 141.156 34.6885C141.249 34.4242 141.131 33.6473 141.131 33.6473C141.131 33.6473 143.617 35.0668 144.894 35.7338C146.167 36.3968 148.453 37.442 149.274 37.5153C150.096 37.6007 150.567 37.5153 150.567 37.5153C150.567 37.5153 150.921 37.9911 151.332 38.0115C152.963 38.0643 154.256 36.6571 154.322 36.5717C154.407 36.4781 154.7 36.047 154.7 36.047C154.7 36.047 155.22 35.929 155.818 35.4654C156.412 34.9976 157.108 33.7734 157.124 33.2691C157.136 33.0128 157.547 31.1541 157.97 29.3523L159.886 28.8439C159.886 28.8439 159.296 26.9974 158.954 25.0654C158.922 24.8824 158.889 24.7116 158.865 24.5489L158.954 22.8244C158.954 22.8244 159.56 22.7431 159.816 22.3892C160.048 22.0435 160.337 21.7018 160.418 21.5961C160.597 21.3846 161.11 21.1772 161.289 20.9169C161.46 20.6606 161.293 20.3393 161.374 20.1116C161.411 20.0099 161.838 20.0709 162.179 19.8919C162.379 19.7943 162.533 19.6357 162.651 19.4893C162.651 19.4893 162.651 19.4893 162.647 19.4852H172.282V18.2244H172.97V18.3911H175.191V18.261L175.447 18.1389H181.881V18.4643L182.231 18.4725L182.377 18.6107H182.654L182.845 18.3464H186.07C186.07 18.3464 186.192 17.903 186.18 17.5289C186.164 17.1506 185.997 16.7683 185.997 16.7683ZM150.738 21.287C150.836 21.2056 151.019 21.1812 151.019 21.1812C151.019 21.1812 151.235 21.1406 151.235 21.1812V21.3887L150.722 21.3033C150.726 21.2951 150.738 21.2911 150.738 21.287ZM152.325 25.3339C152.036 25.8626 151.161 26.973 151.161 26.973C151.161 26.973 150.283 25.2322 150.059 24.8987C149.982 24.7889 149.799 24.5408 149.571 24.2642C149.648 24.1463 150.043 23.4874 150.047 23.4508C150.063 23.4223 150.303 23.3572 150.303 23.3572L150.421 23.4711H153.602C153.602 23.4711 153.679 23.4914 153.801 23.467C153.256 24.1015 152.52 24.9882 152.325 25.3339ZM154.13 22.6536C154.13 22.6536 154.13 22.7797 153.955 22.9505C153.793 23.1172 153.606 23.1416 153.606 23.1416H151.373C151.373 23.1416 150.95 23.166 150.799 23.0196C150.787 23.0074 150.771 22.9871 150.767 22.9708C150.82 22.9546 150.893 22.9342 150.962 22.9179C151.1 22.8854 151.381 22.8691 151.523 22.8325C151.641 22.9545 151.751 23.0034 151.751 23.0034L151.865 22.9871C151.865 22.9871 151.78 22.8895 151.702 22.7471C151.78 22.7024 151.828 22.6536 151.873 22.6048C151.942 22.5356 151.987 22.4339 152.024 22.3363C152.056 22.2306 151.942 21.653 151.93 21.6205C151.922 21.5961 151.91 21.5676 151.873 21.527C151.942 21.4537 152.036 21.3927 152.17 21.3317C152.581 21.1487 152.634 21.1609 152.634 21.1609H153.602C153.602 21.1609 153.858 21.1243 153.98 21.2707C154.09 21.409 154.126 21.5351 154.126 21.5351V22.6536H154.13Z" fill="white"/>
<path d="M43.5015 83.3896C43.0175 88.1523 38.9869 91.8535 34.0899 91.8535H10.1176C4.88715 91.8535 0.657227 87.6155 0.657227 82.3931V61.9065C0.657227 56.6841 4.88715 52.4461 10.1176 52.4461H34.0899C38.9258 52.4461 42.9158 56.0822 43.4852 60.7595V61.2354H11.167V82.9097H43.5015V83.3896Z" fill="white"/>
<path d="M85.3248 76.2801V83.3205H50.9119C51.3796 88.1035 55.4143 91.8495 60.3275 91.8495H85.4671C90.6895 91.8495 94.9275 87.6114 94.9275 82.3891V76.2801C94.4964 71.5011 90.4576 67.7755 85.5607 67.7755H60.4658V60.9547H94.2117H94.1629C93.687 56.1798 89.6523 52.4461 84.7513 52.4461H60.3275C55.1012 52.4461 50.8672 56.6841 50.8672 61.9024V67.7674C51.3308 72.5545 55.3655 76.2963 60.2787 76.2963L85.3248 76.2801Z" fill="white"/>
<path d="M222.993 91.4956C217.986 91.4956 213.919 87.4324 213.919 82.4338V61.1703C213.919 56.1757 217.986 52.1044 222.993 52.1044H247.591C252.586 52.1044 256.657 56.1717 256.657 61.1703V82.4338C256.657 87.4324 252.586 91.4956 247.591 91.4956H222.993ZM222.395 84.2071H248.189V59.4499H222.395V84.2071Z" fill="white"/>
<path d="M170.94 91.5042C165.942 91.5042 161.874 87.4369 161.874 82.4383V61.1788C161.874 56.1802 165.937 52.113 170.94 52.113H197.239C201.713 52.113 205.491 55.3667 206.191 59.7431H170.245V83.7235H197.817V75.1254L184.683 75.1295C183.841 75.1295 180.925 74.9424 179.022 72.5346C177.582 70.7206 177.183 69.3052 177.074 68.5365H206.244V83.4714C205.788 88.0185 201.916 91.5082 197.231 91.5082H170.94V91.5042Z" fill="white"/>
</svg>
