<svg width="256" height="59" viewBox="0 0 256 59" fill="none" xmlns="http://www.w3.org/2000/svg">
<g clip-path="url(#clip0)">
<path fill-rule="evenodd" clip-rule="evenodd" d="M0.366867 58.1956C0.491843 57.7189 0.609765 57.2593 0.733733 56.8007C3.72813 45.6214 6.72252 34.444 9.71792 23.2657C11.515 16.5603 13.314 9.85293 15.109 3.14553C15.4961 1.69722 16.387 0.73973 17.8313 0.3134C18.1327 0.223699 18.4421 0.189438 18.7586 0.189438C20.3943 0.193469 22.0301 0.190445 23.6649 0.191453C25.602 0.19246 27.2408 1.42206 27.7599 3.27857C28.5883 6.24071 29.4077 9.20688 30.2312 12.171C31.9264 18.2707 33.6207 24.3703 35.3169 30.47C35.3411 30.5577 35.3774 30.6423 35.4086 30.731C35.5679 30.6736 35.6294 30.5446 35.713 30.4418C41.8661 22.9059 48.0192 15.369 54.1712 7.83012C55.6619 6.00386 57.1475 4.17356 58.6421 2.35032C59.6248 1.15195 60.8786 0.420241 62.4257 0.217658C62.5739 0.197501 62.724 0.19246 62.8742 0.19246C65.7497 0.190444 68.6251 0.191453 71.5016 0.191453C71.9975 0.191453 72.0015 0.193467 71.8705 0.683294C70.6298 5.35479 69.3871 10.0263 68.1434 14.6948C65.6993 23.8785 63.2552 33.0622 60.8101 42.245C59.4263 47.4406 58.0404 52.6382 56.6546 57.8338C56.6335 57.9124 56.6062 57.99 56.5911 58.0686C56.5669 58.1946 56.4994 58.2601 56.3674 58.2541C56.2988 58.25 56.2313 58.2561 56.1628 58.2561C53.7237 58.2561 51.2837 58.2641 48.8436 58.251C47.4568 58.244 46.4469 57.605 45.8663 56.3401C45.5358 55.6175 45.5357 54.8666 45.7424 54.1026C46.8278 50.0943 47.9063 46.085 48.9897 42.0757C50.6084 36.0828 52.229 30.09 53.8457 24.0942C53.889 23.9309 53.9868 23.7686 53.9263 23.5741C53.755 23.6124 53.6995 23.7666 53.6139 23.8795C51.3713 26.7963 49.1339 29.7161 46.8944 32.6359C44.2487 36.0849 41.603 39.5338 38.9574 42.9838C38.1974 43.9735 37.2127 44.6075 35.9861 44.8645C35.7443 44.9159 35.5003 44.9249 35.2544 44.9249C33.5098 44.9259 31.7652 44.929 30.0215 44.9249C28.3041 44.9209 26.881 43.8425 26.4446 42.1785C25.4912 38.5441 24.5569 34.9036 23.6155 31.2672C22.9604 28.7354 22.3063 26.2057 21.6511 23.6759C21.631 23.6003 21.633 23.5137 21.5171 23.4381C21.3941 23.8846 21.2752 24.3099 21.1613 24.7362C18.428 34.9399 15.6976 45.1467 12.9603 55.3504C12.545 56.8995 11.5402 57.8549 9.96687 58.2027C9.7532 58.25 9.53449 58.2551 9.31679 58.2551C6.45443 58.2571 3.59307 58.2571 0.73071 58.2551C0.624883 58.2551 0.514017 58.2742 0.366867 58.1956ZM53.9737 23.4522L53.9908 23.4643L53.9928 23.4431L53.9737 23.4522Z" fill="white"/>
<path fill-rule="evenodd" clip-rule="evenodd" d="M207.283 58.238C207.134 58.244 206.986 58.2571 206.837 58.2571C204.869 58.2571 202.9 58.2571 200.932 58.2571C200.784 58.2571 200.634 58.244 200.485 58.238C200.43 58.1624 200.376 58.0838 200.317 58.0092C199.426 56.8975 198.723 55.675 198.225 54.3425C197.311 51.9005 196.477 49.4322 195.675 46.9518C195.382 46.0488 195.084 45.1487 194.789 44.2487C194.765 44.1429 194.746 44.035 194.714 43.9322C193.674 40.5367 192.692 37.124 191.87 33.668C191.243 31.0334 190.633 28.3948 190.319 25.6978C190.23 24.9368 190.335 24.2847 191.044 23.8503C191.242 23.7294 191.233 23.5762 191.115 23.4018C191.008 23.2446 190.901 23.0864 190.802 22.9231C190.072 21.7288 190.16 20.5425 191.098 19.5034C192.554 17.8938 194.149 16.4314 195.878 15.1151C196.029 15.0012 196.198 14.9065 196.348 14.7895C197.394 13.9681 198.562 14.1435 199.7 14.46C200.196 14.598 200.649 14.6505 201.134 14.5386C203.375 14.0185 205.595 13.4229 207.775 12.6861C208.588 12.412 209.393 12.1177 210.161 11.7306C210.551 11.5351 210.623 11.3436 210.475 10.9384C210.248 10.3146 209.804 9.92554 209.171 9.75017C208.723 9.62721 208.262 9.58588 207.796 9.57984C206.953 9.56976 206.108 9.57077 205.267 9.50123C204.598 9.44579 203.94 9.34198 203.32 9.07187C202.578 8.75137 202.085 8.21216 201.871 7.41392C201.682 6.70639 201.71 6.01196 201.932 5.32258C202.286 4.21795 203.001 3.37738 203.895 2.67187C204.741 2.00365 205.714 1.58437 206.723 1.23867C207.752 0.884906 208.786 0.550297 209.818 0.20762C210.816 0.179399 211.813 0.180408 212.81 0.206612C212.62 0.279179 212.432 0.35779 212.238 0.422294C211.09 0.809318 209.936 1.17719 208.794 1.57934C207.389 2.07622 206.05 2.70916 204.847 3.60314C204.408 3.92969 204.004 4.29656 203.707 4.76321C203.402 5.24598 203.215 5.76302 203.286 6.34758C203.382 7.13675 203.88 7.63666 204.633 7.69713C205.38 7.75559 206.127 7.79791 206.872 7.8735C207.834 7.97127 208.799 8.064 209.729 8.34519C210.755 8.65663 211.597 9.21297 212.101 10.2027C212.276 10.5464 212.453 10.5716 212.784 10.3095C215.001 8.56591 217.215 6.81725 219.41 5.04541C219.978 4.58683 220.303 4.01436 220.432 3.33404C220.567 2.62047 220.971 2.13065 221.545 1.74362C222.012 1.42816 222.532 1.22154 223.074 1.07741C224.176 0.783115 225.282 0.496879 226.388 0.20762C227.252 0.201572 228.117 0.192503 228.982 0.191495C229.657 0.190487 230.333 0.198551 231.009 0.20359C231.217 0.379968 231.387 0.592627 231.564 0.797225C231.806 1.07338 232.047 1.35055 232.29 1.6257C232.438 1.79502 232.612 1.89581 232.849 1.921C233.202 1.9593 233.534 2.09235 233.853 2.24857C235.003 2.81298 236.005 3.58299 236.885 4.50217C237.703 5.35786 238.473 6.25688 239.27 7.13272C242.266 10.4275 245.175 13.7927 247.895 17.3213C248.65 18.301 249.387 19.2947 250.134 20.2825C249.889 21.2278 249.65 22.1763 249.397 23.1196C248.505 26.4537 247.608 29.7857 246.711 33.1197C246.683 33.2246 246.646 33.3264 246.612 33.4302C246.501 33.3516 246.386 33.278 246.278 33.1953C245.105 32.2832 243.902 31.4124 242.687 30.5577C240.759 29.2031 238.826 27.8546 236.812 26.629C236.124 26.2087 235.39 25.8762 234.613 25.6625C233.808 25.4418 233.234 25.6947 232.813 26.4073C232.729 26.5474 232.654 26.6915 232.572 26.8336C232.228 27.4242 231.842 27.9846 231.369 28.4785C230.622 29.2566 229.746 29.7716 228.634 29.7303C227.927 29.7051 227.226 29.5992 226.528 29.4723C225.821 29.3412 225.16 29.1215 224.587 28.671C224.384 28.5117 224.151 28.3948 223.919 28.2779C223.51 28.0713 223.118 28.0572 222.717 28.3021C222.38 28.5067 222.038 28.7043 221.688 28.8867C220.661 29.4188 219.629 29.9409 218.602 30.4741C217.906 30.8339 217.563 31.4295 217.569 32.1975C217.572 32.5946 217.555 32.9877 217.509 33.3778C217.392 34.3786 217.047 35.2968 216.315 36.0043C215.188 37.0958 213.83 37.7046 212.246 37.7489C211.785 37.762 211.322 37.7177 210.859 37.6975C210.171 37.6693 209.69 37.9989 209.361 38.5764C209.136 38.9715 209.016 39.4028 208.925 39.8453C208.723 40.839 208.721 41.8489 208.698 42.8548C208.665 44.3394 208.705 45.824 208.75 47.3086C208.788 48.5604 208.812 49.8121 208.885 51.0639C209.029 53.6128 208.652 56.0358 207.283 58.238Z" fill="white"/>
<path fill-rule="evenodd" clip-rule="evenodd" d="M173 0.243899C172.871 0.732718 172.743 1.2165 172.614 1.70028C172.026 3.89643 171.439 6.09259 170.848 8.28875C170.368 10.0676 168.95 11.1562 167.105 11.1723C166.996 11.1733 166.887 11.1723 166.778 11.1723C158.969 11.1723 151.16 11.1995 143.352 11.1531C141.179 11.141 139.155 12.8756 138.665 14.7412C137.599 18.7958 136.499 22.8425 135.413 26.8921C133.812 32.8627 132.213 38.8314 130.612 44.802C130.504 45.2102 130.409 45.6184 130.48 46.0498C130.572 46.6091 130.893 46.9528 131.426 47.1121C131.717 47.1987 132.015 47.2048 132.317 47.2038C138.245 47.2028 144.173 47.2028 150.102 47.2038C150.263 47.2048 150.427 47.1836 150.581 47.228C150.64 47.365 150.577 47.4779 150.545 47.5928C149.839 50.2224 149.139 52.8549 148.424 55.4804C147.982 57.0991 146.601 58.1785 144.927 58.2481C144.79 58.2541 144.654 58.2561 144.519 58.2561C139.844 58.2561 135.17 58.2541 130.496 58.2561C128.803 58.2571 127.15 58.0183 125.587 57.3531C121.822 55.7526 119.634 52.8973 118.953 48.8779C118.616 46.8813 118.863 44.9179 119.384 42.9778C121.924 33.5098 124.477 24.0479 126.984 14.5718C127.826 11.391 129.309 8.58809 131.574 6.21354C134.404 3.24636 137.79 1.24169 141.846 0.45253C142.73 0.281191 143.626 0.191495 144.526 0.191495C153.848 0.189479 163.17 0.190487 172.491 0.192502C172.65 0.19351 172.814 0.159237 173 0.243899Z" fill="white"/>
<path fill-rule="evenodd" clip-rule="evenodd" d="M95.618 0.234835C95.5908 0.569449 95.4709 0.888945 95.3832 1.21449C92.3545 12.5249 89.3228 23.8332 86.2911 35.1436C85.4415 38.3133 84.5919 41.4831 83.7422 44.6518C83.6636 44.9431 83.6021 45.2344 83.5931 45.5357C83.5618 46.5194 84.1272 47.1373 85.1099 47.1887C85.2319 47.1947 85.3548 47.1907 85.4778 47.1907C93.0832 47.1907 100.689 47.1897 108.293 47.1907C108.647 47.1907 109 47.1897 109.349 47.2703C110.852 47.62 111.851 49.0956 111.546 50.6074C111.36 51.5266 111.095 52.4316 110.857 53.3397C110.46 54.8535 110.057 56.3664 109.655 57.8792C109.555 58.2541 109.553 58.2561 109.168 58.2561C106.742 58.2581 104.316 58.2581 101.89 58.2581C95.7984 58.2581 89.7058 58.2561 83.6132 58.2581C81.9049 58.2581 80.2429 57.99 78.6726 57.3057C75.0362 55.7223 72.8723 52.9376 72.1124 49.0673C71.6881 46.9034 71.8937 44.7607 72.4631 42.6371C75.2146 32.3951 77.956 22.149 80.7005 11.904C81.4896 8.95798 82.2768 6.01096 83.072 3.06696C83.45 1.66601 84.3359 0.745825 85.7277 0.322518C86.015 0.234833 86.3113 0.191497 86.6127 0.191497C89.4891 0.192505 92.3646 0.192504 95.2401 0.193512C95.362 0.192504 95.486 0.168315 95.618 0.234835Z" fill="white"/>
<path fill-rule="evenodd" clip-rule="evenodd" d="M207.283 58.238C208.652 56.0348 209.029 53.6129 208.882 51.068C208.809 49.8172 208.785 48.5654 208.747 47.3126C208.702 45.828 208.662 44.3434 208.695 42.8588C208.718 41.853 208.72 40.8431 208.922 39.8493C209.013 39.4079 209.133 38.9755 209.358 38.5804C209.687 38.0029 210.168 37.6733 210.856 37.7015C211.319 37.7217 211.782 37.765 212.243 37.7529C213.826 37.7076 215.184 37.0998 216.312 36.0083C217.044 35.3008 217.389 34.3826 217.506 33.3818C217.552 32.9917 217.569 32.5987 217.566 32.2016C217.561 31.4336 217.903 30.8379 218.599 30.4781C219.626 29.9449 220.658 29.4229 221.685 28.8907C222.035 28.7083 222.377 28.5107 222.714 28.3061C223.114 28.0612 223.507 28.0753 223.916 28.2819C224.148 28.3979 224.381 28.5148 224.584 28.675C225.157 29.1255 225.818 29.3453 226.525 29.4763C227.222 29.6033 227.924 29.7081 228.631 29.7343C229.743 29.7756 230.62 29.2606 231.366 28.4825C231.84 27.9887 232.226 27.4283 232.569 26.8377C232.652 26.6956 232.726 26.5514 232.81 26.4113C233.231 25.6988 233.805 25.4458 234.61 25.6665C235.387 25.8802 236.121 26.2128 236.809 26.6331C238.823 27.8597 240.756 29.2082 242.684 30.5618C243.899 31.4174 245.102 32.2872 246.275 33.1994C246.382 33.282 246.497 33.3556 246.609 33.4342C246.315 34.5519 246.026 35.6697 245.728 36.7864C245.07 39.2567 244.417 41.73 243.743 44.1973C243.025 46.8299 241.716 49.152 239.939 51.2091C237.485 54.0472 234.517 56.1517 230.957 57.3803C229.247 57.9709 227.488 58.2702 225.67 58.2642C219.718 58.2471 213.765 58.2581 207.813 58.2581C207.636 58.2571 207.46 58.244 207.283 58.238Z" fill="#901926"/>
<path fill-rule="evenodd" clip-rule="evenodd" d="M209.816 0.209634C208.785 0.553319 207.75 0.887935 206.721 1.24069C205.713 1.58639 204.74 2.00566 203.893 2.67389C202.999 3.3794 202.283 4.21996 201.93 5.32459C201.708 6.01498 201.679 6.70841 201.869 7.41593C202.083 8.21417 202.575 8.75237 203.318 9.07388C203.938 9.34399 204.596 9.44781 205.265 9.50324C206.106 9.57278 206.951 9.57178 207.794 9.58186C208.26 9.5879 208.721 9.62923 209.169 9.75219C209.802 9.92756 210.247 10.3166 210.473 10.9405C210.621 11.3456 210.549 11.5371 210.159 11.7327C209.391 12.1197 208.586 12.414 207.773 12.6881C205.593 13.4239 203.373 14.0205 201.132 14.5406C200.647 14.6525 200.194 14.6001 199.698 14.462C198.56 14.1465 197.392 13.9701 196.346 14.7916C196.197 14.9085 196.027 15.0032 195.876 15.1171C194.148 16.4334 192.552 17.8958 191.096 19.5054C190.158 20.5435 190.07 21.7308 190.8 22.9251C190.899 23.0884 191.006 23.2456 191.113 23.4038C191.23 23.5782 191.24 23.7314 191.041 23.8523C190.333 24.2867 190.228 24.9388 190.317 25.6998C190.631 28.3968 191.241 31.0355 191.868 33.67C192.69 37.126 193.672 40.5377 194.712 43.9342C194.744 44.038 194.763 44.1449 194.787 44.2507C194.715 44.289 194.638 44.3202 194.572 44.3676C193.439 45.188 192.307 46.0125 191.176 46.8359C190.077 47.6351 188.978 48.4354 187.879 49.2336C186.68 50.1044 185.481 50.9742 184.282 51.844C182.972 52.7924 181.663 53.7429 180.354 54.6923C179.188 55.5379 178.024 56.3855 176.854 57.2261C176.403 57.5496 175.985 57.9215 175.48 58.1674C175.625 57.4196 175.853 56.6919 176.049 55.9562C178.082 48.3719 180.119 40.7866 182.155 33.2024C184.152 25.7612 186.147 18.3211 188.144 10.881C188.846 8.26456 189.546 5.64913 190.255 3.03471C190.727 1.29814 192.155 0.219708 193.956 0.216685C198.193 0.208622 202.43 0.199555 206.668 0.195523C207.719 0.191492 208.767 0.203586 209.816 0.209634Z" fill="#005795"/>
<path fill-rule="evenodd" clip-rule="evenodd" d="M160.005 34.3262C159.812 34.2576 159.647 34.2828 159.485 34.2828C155.546 34.2808 151.608 34.2818 147.669 34.2818C146.615 34.2818 145.798 33.8504 145.264 32.9333C144.897 32.3013 144.833 31.615 145.018 30.9165C145.57 28.8242 146.134 26.7339 146.695 24.6425C146.783 24.32 146.788 24.318 147.142 24.317C154.501 24.317 161.861 24.3119 169.22 24.321C171.002 24.322 172.243 25.9034 171.803 27.6349C171.288 29.6678 170.72 31.6855 170.173 33.7104C168.015 41.7139 165.856 49.7204 163.693 57.723C163.529 58.3317 163.659 58.2541 162.995 58.2541C161.006 58.2581 159.016 58.2622 157.027 58.2521C155.807 58.246 154.798 57.4629 154.49 56.316C154.344 55.7737 154.394 55.2426 154.538 54.7044C155.563 50.9057 156.581 47.106 157.603 43.3063C158.373 40.4389 159.145 37.5745 159.915 34.7082C159.947 34.5922 159.971 34.4733 160.005 34.3262Z" fill="white"/>
<path fill-rule="evenodd" clip-rule="evenodd" d="M250.13 20.2855C249.383 19.2988 248.646 18.304 247.891 17.3243C245.171 13.7958 242.262 10.4295 239.266 7.13575C238.469 6.2599 237.699 5.35987 236.881 4.5052C236.001 3.58601 234.999 2.81499 233.849 2.25159C233.53 2.09537 233.198 1.96232 232.845 1.92403C232.609 1.89883 232.435 1.79804 232.286 1.62872C232.043 1.35357 231.802 1.07641 231.56 0.800248C231.382 0.59565 231.212 0.382991 231.005 0.206613C231.154 0.200566 231.304 0.189481 231.453 0.189481C239.314 0.188473 247.175 0.188473 255.035 0.190489C255.183 0.190489 255.335 0.160246 255.496 0.229789C255.449 0.66116 255.3 1.07036 255.189 1.4856C253.539 7.64976 251.884 13.8129 250.23 19.9761C250.203 20.0809 250.163 20.1817 250.13 20.2855Z" fill="#901926"/>
<path fill-rule="evenodd" clip-rule="evenodd" d="M175.482 58.1664C175.987 57.9215 176.405 57.5496 176.856 57.2251C178.026 56.3845 179.19 55.5369 180.356 54.6913C181.665 53.7419 182.975 52.7914 184.284 51.843C185.482 50.9732 186.682 50.1034 187.881 49.2326C188.98 48.4344 190.078 47.6341 191.178 46.8349C192.31 46.0115 193.441 45.187 194.574 44.3666C194.64 44.3192 194.717 44.288 194.789 44.2497C195.084 45.1497 195.383 46.0498 195.675 46.9528C196.476 49.4332 197.311 51.9015 198.225 54.3436C198.723 55.675 199.426 56.8985 200.317 58.0102C200.376 58.0838 200.43 58.1624 200.485 58.239C200.322 58.245 200.159 58.2561 199.996 58.2561C191.988 58.2581 183.979 58.2581 175.971 58.2521C175.807 58.2511 175.618 58.3398 175.482 58.1664Z" fill="#11426D"/>
<path fill-rule="evenodd" clip-rule="evenodd" d="M226.386 0.209638C225.28 0.498897 224.174 0.785133 223.072 1.07943C222.529 1.22457 222.011 1.43118 221.543 1.74564C220.97 2.13266 220.566 2.62249 220.43 3.33606C220.301 4.01638 219.977 4.58885 219.408 5.04744C217.213 6.81928 214.999 8.56693 212.782 10.3116C212.45 10.5736 212.274 10.5474 212.099 10.2047C211.595 9.216 210.752 8.65864 209.726 8.34721C208.796 8.06702 207.831 7.97329 206.87 7.87553C206.125 7.79994 205.378 7.75761 204.631 7.69915C203.877 7.63868 203.379 7.13877 203.284 6.34961C203.213 5.76504 203.401 5.248 203.705 4.76522C204.001 4.29757 204.406 3.93172 204.845 3.60517C206.048 2.71118 207.387 2.07824 208.792 1.58135C209.934 1.17921 211.088 0.810328 212.236 0.424312C212.43 0.360816 212.618 0.281197 212.808 0.20863C212.931 0.203591 213.052 0.192505 213.173 0.192505C217.442 0.191498 221.71 0.191498 225.978 0.192505C226.114 0.192505 226.25 0.20359 226.386 0.209638Z" fill="#005795"/>
<path fill-rule="evenodd" clip-rule="evenodd" d="M252.723 58.2571C251.307 58.3216 249.82 57.1424 249.826 55.4139C249.831 53.8215 251.1 52.5878 252.745 52.5878C254.387 52.5878 255.642 53.8285 255.634 55.4331C255.623 57.1414 254.205 58.3247 252.723 58.2571ZM254.883 55.419C254.883 54.144 253.955 53.1724 252.739 53.1724C251.527 53.1734 250.56 54.1571 250.566 55.4038C250.571 56.5407 251.343 57.6302 252.769 57.6514C253.96 57.6685 254.884 56.6697 254.883 55.419Z" fill="white"/>
<path fill-rule="evenodd" clip-rule="evenodd" d="M53.9737 23.4521L53.9927 23.4421L53.9907 23.4631L53.9737 23.4521Z" fill="#00FF00"/>
<path fill-rule="evenodd" clip-rule="evenodd" d="M253.501 55.5026C253.944 55.8009 253.912 56.319 254.06 56.7584C254.08 56.8189 254.045 56.8602 253.987 56.8834C253.655 57.0205 253.346 56.8632 253.251 56.5085C253.215 56.3764 253.191 56.2414 253.151 56.1124C253.093 55.9279 252.969 55.8171 252.773 55.7838C252.392 55.7193 252.317 55.7778 252.312 56.1618C252.311 56.3261 252.307 56.4883 252.312 56.6516C252.318 56.8219 252.25 56.9086 252.074 56.8965C252.007 56.8935 251.938 56.8945 251.87 56.8965C251.705 56.9025 251.621 56.8431 251.623 56.6617C251.629 55.8715 251.631 55.0833 251.622 54.2922C251.62 54.0936 251.715 54.0251 251.887 54.011C252.334 53.9737 252.784 53.9485 253.23 54.0069C253.362 54.0251 253.497 54.0714 253.615 54.1349C254.04 54.3577 254.11 54.9523 253.759 55.2778C253.682 55.3504 253.565 55.3776 253.501 55.5026ZM252.335 54.8798C252.335 55.2779 252.342 55.2879 252.606 55.2849C253.003 55.2809 253.252 55.1186 253.249 54.8666C253.246 54.6046 253.032 54.4645 252.648 54.4685C252.335 54.4726 252.335 54.4726 252.335 54.8798Z" fill="white"/>
</g>
<defs>
<clipPath id="clip0">
<rect width="256" height="58.4567" fill="white"/>
</clipPath>
</defs>
</svg>
