<svg width="256" height="34" viewBox="0 0 256 34" fill="none" xmlns="http://www.w3.org/2000/svg">
<path fill-rule="evenodd" clip-rule="evenodd" d="M255.449 1.11067C255.449 3.44534 255.449 5.59866 255.449 7.97042C248.879 7.97042 242.356 7.97042 235.734 7.97042C235.734 9.90739 235.734 11.627 235.734 13.5299C240.81 13.5299 245.81 13.5299 251.186 13.5299C250.023 16.0089 248.995 18.2003 247.893 20.5432C243.879 20.5432 239.879 20.5432 235.757 20.5432C235.757 22.3431 235.757 23.9535 235.757 25.8009C242.268 25.8009 248.793 25.8009 255.41 25.8009C255.41 28.1747 255.41 30.3167 255.41 32.5885C246.196 32.5885 237.015 32.5885 227.729 32.5885C227.729 22.0815 227.729 11.6352 227.729 1.11169C236.984 1.11066 246.126 1.11067 255.449 1.11067Z" fill="white"/>
<path fill-rule="evenodd" clip-rule="evenodd" d="M110.388 1.14157C110.388 3.38763 110.388 5.58527 110.388 7.95909C103.799 7.95909 97.2665 7.95909 90.6053 7.95909C90.6053 9.85176 90.6053 11.5734 90.6053 13.4877C95.6191 13.4877 100.617 13.4877 106.055 13.4877C104.89 15.9841 103.869 18.1663 102.775 20.5082C98.7723 20.5082 94.771 20.5082 90.6261 20.5082C90.6261 22.3019 90.6261 23.9082 90.6261 25.7184C97.1083 25.7184 103.643 25.7184 110.335 25.7184C110.335 28.0943 110.335 30.2755 110.335 32.5864C101.146 32.5864 91.9591 32.5864 82.6318 32.5864C82.6318 22.1237 82.6318 11.6836 82.6318 1.14053C91.8842 1.14156 101.081 1.14157 110.388 1.14157Z" fill="white"/>
<path fill-rule="evenodd" clip-rule="evenodd" d="M152.382 32.7606C149.139 32.7606 146.211 32.7606 143.134 32.7606C142.202 30.7989 141.25 28.8001 140.256 26.7096C135.445 26.7096 130.615 26.7096 125.573 26.7096C124.648 28.6517 123.675 30.6969 122.685 32.7781C119.673 32.7781 116.734 32.7781 113.433 32.7781C118.847 22.1278 124.185 11.628 129.535 1.10347C131.781 1.10347 133.956 1.10347 136.327 1.10347C141.608 11.5147 146.923 21.9949 152.382 32.7606ZM128.801 19.7839C131.669 19.7839 134.267 19.7839 137.078 19.7839C135.675 16.7126 134.367 13.8473 132.93 10.6987C131.465 13.9194 130.169 16.7723 128.801 19.7839Z" fill="white"/>
<path fill-rule="evenodd" clip-rule="evenodd" d="M75.3805 32.6616C67.5975 32.6616 59.9841 32.6616 52.2157 32.6616C52.2157 22.1649 52.2157 11.6888 52.2157 1.12407C54.783 1.12407 57.293 1.12407 59.9862 1.12407C59.9862 9.29849 59.9862 17.4018 59.9862 25.7689C66.1937 25.7689 72.2305 25.7689 78.6305 25.7689C77.4535 28.2695 76.441 30.4156 75.3805 32.6616Z" fill="white"/>
<path fill-rule="evenodd" clip-rule="evenodd" d="M35.8296 13.7648C34.7015 16.183 33.7243 18.2776 32.6972 20.4752C22.0587 20.4752 11.5283 20.4752 0.550491 20.4752C1.69729 18.0653 2.70464 15.9429 3.74113 13.7648C14.3943 13.7648 24.8819 13.7648 35.8296 13.7648Z" fill="url(#paint0_linear)"/>
<path fill-rule="evenodd" clip-rule="evenodd" d="M12.7688 7.86635C13.4025 6.36829 13.9416 5.1 14.515 3.75133C14.1612 2.97654 13.8032 2.18939 13.3505 1.1972C24.3731 1.1972 35.2364 1.1972 46.6149 1.1972C45.5212 3.5566 44.5377 5.68005 43.5252 7.86739C33.2748 7.86636 23.1607 7.86635 12.7688 7.86635Z" fill="url(#paint1_linear)"/>
<path fill-rule="evenodd" clip-rule="evenodd" d="M3.62769 32.5411C5.14599 30.4537 6.66014 28.3653 8.35328 26.0368C18.611 26.0368 29.2069 26.0368 40.1483 26.0368C39.0774 28.3107 38.0951 30.395 37.0856 32.5411C25.7561 32.5411 14.567 32.5411 3.62769 32.5411Z" fill="url(#paint2_linear)"/>
<path fill-rule="evenodd" clip-rule="evenodd" d="M168.498 20.8626C169.703 18.326 170.73 16.1644 171.748 14.0173C176.455 14.0173 181.054 14.0173 185.914 14.0173C185.715 18.6258 186.392 23.187 185.408 27.6801C184.718 30.8504 181.815 32.8996 178.102 32.9532C172.604 33.0325 167.102 33.0521 161.604 32.946C157.104 32.8595 154.12 30.0055 153.992 25.5587C153.836 20.06 153.86 14.552 153.958 9.05224C154.041 4.35097 156.355 1.62272 161.08 1.22503C166.908 0.734603 172.794 0.729458 178.619 1.22606C183.584 1.64849 185.467 4.17067 185.684 9.68176C183.155 9.68176 180.628 9.68176 177.901 9.68176C177.541 8.27437 176.347 8.01679 174.956 8.02709C171.527 8.04873 168.096 8.00958 164.665 8.04358C162.379 8.06522 161.88 8.58449 161.867 10.8872C161.845 14.9858 161.843 19.0833 161.861 23.1829C161.869 25.4887 162.349 25.9904 164.659 26.0152C168.029 26.0522 171.399 26.0409 174.771 26.0152C177.494 25.9935 177.793 25.669 177.814 22.9438C177.82 22.3143 177.816 21.6848 177.816 20.8636C174.716 20.8626 171.788 20.8626 168.498 20.8626Z" fill="white"/>
<path fill-rule="evenodd" clip-rule="evenodd" d="M214.724 1.09624C217.504 1.09624 220.027 1.09624 222.522 1.09624C222.979 1.65981 222.795 2.26769 222.795 2.83024C222.809 9.73533 222.819 16.6394 222.784 23.5445C222.778 24.7664 222.665 26.0059 222.429 27.2031C221.768 30.5804 218.967 32.8718 215.138 32.9429C209.583 33.048 204.024 33.0542 198.471 32.9419C194.115 32.8533 191.035 30.0818 190.945 25.8596C190.772 17.6748 190.896 9.48291 190.896 1.15909C193.463 1.15909 196.018 1.15909 198.579 1.15909C198.908 1.86794 198.766 2.57678 198.766 3.2609C198.779 9.81569 198.768 16.3694 198.77 22.9232C198.773 25.5412 199.21 25.9997 201.848 26.0193C205.274 26.044 208.703 26.0502 212.132 26.0018C214.34 25.9719 214.712 25.5824 214.715 23.3869C214.736 16.6569 214.724 9.928 214.724 3.19806C214.724 2.56443 214.724 1.92975 214.724 1.09624Z" fill="white"/>
<defs>
<linearGradient id="paint0_linear" x1="0.550804" y1="17.1208" x2="35.8293" y2="17.1208" gradientUnits="userSpaceOnUse">
<stop stop-color="#B4B6B7"/>
<stop offset="1" stop-color="#6F7072"/>
</linearGradient>
<linearGradient id="paint1_linear" x1="12.7682" y1="4.53168" x2="46.6138" y2="4.53168" gradientUnits="userSpaceOnUse">
<stop stop-color="#B4B6B7"/>
<stop offset="1" stop-color="#6F7072"/>
</linearGradient>
<linearGradient id="paint2_linear" x1="3.628" y1="29.2891" x2="40.1484" y2="29.2891" gradientUnits="userSpaceOnUse">
<stop stop-color="#B4B6B7"/>
<stop offset="1" stop-color="#6F7072"/>
</linearGradient>
</defs>
</svg>
