<svg width="256" height="87" viewBox="0 0 256 87" fill="none" xmlns="http://www.w3.org/2000/svg">
<path fill-rule="evenodd" clip-rule="evenodd" d="M0.37796 65.9361C5.99182 65.9421 11.6047 65.9341 17.2185 65.9673C18.5056 65.9754 19.8037 66.057 21.0817 66.2253C24.2071 66.6345 25.7169 68.0355 26.107 71.1649C26.498 74.2843 26.5192 77.4379 26.0193 80.5533C25.5194 83.6737 23.8796 85.1301 20.7159 85.3719C19.0468 85.4989 17.3687 85.5735 15.6936 85.5836C10.8478 85.6108 6.0019 85.5947 1.15503 85.5906C0.895 85.5906 0.636984 85.5473 0.37796 85.5251C0.37796 78.9951 0.37796 72.4651 0.37796 65.9361ZM6.31434 80.4737C10.2098 80.4737 14.0437 80.516 17.8777 80.4505C19.4308 80.4243 20.1545 79.6805 20.2512 78.1243C20.347 76.6004 20.3611 75.0604 20.2522 73.5385C20.1202 71.6719 19.3663 71.0309 17.4765 70.9825C14.9821 70.919 12.4916 70.8858 9.99812 70.8515C8.7796 70.8354 7.56209 70.8485 6.31434 70.8485C6.31434 74.117 6.31434 77.3241 6.31434 80.4737Z" fill="#FCFDFF"/>
<path fill-rule="evenodd" clip-rule="evenodd" d="M220.667 85.6985C221.14 85.623 221.621 85.6058 222.09 85.5181C223.821 85.1966 225.383 84.6493 225.998 82.7344C226.492 81.1933 226.386 79.6311 226.334 78.0659C224.291 78.0659 222.314 78.0659 220.356 78.0659C220.302 78.4449 220.257 78.7755 220.209 79.1091C220.042 80.3094 219.699 80.6682 218.475 80.7932C217.641 80.8769 216.8 80.9323 215.963 80.9232C213.759 80.898 211.554 80.8658 209.351 80.761C208.268 80.7096 207.686 80.1603 207.494 79.096C207.107 76.9572 207.124 74.8024 207.482 72.6627C207.707 71.3212 208.361 70.7336 209.724 70.7094C212.43 70.6651 215.14 70.6217 217.841 70.7326C219.313 70.7941 219.921 70.776 219.983 72.8008C219.986 72.8623 220.036 72.9227 220.059 72.9741C222.04 72.9741 223.998 72.9741 226.063 72.9741C225.999 71.9108 226.02 70.8747 225.856 69.8699C225.467 67.5054 224.494 66.4471 222.114 66.0904C220.204 65.8021 218.252 65.661 216.321 65.6832C212.85 65.7255 209.372 65.8303 205.916 66.1115C203.237 66.3302 201.8 67.7241 201.485 70.0211C201.337 71.1106 201.259 72.2182 201.27 73.3168C201.299 76.0744 201.32 78.8339 201.495 81.5824C201.606 83.323 202.606 84.5828 204.314 85.1069C205.22 85.3841 206.181 85.4808 207.112 85.6814L214.207 85.8497L220.667 85.6985Z" fill="#FCFDFF"/>
<path fill-rule="evenodd" clip-rule="evenodd" d="M255.622 85.6693C255.456 85.6441 255.289 85.5967 255.122 85.5967C252.244 85.5927 249.363 85.5937 246.443 85.5937C244.111 83.6062 241.71 81.656 239.428 79.5747C238.263 78.5104 237.093 77.8109 235.477 78.0961C235.157 78.1516 234.82 78.1052 234.444 78.1052C234.444 80.6078 234.444 83.0488 234.444 85.5433C232.418 85.5433 230.44 85.5433 228.43 85.5433C228.43 79.0405 228.43 72.5458 228.43 66.0037C230.402 66.0037 232.376 66.0037 234.414 66.0037C234.414 68.3641 234.414 70.7044 234.414 73.083C235.524 73.083 236.571 73.083 237.679 73.083C240.106 70.8173 242.571 68.5072 245.053 66.2184C245.274 66.0168 245.616 65.8323 245.903 65.8293C248.757 65.7991 251.612 65.8112 254.679 65.8112C250.814 69.1412 247.078 72.3593 243.295 75.6198C244.997 77.0006 246.647 78.34 248.299 79.6785C250.515 81.4745 252.728 83.2716 254.953 85.0565C255.14 85.2087 255.397 85.2752 255.622 85.38C255.622 85.4778 255.622 85.5736 255.622 85.6693Z" fill="#FCFDFF"/>
<path fill-rule="evenodd" clip-rule="evenodd" d="M69.8064 0.827454C69.9535 1.59948 70.1178 2.3685 70.2387 3.14557C70.2791 3.39451 70.3012 3.72005 70.1773 3.91054C69.1412 5.50499 68.0698 7.07526 66.8835 8.83904C66.4532 7.76062 66.0702 6.92509 65.8051 6.05328C65.7305 5.80736 65.9311 5.40824 66.1186 5.16434C67.2333 3.70494 68.3812 2.26972 69.5181 0.827454C69.6139 0.827454 69.7106 0.827454 69.8064 0.827454Z" fill="#F06722"/>
<path fill-rule="evenodd" clip-rule="evenodd" d="M55.2315 85.5635C55.2315 79.0365 55.2315 72.5427 55.2315 66.0016C62.4559 66.0016 69.6693 66.0016 76.9351 66.0016C76.9351 67.4923 76.9351 68.991 76.9351 70.5754C71.7123 70.5754 66.4733 70.5754 61.1901 70.5754C61.1901 71.559 61.1901 72.455 61.1901 73.4014C66.1417 73.4014 71.1005 73.4014 76.1086 73.4014C76.1086 74.8497 76.1086 76.2527 76.1086 77.7353C71.1741 77.7353 66.1992 77.7353 61.185 77.7353C61.185 78.7875 61.185 79.7601 61.185 80.8164C66.4391 80.8164 71.7012 80.8164 77.0611 80.8164C77.0611 82.3342 77.0611 83.7735 77.0611 85.2127C77.1175 85.2248 77.1749 85.2359 77.2324 85.248C80.638 78.8369 84.0456 72.4258 87.4623 65.9926C90.5625 65.9926 93.6537 65.9926 96.8194 65.9926C100.207 72.4611 103.612 78.9649 107.058 85.5433C104.759 85.5433 102.543 85.5433 100.23 85.5433C99.705 84.5284 99.1526 83.453 98.5892 82.3624C94.2645 82.3624 89.9487 82.3624 85.5856 82.3624C85.0454 83.4177 84.4941 84.4911 83.9428 85.5645C74.36 85.5634 64.8174 85.5635 55.2315 85.5635ZM96.4233 77.9238C95.1514 75.4162 93.9198 72.9842 92.6972 70.5743C92.2739 70.5743 91.897 70.5743 91.5089 70.5743C90.2702 73.0225 89.0417 75.4514 87.7909 77.9238C90.6986 77.9238 93.5055 77.9238 96.4233 77.9238Z" fill="#FCFDFF"/>
<path fill-rule="evenodd" clip-rule="evenodd" d="M127.178 85.5664C125.48 85.5664 123.829 85.5664 122.14 85.5664C119.68 80.6883 117.221 75.8163 114.757 70.9311C114.427 70.9311 114.124 70.9311 113.812 70.9311C113.812 75.8042 113.812 80.6601 113.812 85.5554C111.907 85.5554 109.974 85.5554 108.004 85.5554C108.004 79.0465 108.004 72.5326 108.004 65.9865C111.602 65.9865 115.173 65.9865 118.833 65.9865C120.74 70.1399 122.669 74.3377 124.648 78.6484C126.607 74.3841 128.532 70.1944 130.464 65.9855C134.047 65.9855 137.61 65.9855 141.22 65.9855C141.22 72.5145 141.22 79.0263 141.22 85.5664C139.287 85.5664 137.374 85.5664 135.429 85.5664C135.429 80.7105 135.429 75.8556 135.429 70.9503C135.191 70.9503 134.917 70.9503 134.547 70.9503C132.117 75.7699 129.659 80.643 127.178 85.5664Z" fill="#FCFDFF"/>
<path fill-rule="evenodd" clip-rule="evenodd" d="M34.6568 80.6289C34.6568 82.3332 34.6568 83.9337 34.6568 85.5644C32.6773 85.5644 30.7422 85.5644 28.7486 85.5644C28.7486 79.0546 28.7486 72.5447 28.7486 65.9552C29.0107 65.9552 29.2687 65.9552 29.5247 65.9552C35.1405 65.9552 40.7574 65.9492 46.3733 65.9613C47.3792 65.9623 48.387 66.0056 49.3879 66.0873C51.1778 66.2334 52.7411 67.5205 52.9325 69.3064C53.1271 71.1508 53.1331 73.0335 53.0132 74.886C52.9023 76.6639 51.7382 77.6395 49.9906 77.9308C50.0289 77.9731 50.052 78.0185 50.0803 78.0255C52.5163 78.5305 52.864 79.6381 52.9467 81.7295C52.994 82.9954 52.9547 84.2643 52.9547 85.5624C50.9692 85.5624 49.0381 85.5624 47.0687 85.5624C47.0133 84.5515 46.97 83.5507 46.9055 82.5539C46.8248 81.3253 46.3834 80.8446 45.1709 80.6833C44.7456 80.6259 44.3112 80.6299 43.8798 80.6299C40.835 80.6259 37.7913 80.6289 34.6568 80.6289ZM34.7344 70.8475C34.7344 72.5095 34.7344 74.0989 34.7344 75.7145C37.2379 75.7145 39.6851 75.7276 42.1322 75.7105C43.3074 75.7024 44.4815 75.6691 45.6507 75.5855C46.5769 75.519 47.0103 75.0936 47.0456 74.1724C47.0859 73.0527 47.5374 71.7787 46.1496 71.0621C46.0468 71.0077 45.9208 70.9896 45.8039 70.9785C45.4944 70.9462 45.185 70.9079 44.8736 70.9049C41.7552 70.8827 38.6369 70.8656 35.5195 70.8495C35.2615 70.8465 35.0035 70.8475 34.7344 70.8475Z" fill="#FCFDFF"/>
<path fill-rule="evenodd" clip-rule="evenodd" d="M170.091 85.5725C167.977 85.5725 165.941 85.5725 163.825 85.5725C163.825 83.2161 163.825 80.8778 163.825 78.5043C159.296 78.5043 154.847 78.5043 150.352 78.5043C150.352 80.8557 150.352 83.1758 150.352 85.5453C148.234 85.5453 146.164 85.5453 144.05 85.5453C144.05 79.0405 144.05 72.5478 144.05 66.0046C146.13 66.0046 148.201 66.0046 150.339 66.0046C150.339 68.3107 150.339 70.6026 150.339 72.9368C154.835 72.9368 159.265 72.9368 163.771 72.9368C163.771 70.652 163.771 68.358 163.771 66.0097C165.914 66.0097 167.983 66.0097 170.091 66.0097C170.091 72.5205 170.091 79.0133 170.091 85.5725Z" fill="#FCFDFF"/>
<path fill-rule="evenodd" clip-rule="evenodd" d="M190.743 65.9795C194.146 72.4773 197.549 78.974 200.993 85.5514C198.662 85.5514 196.442 85.5514 194.165 85.5514C193.627 84.5062 193.071 83.4298 192.52 82.3574C188.173 82.3574 183.858 82.3574 179.523 82.3574C178.964 83.4379 178.411 84.5103 177.863 85.5736C175.581 85.5736 173.358 85.5736 170.992 85.5736C174.488 78.9932 177.944 72.4843 181.398 65.9795C184.521 65.9795 187.587 65.9795 190.743 65.9795ZM181.719 77.9258C184.63 77.9258 187.443 77.9258 190.354 77.9258C189.084 75.4202 187.849 72.9852 186.629 70.5794C186.201 70.5794 185.823 70.5794 185.438 70.5794C184.201 73.0225 182.977 75.4434 181.719 77.9258Z" fill="#FCFDFF"/>
<path fill-rule="evenodd" clip-rule="evenodd" d="M1.17619 60.8887C1.38382 60.7063 1.57733 60.5037 1.80107 60.3424C4.11616 58.6784 6.43528 57.0215 8.75541 55.3656C9.71692 54.6792 10.7591 54.2881 11.9735 54.3577C14.4136 54.4988 16.8557 54.5915 19.2968 54.7155C19.5255 54.7266 19.7473 54.8223 20.1414 54.9191C19.9035 55.2507 19.7765 55.5349 19.5608 55.7092C17.5531 57.344 15.5213 58.9485 13.5156 60.5843C12.7738 61.189 11.9131 61.306 11.0211 61.2979C8.04788 61.2757 5.07566 61.2314 2.10243 61.1921C1.81015 61.1891 1.51685 61.1558 1.22558 61.1356C1.20945 61.054 1.19333 60.9703 1.17619 60.8887Z" fill="#F06722"/>
<path fill-rule="evenodd" clip-rule="evenodd" d="M20.1071 61.1608C20.354 60.8574 20.5012 60.6155 20.7027 60.4392C22.3426 59.0009 23.9955 57.5778 25.6363 56.1426C26.5172 55.3686 27.5301 55.1297 28.6891 55.2053C30.9831 55.3595 33.284 55.4381 35.579 55.5601C35.9478 55.5792 36.3137 55.6649 36.8348 55.7415C36.6251 56.1093 36.5294 56.3785 36.351 56.5699C35.0398 57.9679 33.7386 59.3819 32.3669 60.7173C32.0091 61.063 31.4033 61.3251 30.9085 61.3311C27.5281 61.3735 24.1446 61.3402 20.7642 61.3231C20.5868 61.319 20.4135 61.2374 20.1071 61.1608Z" fill="#F06722"/>
<path fill-rule="evenodd" clip-rule="evenodd" d="M39.1045 61.2898C39.3021 60.9521 39.3968 60.7334 39.5419 60.5581C40.4692 59.4293 41.4549 58.3448 42.3347 57.1797C43.2781 55.9319 44.5571 55.943 45.9016 56.0166C47.8599 56.1224 49.8212 56.201 51.7805 56.3099C52.3641 56.3441 52.9446 56.4349 53.6491 56.5155C53.5121 56.9327 53.4707 57.218 53.3347 57.4457C52.6745 58.5554 51.9801 59.6459 51.3149 60.7536C51.0135 61.2565 50.5983 61.4853 50.0147 61.4813C46.6807 61.4621 43.3487 61.4601 40.0156 61.44C39.7626 61.441 39.5097 61.3593 39.1045 61.2898Z" fill="#F06722"/>
<path fill-rule="evenodd" clip-rule="evenodd" d="M36.5495 40.838C36.3409 41.1565 36.2341 41.4266 36.0416 41.599C34.2405 43.2166 32.4324 44.8292 30.6011 46.4126C30.3481 46.6303 29.9439 46.8319 29.6325 46.8006C27.1168 46.5487 24.6083 46.2372 21.89 45.9197C22.1631 45.5579 22.275 45.3291 22.4554 45.186C24.5417 43.5351 26.6391 41.8983 28.7335 40.2555C29.5821 39.5903 30.4912 39.4008 31.5616 39.678C32.9484 40.0378 34.3655 40.2777 35.7694 40.579C35.9902 40.6274 36.2028 40.7211 36.5495 40.838Z" fill="#F06722"/>
<path fill-rule="evenodd" clip-rule="evenodd" d="M57.988 61.3221C58.6885 59.8929 59.2963 58.5504 60.0149 57.2674C60.164 57.0013 60.7164 56.84 61.0852 56.84C62.5678 56.834 64.0514 56.9035 65.535 56.961C66.8785 57.0104 68.217 57.0769 69.5574 57.1394C70.5613 57.1867 70.7326 57.3994 70.5512 58.3639C70.4 59.1864 70.2297 60.0078 70.1007 60.8342C70.021 61.3503 69.7419 61.6123 69.2399 61.6103C65.7618 61.5841 62.2836 61.5519 58.8044 61.5095C58.5847 61.5085 58.366 61.4128 57.988 61.3221Z" fill="#F06722"/>
<path fill-rule="evenodd" clip-rule="evenodd" d="M35.3109 47.4809C35.5145 47.2088 35.6304 47.0022 35.7936 46.845C37.2893 45.3936 38.7941 43.9534 40.2938 42.5081C40.8955 41.9275 41.6161 41.7522 42.4144 41.9054C44.0542 42.2198 45.692 42.5484 47.3278 42.889C47.5696 42.9374 47.7944 43.0664 48.127 43.1985C47.9103 43.5552 47.7752 43.8576 47.5696 44.0995C46.4842 45.3745 45.3674 46.6242 44.288 47.9062C43.8546 48.4192 43.3376 48.5886 42.6976 48.5079C40.4692 48.2267 38.2397 47.9506 36.0113 47.6674C35.8098 47.6392 35.6142 47.5626 35.3109 47.4809Z" fill="#F06722"/>
<path fill-rule="evenodd" clip-rule="evenodd" d="M60.1741 45.4249C59.6157 46.465 59.1491 47.3741 58.6472 48.263C57.4317 50.4149 57.9205 50.2052 55.551 49.9512C53.6481 49.7487 51.7453 49.544 49.8424 49.3294C49.5924 49.3012 49.3506 49.2064 49.1087 49.1449C49.1087 48.9988 49.0794 48.9111 49.1117 48.8678C50.2143 47.3932 51.2826 45.8925 52.4598 44.4805C52.7148 44.1751 53.3831 44.032 53.8205 44.0955C55.6417 44.3535 57.4488 44.7123 59.2539 45.051C59.519 45.1024 59.7629 45.2545 60.1741 45.4249Z" fill="#F06722"/>
<path fill-rule="evenodd" clip-rule="evenodd" d="M88.9721 61.5619C88.6314 61.6365 88.4057 61.7293 88.1819 61.7282C84.7582 61.7041 81.3344 61.6567 77.9097 61.6396C77.2243 61.6365 76.9623 61.3604 77.0016 60.6861C77.0419 59.9937 77.0227 59.2983 77.0318 58.6028C77.0439 57.7532 77.2203 57.5375 78.0981 57.5456C79.5324 57.5577 80.9676 57.6252 82.4028 57.6796C83.838 57.733 85.2722 57.8066 86.7064 57.86C87.4311 57.8872 87.9169 58.1604 88.1204 58.9183C88.3523 59.7841 88.6657 60.6276 88.9721 61.5619Z" fill="#F06722"/>
<path fill-rule="evenodd" clip-rule="evenodd" d="M39.4784 31.1544C39.8271 30.9367 40.2061 30.7603 40.5115 30.4982C42.0374 29.188 43.5452 27.8576 45.057 26.5312C46.2362 25.4962 46.4479 25.4649 47.8236 26.1795C48.6602 26.6139 49.4896 27.0624 50.429 27.5593C50.1649 27.9624 50.0157 28.288 49.7809 28.5268C48.4213 29.9127 47.0365 31.2713 45.6748 32.6561C45.1296 33.2094 44.5682 33.3757 43.8083 33.0663C42.6845 32.6047 41.5224 32.2338 40.3795 31.8216C40.1628 31.743 39.9541 31.6422 39.7415 31.5525C39.6538 31.4194 39.5671 31.2864 39.4784 31.1544Z" fill="#F06722"/>
<path fill-rule="evenodd" clip-rule="evenodd" d="M72.4944 47.5041C72.2606 48.8698 72.0368 50.176 71.7838 51.6505C68.8106 51.3501 65.9482 51.0619 63.0103 50.7636C63.0516 50.4239 63.0335 50.2032 63.1091 50.0208C63.5404 48.9565 63.997 47.9052 64.4354 46.845C64.634 46.3622 64.9948 46.0921 65.4967 46.1677C67.6243 46.4851 69.7479 46.8359 71.8705 47.1866C72.0428 47.2148 72.1991 47.3489 72.4944 47.5041Z" fill="#F06722"/>
<path fill-rule="evenodd" clip-rule="evenodd" d="M94.2332 58.3559C94.7482 58.2712 95.0274 58.1765 95.3046 58.1876C98.2677 58.3085 101.233 58.4375 104.195 58.5907C104.513 58.6059 104.91 58.6935 105.122 58.9012C106.037 59.7982 106.898 60.7506 107.831 61.7414C107.493 61.7867 107.152 61.8754 106.813 61.8724C103.653 61.8472 100.492 61.7797 97.3314 61.7867C96.4253 61.7897 95.8398 61.5045 95.4638 60.67C95.1272 59.9232 94.6968 59.2186 94.2332 58.3559Z" fill="#F06722"/>
<path fill-rule="evenodd" clip-rule="evenodd" d="M57.5385 30.9044C57.5587 31.7541 54.529 35.8471 53.6028 36.2633C51.9358 35.7311 50.2133 35.1818 48.3739 34.5963C48.5332 34.2939 48.6088 34.048 48.766 33.8736C50.0188 32.4848 51.2897 31.1141 52.5485 29.7333C53.0726 29.1588 53.6421 29.059 54.3496 29.4158C55.4119 29.949 56.5024 30.4237 57.5385 30.9044Z" fill="#F06722"/>
<path fill-rule="evenodd" clip-rule="evenodd" d="M86.2226 53.0605C83.1012 52.7572 80.1542 52.4699 77.1598 52.1786C77.1598 50.8744 77.1266 49.7759 77.1739 48.6793C77.1981 48.0927 77.7021 48.0474 78.1465 48.1098C79.8529 48.3467 81.5541 48.6077 83.2564 48.8658C85.6169 49.2235 85.123 49.151 85.7509 51.1587C85.9233 51.718 86.0341 52.2976 86.2226 53.0605Z" fill="#F06722"/>
<path fill-rule="evenodd" clip-rule="evenodd" d="M65.6257 34.2768C65.0684 36.0194 64.2187 37.4687 63.4114 39.1317C61.443 38.5693 59.518 38.02 57.5436 37.4556C57.6363 37.1633 57.6534 36.992 57.7371 36.863C58.5575 35.6001 59.388 34.3433 60.2225 33.0885C60.5924 32.5332 61.061 32.384 61.7041 32.6662C62.9448 33.2044 64.2076 33.6983 65.6257 34.2768Z" fill="#F06722"/>
<path fill-rule="evenodd" clip-rule="evenodd" d="M111.749 58.9264C112.019 58.9062 112.289 58.8619 112.558 58.8699C115.502 58.9647 118.446 59.0655 121.388 59.1672C121.508 59.1703 121.641 59.1622 121.743 59.2096C123.453 60.0169 125.163 60.8322 126.871 61.6466C126.845 61.7484 126.82 61.8482 126.793 61.949C126.211 61.949 125.629 61.952 125.047 61.949C122.17 61.9339 119.295 61.9066 116.419 61.9087C115.591 61.9087 114.877 61.697 114.235 61.1618C113.4 60.4644 112.531 59.8052 111.674 59.13C111.701 59.0634 111.725 58.9939 111.749 58.9264Z" fill="#F06722"/>
<path fill-rule="evenodd" clip-rule="evenodd" d="M100.725 54.3103C99.9005 54.2488 99.073 54.1964 98.2496 54.1239C96.2953 53.9515 94.3421 53.762 92.3888 53.5947C91.8405 53.5483 91.5281 53.252 91.3164 52.7763C91.0352 52.1424 90.7167 51.5266 90.4376 50.8926C90.3287 50.6447 90.2823 50.3705 90.1564 49.925C90.9082 49.9916 91.515 50.0218 92.1126 50.1004C93.8663 50.3292 95.6221 50.56 97.3727 50.8271C97.7346 50.8825 98.1659 51.0186 98.4038 51.2696C99.2504 52.1696 100.028 53.1371 100.835 54.0775C100.797 54.1561 100.761 54.2337 100.725 54.3103Z" fill="#F06722"/>
<path fill-rule="evenodd" clip-rule="evenodd" d="M74.0919 37.4224C73.8671 38.9281 73.6675 40.2565 73.4428 41.7683C71.2718 41.2089 69.243 40.6869 67.073 40.1285C67.6576 38.5421 68.1797 37.1291 68.739 35.6112C70.648 36.0043 72.2938 36.7501 74.0919 37.4224Z" fill="#F06722"/>
<path fill-rule="evenodd" clip-rule="evenodd" d="M61.7897 15.2995C60.2406 17.1087 58.745 18.8583 57.1596 20.7118C56.1325 19.841 55.2184 19.0639 54.146 18.1528C55.937 16.1754 57.7179 14.3481 59.6934 12.5561C60.4412 13.5347 61.0449 14.3259 61.7897 15.2995Z" fill="#F06722"/>
<path fill-rule="evenodd" clip-rule="evenodd" d="M145.748 62.0225C142.222 62.0225 138.694 62.0366 135.168 62.0074C134.632 62.0024 134.068 61.8653 133.568 61.6627C132.262 61.1306 130.985 60.5319 129.698 59.9514C129.517 59.8697 129.357 59.7407 129.222 59.4756C130.137 59.4756 131.056 59.4525 131.972 59.4817C133.96 59.5462 135.95 59.5865 137.932 59.7437C139.039 59.8304 140.153 60.0572 141.224 60.3555C142.625 60.7486 143.989 61.2757 145.367 61.7474C145.512 61.7958 145.649 61.8643 145.791 61.9228C145.778 61.957 145.764 61.9903 145.748 62.0225Z" fill="#F06722"/>
<path fill-rule="evenodd" clip-rule="evenodd" d="M62.333 24.5548C61.2898 23.806 60.2709 23.0753 59.1148 22.2468C60.3384 20.3782 61.7071 18.7162 63.2098 16.9938C64.0192 17.8353 64.7237 18.5701 65.5168 19.3955C65.4624 19.6183 65.4634 19.9499 65.3163 20.1857C64.4546 21.5625 63.5586 22.916 62.6686 24.2757C62.6182 24.3502 62.5255 24.3956 62.333 24.5548Z" fill="#F06722"/>
<path fill-rule="evenodd" clip-rule="evenodd" d="M83.9257 44.2628C81.5673 43.7095 79.4497 43.2116 77.3866 42.7248C77.3866 41.2905 77.3866 40.0408 77.3866 38.7003C77.7656 38.7326 78.0538 38.7094 78.3118 38.787C79.613 39.1801 80.9041 39.6054 82.2012 40.0055C82.7777 40.1839 83.1234 40.5165 83.2363 41.1434C83.4127 42.117 83.6616 43.0785 83.9257 44.2628Z" fill="#F06722"/>
<path fill-rule="evenodd" clip-rule="evenodd" d="M103.579 51.6595C104.111 51.712 104.645 51.7503 105.175 51.8158C107.098 52.0486 109.024 52.2733 110.944 52.5445C111.379 52.608 111.832 52.7753 112.206 53.0071C113.324 53.7005 114.409 54.4524 115.508 55.176C115.606 55.2395 115.722 55.2718 115.829 55.3191C115.787 55.3927 115.745 55.4673 115.703 55.5409C115.22 55.5046 114.74 55.4713 114.259 55.431C111.895 55.2395 109.533 55.0531 107.171 54.8444C106.896 54.8213 106.569 54.7467 106.372 54.5743C105.385 53.7146 104.431 52.8136 103.464 51.9276C103.504 51.839 103.541 51.7492 103.579 51.6595Z" fill="#F06722"/>
<path fill-rule="evenodd" clip-rule="evenodd" d="M146.793 60.1913C152.426 59.7085 161.339 60.7345 165.008 62.1909C164.084 62.1909 163.334 62.1929 162.583 62.1909C160.111 62.1838 157.639 62.1596 155.166 62.1727C152.623 62.1858 150.316 61.1608 147.917 60.5531C147.536 60.4573 147.167 60.3132 146.793 60.1913Z" fill="#F06722"/>
<path fill-rule="evenodd" clip-rule="evenodd" d="M67.5155 21.2964C68.3419 22.0221 69.1704 22.7286 69.9717 23.4673C70.0825 23.5712 70.142 23.8513 70.0866 23.9975C69.5615 25.4186 69.0081 26.8286 68.3974 28.4039C67.0922 27.6057 65.9422 26.9042 64.8245 26.2199C64.768 25.5325 66.6759 21.9797 67.5155 21.2964Z" fill="#F06722"/>
<path fill-rule="evenodd" clip-rule="evenodd" d="M86.5451 41.5103C86.9312 41.5355 87.1569 41.5163 87.3645 41.5717C88.8572 41.9779 90.3478 42.3942 91.8355 42.8235C92.0804 42.8951 92.3807 42.9918 92.5239 43.1793C93.307 44.2134 94.0508 45.2787 94.8097 46.336C94.7664 46.3934 94.723 46.4509 94.6807 46.5083C93.8744 46.3551 93.0671 46.208 92.2648 46.0457C91.1199 45.8119 89.982 45.5579 88.836 45.3341C88.2243 45.2152 87.811 44.939 87.6064 44.3031C87.3232 43.4242 86.9543 42.5726 86.5451 41.5103Z" fill="#F06722"/>
<path fill-rule="evenodd" clip-rule="evenodd" d="M130.989 56.6839C128.76 56.5256 126.573 56.3684 124.387 56.2112C124.078 56.189 123.769 56.1497 123.458 56.1446C122.387 56.1285 121.391 55.8967 120.456 55.3273C119.391 54.6772 118.279 54.1037 117.228 53.4062C122.021 53.5867 126.749 53.9676 130.989 56.6839Z" fill="#F06722"/>
<path fill-rule="evenodd" clip-rule="evenodd" d="M74.7379 31.876C73.4014 31.1624 72.0872 30.463 70.7024 29.7242C71.1811 28.2074 71.6195 26.8115 72.0922 25.3107C72.4369 25.473 72.6586 25.5425 72.8391 25.6695C73.5436 26.1654 74.2672 26.6441 74.9193 27.2025C75.1723 27.4202 75.4142 27.8435 75.393 28.1539C75.3144 29.2747 75.1249 30.3864 74.9637 31.5011C74.9505 31.6049 74.8488 31.6986 74.7379 31.876Z" fill="#F06722"/>
<path fill-rule="evenodd" clip-rule="evenodd" d="M96.5997 44.1076C97.2205 44.2467 97.8474 44.3757 98.4653 44.5269C99.326 44.7365 100.171 45.0066 101.038 45.1719C102.058 45.3664 102.928 45.7968 103.701 46.4832C104.481 47.1776 105.303 47.8317 106.047 48.6743C105.484 48.5745 104.923 48.4777 104.361 48.3729C102.835 48.0887 101.302 47.8297 99.7886 47.4961C99.3734 47.4044 98.9319 47.1544 98.6386 46.849C97.8706 46.0447 97.1762 45.1689 96.4525 44.3233C96.5009 44.2507 96.5513 44.1782 96.5997 44.1076Z" fill="#F06722"/>
<path fill-rule="evenodd" clip-rule="evenodd" d="M131.386 54.8243C136.559 54.9896 141.623 55.7485 146.64 57.734C146.144 57.7008 145.811 57.6786 145.479 57.6544C145.121 57.6302 144.763 57.608 144.405 57.5808C141.972 57.3944 139.504 57.4065 137.12 56.959C135.134 56.585 133.247 55.6749 131.315 55.0007C131.339 54.9432 131.362 54.8848 131.386 54.8243Z" fill="#F06722"/>
<path fill-rule="evenodd" clip-rule="evenodd" d="M81.9281 35.2252C81.4997 35.0468 81.153 34.9127 80.8154 34.7585C79.9254 34.3554 79.0455 33.924 78.1465 33.542C77.6607 33.3364 77.436 33.021 77.4612 32.4979C77.5146 31.4134 77.5539 30.3289 77.6013 29.1558C77.8925 29.2465 78.0518 29.2737 78.1878 29.3452C78.4398 29.4793 78.6787 29.6395 78.9236 29.7887C81.6065 31.4275 81.8303 31.8196 81.9281 35.2252Z" fill="#F06722"/>
<path fill-rule="evenodd" clip-rule="evenodd" d="M106.872 46.7341C110.886 47.1474 114.646 48.2399 118.029 50.7122C116.861 50.5247 115.786 50.3554 114.713 50.1811C113.936 50.0561 113.163 49.8726 112.381 49.8112C110.057 49.6267 108.662 47.8438 106.872 46.7341Z" fill="#F06722"/>
<path fill-rule="evenodd" clip-rule="evenodd" d="M69.2702 13.4078C68.7179 12.413 68.2351 11.5472 67.6848 10.5555C68.6775 8.98823 69.6834 7.39579 70.7911 5.64612C71.428 7.30508 72.1577 8.68486 71.0521 10.2239C70.5421 10.9344 70.2216 11.779 69.8033 12.5581C69.6713 12.804 69.509 13.0308 69.2702 13.4078Z" fill="#F06722"/>
<path fill-rule="evenodd" clip-rule="evenodd" d="M89.5375 38.3335C89.2775 38.2498 89.0124 38.1793 88.7564 38.0805C87.8907 37.7439 87.0461 37.3336 86.1581 37.0716C85.125 36.7662 84.5717 36.1383 84.3701 35.0952C84.225 34.3473 83.971 33.6196 83.7664 32.8809C83.835 32.8264 83.9025 32.772 83.971 32.7176C85.2279 33.4191 86.6681 33.925 87.6911 34.8785C88.5941 35.7241 89.0356 37.0666 89.6827 38.1893C89.6343 38.2367 89.5859 38.2841 89.5375 38.3335Z" fill="#F06722"/>
<path fill-rule="evenodd" clip-rule="evenodd" d="M72.3634 17.8675C71.7143 16.9786 71.1458 16.2177 70.6086 15.4366C70.5139 15.2985 70.4746 15.0395 70.5381 14.8903C71.1408 13.4732 71.7707 12.0652 72.5135 10.6673C73.1112 11.9372 74.2824 12.9834 73.5506 14.596C73.1898 15.3952 72.9832 16.266 72.697 17.1006C72.6244 17.3122 72.5166 17.5148 72.3634 17.8675Z" fill="#F06722"/>
<path fill-rule="evenodd" clip-rule="evenodd" d="M117.784 48.9423C122.185 49.4715 126.326 50.6396 130.23 52.4699C127.591 52.8146 120.08 50.7192 117.784 48.9423Z" fill="#F06722"/>
<path fill-rule="evenodd" clip-rule="evenodd" d="M90.6472 36.2502C93.7021 37.119 96.1129 38.7124 97.9291 41.3853C96.9797 41.0577 96.1512 40.6435 95.2784 40.4964C92.9744 40.1093 91.8335 38.4484 90.7893 36.6412C90.7339 36.5475 90.7127 36.4326 90.6472 36.2502Z" fill="#F06722"/>
<path fill-rule="evenodd" clip-rule="evenodd" d="M73.723 19.5497C74.0838 18.1095 74.4375 16.6964 74.8084 15.2199C76.5561 16.8003 77.0348 19.453 76.0612 22.0755C75.2892 21.2409 74.5555 20.4488 73.723 19.5497Z" fill="#F06722"/>
<path fill-rule="evenodd" clip-rule="evenodd" d="M77.7293 19.6313C80.1673 21.2923 80.4163 23.6004 80.4969 26.1906C79.5495 25.3339 78.719 24.5982 77.9097 23.8412C77.8018 23.7405 77.7404 23.5419 77.7373 23.3877C77.7242 22.1752 77.7293 20.9617 77.7293 19.6313Z" fill="#F06722"/>
<path fill-rule="evenodd" clip-rule="evenodd" d="M98.1851 39.4724C101.388 40.325 104.209 41.9134 106.777 44.0713C103.449 43.3466 100.26 42.4486 98.1851 39.4724Z" fill="#F06722"/>
<path fill-rule="evenodd" clip-rule="evenodd" d="M85.5453 30.0386C84.4881 29.2515 83.5689 28.5712 82.6578 27.8788C82.5298 27.782 82.3977 27.6339 82.3594 27.4847C82.0702 26.3357 81.8041 25.1807 81.5017 23.9047C83.8461 25.3349 84.7914 27.4958 85.5453 30.0386Z" fill="#F06722"/>
<path fill-rule="evenodd" clip-rule="evenodd" d="M116.192 46.6262C114.392 46.1737 112.521 45.8986 110.813 45.2182C109.197 44.5742 107.753 43.5069 106.23 42.625C106.261 42.5615 106.293 42.498 106.323 42.4355C107.083 42.6864 107.832 42.9535 108.598 43.1803C111.29 43.9735 113.739 45.3009 116.181 46.6373L116.192 46.6262Z" fill="#F06722"/>
<path fill-rule="evenodd" clip-rule="evenodd" d="M91.13 33.4685C88.5075 32.4515 86.7286 30.6978 86.015 27.9846C88.2605 29.2717 89.7885 31.2602 91.13 33.4685Z" fill="#F06722"/>
<path fill-rule="evenodd" clip-rule="evenodd" d="M97.8787 37.4334C95.2925 36.4396 93.1618 34.8784 91.7397 32.3981C94.1354 33.6599 96.0625 35.4812 97.9643 37.3346C97.9351 37.3669 97.9079 37.3991 97.8787 37.4334Z" fill="#F06722"/>
<path fill-rule="evenodd" clip-rule="evenodd" d="M98.4925 36.5273C100.213 37.5564 101.939 38.5764 103.653 39.6165C104.261 39.9864 104.836 40.4046 105.403 40.836C102.685 40.066 100.426 38.5381 98.3877 36.6362C98.4229 36.6009 98.4572 36.5646 98.4925 36.5273Z" fill="#F06722"/>
<path fill-rule="evenodd" clip-rule="evenodd" d="M98.3877 36.6372C98.3211 36.5878 98.2536 36.5384 98.1891 36.488C98.2062 36.4568 98.2214 36.4255 98.2395 36.3943C98.3232 36.4386 98.4078 36.482 98.4925 36.5273C98.4572 36.5646 98.4229 36.6009 98.3877 36.6372Z" fill="#F06722"/>
<path fill-rule="evenodd" clip-rule="evenodd" d="M116.181 46.6362C116.224 46.6552 116.269 46.6732 116.213 46.6502C116.252 46.6942 116.222 46.6602 116.192 46.6252L116.181 46.6362Z" fill="#F06722"/>
<path fill-rule="evenodd" clip-rule="evenodd" d="M97.9644 37.3337C98.0168 37.378 98.0692 37.4214 98.2798 37.5977C98.0268 37.4939 97.9523 37.4637 97.8787 37.4324C97.9079 37.3992 97.9351 37.3669 97.9644 37.3337Z" fill="#F06722"/>
</svg>
