<svg width="256" height="87" viewBox="0 0 256 87" fill="none" xmlns="http://www.w3.org/2000/svg">
<path fill-rule="evenodd" clip-rule="evenodd" d="M0.37796 65.9361C5.99182 65.9422 11.6047 65.9341 17.2185 65.9674C18.5066 65.9754 19.8037 66.0571 21.0817 66.2254C24.2071 66.6346 25.7159 68.0355 26.107 71.165C26.498 74.2843 26.5202 77.438 26.0203 80.5533C25.5194 83.6737 23.8796 85.1301 20.7169 85.372C19.0468 85.499 17.3697 85.5735 15.6946 85.5836C10.8488 85.6108 6.0019 85.5947 1.15604 85.5907C0.897015 85.5907 0.637992 85.5473 0.378968 85.5252C0.37796 78.9951 0.37796 72.4651 0.37796 65.9361ZM6.31434 80.4737C10.2098 80.4737 14.0437 80.516 17.8777 80.4505C19.4308 80.4243 20.1545 79.6805 20.2512 78.1244C20.347 76.6004 20.3611 75.0604 20.2522 73.5385C20.1192 71.6719 19.3663 71.0309 17.4755 70.9825C14.9821 70.919 12.4906 70.8858 9.99711 70.8515C8.7796 70.8354 7.56108 70.8485 6.31333 70.8485C6.31434 74.117 6.31434 77.3241 6.31434 80.4737Z" fill="#FCFDFF"/>
<path fill-rule="evenodd" clip-rule="evenodd" d="M220.667 85.6985C221.14 85.6229 221.621 85.6058 222.09 85.5181C223.821 85.1966 225.383 84.6493 225.998 82.7344C226.492 81.1933 226.386 79.6311 226.334 78.0659C224.291 78.0659 222.314 78.0659 220.356 78.0659C220.302 78.4448 220.257 78.7754 220.209 79.109C220.042 80.3094 219.699 80.6682 218.475 80.7932C217.641 80.8768 216.8 80.9323 215.963 80.9232C213.759 80.898 211.554 80.8658 209.351 80.7609C208.268 80.7095 207.686 80.1602 207.494 79.0959C207.107 76.9572 207.124 74.8024 207.482 72.6627C207.707 71.3212 208.361 70.7336 209.724 70.7094C212.43 70.6651 215.14 70.6217 217.841 70.7326C219.313 70.7941 219.921 70.7759 219.983 72.8007C219.986 72.8622 220.036 72.9227 220.059 72.9741C222.04 72.9741 223.998 72.9741 226.063 72.9741C225.999 71.9108 226.02 70.8747 225.856 69.8699C225.467 67.5054 224.494 66.4471 222.114 66.0903C220.204 65.8021 218.252 65.661 216.321 65.6831C212.85 65.7255 209.372 65.8303 205.916 66.1115C203.237 66.3302 201.8 67.7241 201.485 70.021C201.337 71.1105 201.259 72.2182 201.27 73.3168C201.299 76.0743 201.32 78.8339 201.495 81.5824C201.606 83.323 202.606 84.5828 204.314 85.1069C205.22 85.3841 206.181 85.4808 207.112 85.6814L214.207 85.8497L220.667 85.6985Z" fill="#FCFDFF"/>
<path fill-rule="evenodd" clip-rule="evenodd" d="M255.622 85.6693C255.456 85.6441 255.289 85.5967 255.122 85.5967C252.244 85.5927 249.363 85.5937 246.443 85.5937C244.111 83.6062 241.71 81.6559 239.428 79.5747C238.263 78.5104 237.093 77.8109 235.477 78.0961C235.157 78.1515 234.82 78.1052 234.444 78.1052C234.444 80.6077 234.444 83.0488 234.444 85.5433C232.418 85.5433 230.44 85.5433 228.43 85.5433C228.43 79.0405 228.43 72.5458 228.43 66.0036C230.402 66.0036 232.376 66.0036 234.414 66.0036C234.414 68.3641 234.414 70.7044 234.414 73.0829C235.524 73.0829 236.571 73.0829 237.679 73.0829C240.106 70.8172 242.571 68.5072 245.053 66.2183C245.274 66.0167 245.616 65.8323 245.903 65.8293C248.757 65.799 251.612 65.8111 254.679 65.8111C250.814 69.1411 247.078 72.3593 243.295 75.6198C244.997 77.0006 246.647 78.34 248.299 79.6785C250.515 81.4745 252.728 83.2715 254.953 85.0565C255.14 85.2087 255.397 85.2752 255.622 85.38C255.622 85.4778 255.622 85.5735 255.622 85.6693Z" fill="#FCFDFF"/>
<path fill-rule="evenodd" clip-rule="evenodd" d="M69.8064 0.827454C69.9535 1.59948 70.1178 2.3685 70.2387 3.14557C70.2791 3.39451 70.3012 3.72005 70.1773 3.91054C69.1412 5.50499 68.0698 7.07526 66.8835 8.83904C66.4542 7.76062 66.0712 6.92509 65.8051 6.05328C65.7305 5.80736 65.9311 5.40824 66.1186 5.16434C67.2333 3.70494 68.3812 2.26972 69.5191 0.827454C69.6139 0.827454 69.7106 0.827454 69.8064 0.827454Z" fill="#F06722"/>
<path fill-rule="evenodd" clip-rule="evenodd" d="M55.2315 85.5635C55.2315 79.0365 55.2315 72.5427 55.2315 66.0016C62.4559 66.0016 69.6703 66.0016 76.9351 66.0016C76.9351 67.4923 76.9351 68.991 76.9351 70.5754C71.7123 70.5754 66.4733 70.5754 61.1901 70.5754C61.1901 71.559 61.1901 72.455 61.1901 73.4014C66.1417 73.4014 71.1005 73.4014 76.1086 73.4014C76.1086 74.8497 76.1086 76.2527 76.1086 77.7353C71.1741 77.7353 66.1992 77.7353 61.185 77.7353C61.185 78.7875 61.185 79.7601 61.185 80.8164C66.4391 80.8164 71.7012 80.8164 77.06 80.8164C77.06 82.3342 77.06 83.7735 77.06 85.2127C77.1165 85.2248 77.1749 85.2359 77.2314 85.248C80.637 78.8369 84.0446 72.4258 87.4623 65.9926C90.5625 65.9926 93.6527 65.9926 96.8194 65.9926C100.207 72.4611 103.612 78.9649 107.058 85.5433C104.76 85.5433 102.543 85.5433 100.231 85.5433C99.706 84.5284 99.1526 83.453 98.5902 82.3624C94.2655 82.3624 89.9497 82.3624 85.5867 82.3624C85.0454 83.4177 84.4951 84.4911 83.9448 85.5645C74.3599 85.5634 64.8164 85.5635 55.2315 85.5635ZM96.4233 77.9238C95.1514 75.4162 93.9198 72.9842 92.6972 70.5743C92.2749 70.5743 91.897 70.5743 91.5089 70.5743C90.2702 73.0225 89.0417 75.4514 87.7909 77.9238C90.6986 77.9238 93.5065 77.9238 96.4233 77.9238Z" fill="#FCFDFF"/>
<path fill-rule="evenodd" clip-rule="evenodd" d="M127.177 85.5665C125.48 85.5665 123.829 85.5665 122.14 85.5665C119.68 80.6884 117.221 75.8163 114.757 70.9311C114.426 70.9311 114.124 70.9311 113.812 70.9311C113.812 75.8042 113.812 80.6601 113.812 85.5554C111.907 85.5554 109.974 85.5554 108.004 85.5554C108.004 79.0465 108.004 72.5326 108.004 65.9865C111.603 65.9865 115.173 65.9865 118.834 65.9865C120.741 70.14 122.67 74.3378 124.648 78.6484C126.608 74.3841 128.532 70.1944 130.465 65.9855C134.047 65.9855 137.611 65.9855 141.221 65.9855C141.221 72.5145 141.221 79.0264 141.221 85.5665C139.288 85.5665 137.374 85.5665 135.429 85.5665C135.429 80.7105 135.429 75.8556 135.429 70.9503C135.191 70.9503 134.917 70.9503 134.548 70.9503C132.117 75.7699 129.659 80.643 127.177 85.5665Z" fill="#FCFDFF"/>
<path fill-rule="evenodd" clip-rule="evenodd" d="M34.6568 80.6289C34.6568 82.3332 34.6568 83.9337 34.6568 85.5645C32.6783 85.5645 30.7432 85.5645 28.7476 85.5645C28.7476 79.0546 28.7476 72.5448 28.7476 65.9553C29.0097 65.9553 29.2677 65.9553 29.5237 65.9553C35.1395 65.9553 40.7564 65.9492 46.3723 65.9613C47.3782 65.9623 48.386 66.0057 49.3868 66.0873C51.1778 66.2334 52.7411 67.5205 52.9315 69.3065C53.1261 71.1509 53.1321 73.0336 53.0132 74.886C52.9013 76.6639 51.7382 77.6396 49.9896 77.9308C50.0279 77.9732 50.051 78.0185 50.0793 78.0256C52.5153 78.5305 52.863 79.6382 52.9446 81.7295C52.993 82.9954 52.9527 84.2643 52.9527 85.5625C50.9682 85.5625 49.0371 85.5625 47.0667 85.5625C47.0123 84.5516 46.9679 83.5507 46.9034 82.5539C46.8228 81.3254 46.3824 80.8446 45.1699 80.6833C44.7446 80.6259 44.3102 80.6299 43.8778 80.6299C40.835 80.6259 37.7923 80.6289 34.6568 80.6289ZM34.7334 70.8475C34.7334 72.5095 34.7334 74.0989 34.7334 75.7145C37.2379 75.7145 39.6851 75.7276 42.1312 75.7105C43.3063 75.7024 44.4805 75.6692 45.6497 75.5855C46.5759 75.519 47.0083 75.0937 47.0435 74.1725C47.0849 73.0527 47.5364 71.7788 46.1475 71.0622C46.0447 71.0078 45.9198 70.9896 45.8028 70.9785C45.4934 70.9463 45.183 70.908 44.8726 70.9049C41.7542 70.8828 38.6359 70.8656 35.5175 70.8495C35.2615 70.8465 35.0045 70.8475 34.7334 70.8475Z" fill="#FCFDFF"/>
<path fill-rule="evenodd" clip-rule="evenodd" d="M170.091 85.5725C167.977 85.5725 165.941 85.5725 163.825 85.5725C163.825 83.2161 163.825 80.8778 163.825 78.5043C159.296 78.5043 154.847 78.5043 150.352 78.5043C150.352 80.8557 150.352 83.1758 150.352 85.5453C148.235 85.5453 146.163 85.5453 144.05 85.5453C144.05 79.0405 144.05 72.5478 144.05 66.0046C146.13 66.0046 148.201 66.0046 150.339 66.0046C150.339 68.3107 150.339 70.6026 150.339 72.9368C154.835 72.9368 159.265 72.9368 163.771 72.9368C163.771 70.652 163.771 68.358 163.771 66.0097C165.914 66.0097 167.983 66.0097 170.091 66.0097C170.091 72.5205 170.091 79.0133 170.091 85.5725Z" fill="#FCFDFF"/>
<path fill-rule="evenodd" clip-rule="evenodd" d="M190.743 65.9795C194.146 72.4772 197.549 78.974 200.993 85.5514C198.662 85.5514 196.442 85.5514 194.165 85.5514C193.627 84.5062 193.071 83.4298 192.52 82.3574C188.173 82.3574 183.858 82.3574 179.523 82.3574C178.964 83.4379 178.411 84.5102 177.863 85.5735C175.581 85.5735 173.358 85.5735 170.992 85.5735C174.488 78.9931 177.944 72.4843 181.398 65.9795C184.521 65.9795 187.587 65.9795 190.743 65.9795ZM181.719 77.9258C184.63 77.9258 187.443 77.9258 190.354 77.9258C189.084 75.4202 187.849 72.9852 186.629 70.5794C186.201 70.5794 185.823 70.5794 185.438 70.5794C184.201 73.0225 182.977 75.4434 181.719 77.9258Z" fill="#FCFDFF"/>
<path fill-rule="evenodd" clip-rule="evenodd" d="M1.17619 60.8887C1.38382 60.7062 1.57733 60.5037 1.80107 60.3424C4.11616 58.6784 6.43528 57.0215 8.75541 55.3655C9.71793 54.6792 10.7601 54.2881 11.9746 54.3576C14.4136 54.4988 16.8557 54.5915 19.2968 54.7154C19.5245 54.7265 19.7483 54.8223 20.1404 54.919C19.9025 55.2506 19.7755 55.5348 19.5598 55.7092C17.5521 57.344 15.5203 58.9485 13.5136 60.5843C12.7718 61.189 11.9121 61.3059 11.0191 61.2979C8.04586 61.2757 5.07364 61.2314 2.10142 61.192C1.80914 61.189 1.51484 61.1558 1.22457 61.1356C1.20945 61.054 1.19333 60.9703 1.17619 60.8887Z" fill="#F06722"/>
<path fill-rule="evenodd" clip-rule="evenodd" d="M20.1071 61.1608C20.354 60.8574 20.5012 60.6155 20.7027 60.4392C22.3415 59.0009 23.9945 57.5778 25.6353 56.1426C26.5172 55.3686 27.5301 55.1297 28.6881 55.2053C30.9831 55.3595 33.283 55.4381 35.578 55.5601C35.9468 55.5792 36.3117 55.6649 36.8348 55.7415C36.6251 56.1093 36.5294 56.3785 36.351 56.5699C35.0387 57.9679 33.7386 59.3819 32.3659 60.7173C32.0091 61.063 31.4023 61.3251 30.9075 61.3311C27.5271 61.3735 24.1446 61.3402 20.7632 61.3231C20.5868 61.319 20.4125 61.2374 20.1071 61.1608Z" fill="#F06722"/>
<path fill-rule="evenodd" clip-rule="evenodd" d="M39.1035 61.2898C39.3021 60.9522 39.3968 60.7335 39.5409 60.5581C40.4682 59.4293 41.4539 58.3448 42.3337 57.1797C43.2771 55.932 44.5571 55.943 45.9006 56.0166C47.8599 56.1224 49.8202 56.201 51.7795 56.3099C52.3631 56.3442 52.9436 56.4349 53.6481 56.5155C53.5111 56.9328 53.4697 57.218 53.3337 57.4458C52.6735 58.5554 51.9791 59.646 51.3149 60.7536C51.0135 61.2566 50.5983 61.4853 50.0137 61.4813C46.6807 61.4622 43.3477 61.4601 40.0146 61.44C39.7626 61.441 39.5097 61.3594 39.1035 61.2898Z" fill="#F06722"/>
<path fill-rule="evenodd" clip-rule="evenodd" d="M36.5495 40.838C36.3399 41.1565 36.2341 41.4266 36.0406 41.599C34.2395 43.2166 32.4314 44.8292 30.6011 46.4126C30.3481 46.6303 29.9429 46.8319 29.6325 46.8006C27.1168 46.5487 24.6083 46.2372 21.89 45.9197C22.1631 45.5579 22.275 45.3291 22.4554 45.186C24.5417 43.5351 26.6401 41.8983 28.7335 40.2555C29.5811 39.5903 30.4912 39.4008 31.5606 39.678C32.9474 40.0378 34.3655 40.2777 35.7684 40.579C35.9892 40.6274 36.2018 40.7211 36.5495 40.838Z" fill="#F06722"/>
<path fill-rule="evenodd" clip-rule="evenodd" d="M57.988 61.3221C58.6885 59.8929 59.2963 58.5504 60.0149 57.2674C60.164 57.0013 60.7174 56.84 61.0852 56.84C62.5678 56.834 64.0524 56.9035 65.535 56.961C66.8785 57.0104 68.2169 57.0769 69.5574 57.1394C70.5623 57.1867 70.7326 57.3994 70.5522 58.3639C70.4 59.1864 70.2297 60.0078 70.1007 60.8342C70.021 61.3503 69.7419 61.6123 69.2399 61.6103C65.7618 61.5841 62.2836 61.5519 58.8054 61.5095C58.5847 61.5085 58.367 61.4128 57.988 61.3221Z" fill="#F06722"/>
<path fill-rule="evenodd" clip-rule="evenodd" d="M35.3109 47.4809C35.5145 47.2088 35.6304 47.0022 35.7937 46.845C37.2903 45.3936 38.7941 43.9534 40.2928 42.5081C40.8945 41.9275 41.6151 41.7522 42.4134 41.9054C44.0532 42.2198 45.691 42.5484 47.3268 42.889C47.5697 42.9374 47.7934 43.0664 48.126 43.1985C47.9093 43.5552 47.7743 43.8576 47.5697 44.0995C46.4832 45.3745 45.3675 46.6242 44.287 47.9062C43.8546 48.4192 43.3366 48.5886 42.6976 48.5079C40.4692 48.2267 38.2398 47.9506 36.0114 47.6674C35.8098 47.6392 35.6143 47.5626 35.3109 47.4809Z" fill="#F06722"/>
<path fill-rule="evenodd" clip-rule="evenodd" d="M60.1741 45.4249C59.6158 46.465 59.1491 47.3741 58.6472 48.263C57.4317 50.4149 57.9215 50.2052 55.551 49.9512C53.6481 49.7487 51.7443 49.544 49.8424 49.3294C49.5914 49.3012 49.3495 49.2064 49.1087 49.1449C49.1087 48.9988 49.0794 48.9111 49.1117 48.8678C50.2143 47.3932 51.2837 45.8925 52.4609 44.4805C52.7148 44.1751 53.3841 44.032 53.8215 44.0955C55.6417 44.3535 57.4488 44.7123 59.2539 45.051C59.519 45.1024 59.7629 45.2545 60.1741 45.4249Z" fill="#F06722"/>
<path fill-rule="evenodd" clip-rule="evenodd" d="M88.9721 61.5619C88.6314 61.6365 88.4057 61.7293 88.1819 61.7282C84.7582 61.7041 81.3344 61.6567 77.9097 61.6396C77.2233 61.6365 76.9613 61.3604 77.0006 60.6861C77.0419 59.9937 77.0217 59.2983 77.0308 58.6028C77.0429 57.7532 77.2193 57.5375 78.0971 57.5456C79.5313 57.5577 80.9666 57.6252 82.4018 57.6796C83.837 57.733 85.2702 57.8066 86.7054 57.86C87.4301 57.8872 87.9158 58.1604 88.1194 58.9183C88.3523 59.7841 88.6657 60.6276 88.9721 61.5619Z" fill="#F06722"/>
<path fill-rule="evenodd" clip-rule="evenodd" d="M39.4784 31.1544C39.8261 30.9367 40.2051 30.7603 40.5115 30.4982C42.0374 29.188 43.5452 27.8576 45.057 26.5312C46.2362 25.4962 46.4479 25.4649 47.8236 26.1795C48.6602 26.6139 49.4906 27.0624 50.429 27.5593C50.1639 27.9624 50.0157 28.288 49.7799 28.5268C48.4213 29.9127 47.0355 31.2713 45.6738 32.6561C45.1276 33.2094 44.5672 33.3757 43.8072 33.0663C42.6835 32.6047 41.5214 32.2338 40.3785 31.8216C40.1618 31.743 39.9531 31.6422 39.7405 31.5525C39.6538 31.4194 39.5671 31.2864 39.4784 31.1544Z" fill="#F06722"/>
<path fill-rule="evenodd" clip-rule="evenodd" d="M72.4944 47.5041C72.2595 48.8698 72.0368 50.176 71.7838 51.6505C68.8096 51.3501 65.9472 51.0619 63.0093 50.7636C63.0516 50.4239 63.0324 50.2032 63.108 50.0208C63.5394 48.9565 63.996 47.9052 64.4344 46.845C64.6329 46.3622 64.9938 46.0921 65.4947 46.1677C67.6233 46.4851 69.7459 46.8359 71.8685 47.1866C72.0428 47.2148 72.1991 47.3489 72.4944 47.5041Z" fill="#F06722"/>
<path fill-rule="evenodd" clip-rule="evenodd" d="M94.2332 58.3559C94.7482 58.2712 95.0274 58.1765 95.3046 58.1876C98.2677 58.3085 101.233 58.4375 104.195 58.5907C104.514 58.6058 104.911 58.6935 105.122 58.9011C106.037 59.7981 106.898 60.7506 107.831 61.7413C107.493 61.7867 107.153 61.8754 106.814 61.8724C103.654 61.8472 100.493 61.7796 97.3314 61.7867C96.4253 61.7897 95.8408 61.5045 95.4648 60.67C95.1272 59.9231 94.6968 59.2186 94.2332 58.3559Z" fill="#F06722"/>
<path fill-rule="evenodd" clip-rule="evenodd" d="M57.5385 30.9044C57.5587 31.7541 54.529 35.8471 53.6028 36.2633C51.9358 35.7311 50.2133 35.1818 48.3739 34.5963C48.5332 34.2939 48.6088 34.048 48.766 33.8736C50.0198 32.4848 51.2897 31.1141 52.5485 29.7333C53.0726 29.1588 53.6421 29.059 54.3496 29.4158C55.4109 29.949 56.5014 30.4237 57.5385 30.9044Z" fill="#F06722"/>
<path fill-rule="evenodd" clip-rule="evenodd" d="M86.2216 53.0605C83.1012 52.7572 80.1532 52.4699 77.1598 52.1786C77.1598 50.8744 77.1266 49.7759 77.1729 48.6793C77.1981 48.0927 77.7021 48.0474 78.1455 48.1098C79.8519 48.3467 81.5521 48.6077 83.2554 48.8658C85.6159 49.2235 85.123 49.151 85.7499 51.1587C85.9233 51.718 86.0341 52.2976 86.2216 53.0605Z" fill="#F06722"/>
<path fill-rule="evenodd" clip-rule="evenodd" d="M65.6257 34.2768C65.0694 36.0194 64.2187 37.4687 63.4114 39.1317C61.443 38.5693 59.519 38.02 57.5436 37.4556C57.6363 37.1633 57.6544 36.992 57.7381 36.863C58.5585 35.6001 59.389 34.3433 60.2235 33.0885C60.5934 32.5332 61.0621 32.384 61.7041 32.6662C62.9458 33.2044 64.2076 33.6983 65.6257 34.2768Z" fill="#F06722"/>
<path fill-rule="evenodd" clip-rule="evenodd" d="M111.749 58.9264C112.019 58.9062 112.289 58.8619 112.558 58.8699C115.501 58.9647 118.446 59.0655 121.388 59.1672C121.508 59.1703 121.641 59.1622 121.743 59.2096C123.453 60.0169 125.163 60.8322 126.87 61.6466C126.844 61.7484 126.819 61.8482 126.792 61.949C126.21 61.949 125.628 61.952 125.046 61.949C122.169 61.9339 119.293 61.9066 116.418 61.9087C115.59 61.9087 114.876 61.697 114.234 61.1618C113.398 60.4644 112.53 59.8052 111.673 59.13C111.701 59.0634 111.725 58.9939 111.749 58.9264Z" fill="#F06722"/>
<path fill-rule="evenodd" clip-rule="evenodd" d="M100.725 54.3103C99.9005 54.2488 99.073 54.1964 98.2486 54.1238C96.2953 53.9515 94.3421 53.762 92.3878 53.5947C91.8395 53.5483 91.5271 53.252 91.3154 52.7763C91.0342 52.1423 90.7157 51.5265 90.4365 50.8926C90.3277 50.6446 90.2813 50.3705 90.1543 49.925C90.9072 49.9915 91.513 50.0218 92.1106 50.1004C93.8653 50.3292 95.62 50.56 97.3707 50.8271C97.7336 50.8825 98.1639 51.0186 98.4018 51.2695C99.2484 52.1696 100.027 53.1371 100.833 54.0775C100.797 54.1561 100.761 54.2337 100.725 54.3103Z" fill="#F06722"/>
<path fill-rule="evenodd" clip-rule="evenodd" d="M74.0919 37.4224C73.8671 38.9281 73.6675 40.2565 73.4428 41.7683C71.2718 41.2089 69.243 40.6869 67.073 40.1285C67.6586 38.5421 68.1797 37.1291 68.7401 35.6112C70.6469 36.0043 72.2938 36.7501 74.0919 37.4224Z" fill="#F06722"/>
<path fill-rule="evenodd" clip-rule="evenodd" d="M61.7897 15.2995C60.2406 17.1087 58.745 18.8583 57.1586 20.7118C56.1325 19.841 55.2184 19.0639 54.146 18.1528C55.937 16.1754 57.7169 14.3481 59.6934 12.5561C60.4412 13.5347 61.0459 14.3259 61.7897 15.2995Z" fill="#F06722"/>
<path fill-rule="evenodd" clip-rule="evenodd" d="M145.748 62.0225C142.222 62.0225 138.694 62.0366 135.168 62.0074C134.632 62.0024 134.068 61.8653 133.569 61.6627C132.263 61.1306 130.985 60.5319 129.699 59.9514C129.518 59.8697 129.358 59.7407 129.223 59.4756C130.138 59.4756 131.057 59.4525 131.973 59.4817C133.96 59.5462 135.95 59.5865 137.933 59.7437C139.04 59.8304 140.154 60.0572 141.224 60.3555C142.625 60.7486 143.99 61.2757 145.368 61.7474C145.513 61.7958 145.65 61.8643 145.792 61.9228C145.777 61.957 145.764 61.9903 145.748 62.0225Z" fill="#F06722"/>
<path fill-rule="evenodd" clip-rule="evenodd" d="M62.332 24.5548C61.2898 23.806 60.2709 23.0753 59.1138 22.2468C60.3374 20.3782 61.7061 18.7162 63.2088 16.9937C64.0181 17.8353 64.7226 18.5701 65.5158 19.3955C65.4614 19.6183 65.4634 19.9498 65.3143 20.1857C64.4525 21.5624 63.5565 22.916 62.6676 24.2756C62.6182 24.3502 62.5265 24.3956 62.332 24.5548Z" fill="#F06722"/>
<path fill-rule="evenodd" clip-rule="evenodd" d="M83.9257 44.2628C81.5662 43.7095 79.4487 43.2116 77.3856 42.7248C77.3856 41.2906 77.3856 40.0408 77.3856 38.7003C77.7646 38.7326 78.0538 38.7094 78.3118 38.787C79.612 39.1801 80.9031 39.6054 82.2012 40.0055C82.7787 40.1839 83.1234 40.5165 83.2363 41.1434C83.4127 42.117 83.6606 43.0786 83.9257 44.2628Z" fill="#F06722"/>
<path fill-rule="evenodd" clip-rule="evenodd" d="M103.578 51.6596C104.111 51.712 104.645 51.7503 105.174 51.8158C107.097 52.0486 109.023 52.2734 110.943 52.5445C111.377 52.608 111.83 52.7753 112.205 53.0071C113.323 53.7005 114.407 54.4524 115.507 55.176C115.604 55.2395 115.72 55.2718 115.827 55.3192C115.785 55.3927 115.743 55.4673 115.701 55.5409C115.218 55.5046 114.737 55.4714 114.257 55.431C111.893 55.2395 109.531 55.0531 107.169 54.8445C106.894 54.8213 106.568 54.7467 106.37 54.5743C105.383 53.7146 104.429 52.8136 103.463 51.9277C103.504 51.839 103.541 51.7493 103.578 51.6596Z" fill="#F06722"/>
<path fill-rule="evenodd" clip-rule="evenodd" d="M146.793 60.1912C152.426 59.7085 161.339 60.7345 165.008 62.1909C164.084 62.1909 163.334 62.1929 162.583 62.1909C160.111 62.1838 157.639 62.1596 155.166 62.1727C152.623 62.1858 150.316 61.1608 147.917 60.5531C147.535 60.4573 147.167 60.3132 146.793 60.1912Z" fill="#F06722"/>
<path fill-rule="evenodd" clip-rule="evenodd" d="M67.5155 21.2964C68.3419 22.022 69.1704 22.7285 69.9717 23.4673C70.0825 23.5711 70.141 23.8513 70.0866 23.9975C69.5615 25.4186 69.0081 26.8286 68.3984 28.4039C67.0932 27.6056 65.9432 26.9042 64.8244 26.2198C64.767 25.5325 66.6759 21.9797 67.5155 21.2964Z" fill="#F06722"/>
<path fill-rule="evenodd" clip-rule="evenodd" d="M86.5462 41.5103C86.9322 41.5355 87.1579 41.5163 87.3655 41.5718C88.8582 41.9779 90.3489 42.3942 91.8365 42.8235C92.0814 42.8951 92.3817 42.9919 92.5239 43.1793C93.308 44.2134 94.0508 45.2787 94.8097 46.336C94.7674 46.3934 94.724 46.4509 94.6817 46.5083C93.8764 46.3551 93.0681 46.208 92.2658 46.0457C91.1209 45.8119 89.983 45.5579 88.836 45.3342C88.2243 45.2152 87.812 44.9391 87.6074 44.3031C87.3222 43.4242 86.9543 42.5726 86.5462 41.5103Z" fill="#F06722"/>
<path fill-rule="evenodd" clip-rule="evenodd" d="M130.989 56.6838C128.76 56.5256 126.574 56.3684 124.387 56.2111C124.078 56.189 123.769 56.1496 123.458 56.1446C122.387 56.1285 121.391 55.8967 120.457 55.3272C119.392 54.6772 118.28 54.1037 117.229 53.4062C122.022 53.5866 126.749 53.9676 130.989 56.6838Z" fill="#F06722"/>
<path fill-rule="evenodd" clip-rule="evenodd" d="M74.7379 31.876C73.4025 31.1624 72.0882 30.463 70.7034 29.7242C71.1821 28.2074 71.6205 26.8115 72.0922 25.3107C72.4369 25.473 72.6586 25.5425 72.839 25.6695C73.5436 26.1654 74.2672 26.6441 74.9193 27.2025C75.1723 27.4202 75.4152 27.8435 75.393 28.1539C75.3144 29.2747 75.1249 30.3864 74.9647 31.5011C74.9505 31.6049 74.8488 31.6986 74.7379 31.876Z" fill="#F06722"/>
<path fill-rule="evenodd" clip-rule="evenodd" d="M96.5997 44.1076C97.2205 44.2467 97.8474 44.3757 98.4653 44.5269C99.325 44.7365 100.171 45.0066 101.037 45.1719C102.057 45.3664 102.927 45.7968 103.7 46.4831C104.481 47.1776 105.301 47.8317 106.045 48.6743C105.483 48.5745 104.921 48.4777 104.36 48.3729C102.834 48.0887 101.301 47.8297 99.7876 47.496C99.3724 47.4043 98.9309 47.1544 98.6376 46.849C97.8696 46.0447 97.1752 45.1689 96.4515 44.3233C96.5009 44.2507 96.5503 44.1781 96.5997 44.1076Z" fill="#F06722"/>
<path fill-rule="evenodd" clip-rule="evenodd" d="M131.386 54.8243C136.559 54.9896 141.623 55.7485 146.639 57.734C146.143 57.7008 145.81 57.6786 145.478 57.6544C145.119 57.6302 144.762 57.6081 144.404 57.5808C141.971 57.3944 139.503 57.4065 137.12 56.959C135.133 56.5851 133.247 55.675 131.315 55.0007C131.339 54.9432 131.362 54.8848 131.386 54.8243Z" fill="#F06722"/>
<path fill-rule="evenodd" clip-rule="evenodd" d="M81.9281 35.2252C81.4997 35.0468 81.153 34.9127 80.8154 34.7585C79.9254 34.3554 79.0456 33.924 78.1455 33.542C77.6597 33.3364 77.435 33.021 77.4612 32.4979C77.5146 31.4134 77.5539 30.3289 77.6013 29.1558C77.8915 29.2465 78.0518 29.2737 78.1868 29.3452C78.4388 29.4793 78.6787 29.6395 78.9236 29.7887C81.6066 31.4275 81.8313 31.8196 81.9281 35.2252Z" fill="#F06722"/>
<path fill-rule="evenodd" clip-rule="evenodd" d="M106.873 46.7341C110.887 47.1473 114.647 48.2399 118.029 50.7122C116.861 50.5247 115.787 50.3554 114.713 50.181C113.936 50.0561 113.163 49.8726 112.381 49.8111C110.057 49.6267 108.662 47.8438 106.873 46.7341Z" fill="#F06722"/>
<path fill-rule="evenodd" clip-rule="evenodd" d="M69.2692 13.4077C68.7179 12.413 68.2351 11.5472 67.6838 10.5554C68.6765 8.9882 69.6834 7.39576 70.79 5.64609C71.427 7.30505 72.1567 8.68483 71.0501 10.2239C70.5411 10.9344 70.2196 11.779 69.8013 12.5581C69.6713 12.804 69.509 13.0308 69.2692 13.4077Z" fill="#F06722"/>
<path fill-rule="evenodd" clip-rule="evenodd" d="M89.5375 38.3335C89.2775 38.2498 89.0114 38.1793 88.7554 38.0805C87.8896 37.7439 87.045 37.3336 86.1571 37.0716C85.123 36.7662 84.5697 36.1383 84.3681 35.0952C84.223 34.3473 83.97 33.6196 83.7644 32.8809C83.833 32.8264 83.9015 32.772 83.969 32.7176C85.2268 33.4191 86.6661 33.925 87.6901 34.8785C88.5941 35.7241 89.0346 37.0666 89.6816 38.1893C89.6333 38.2367 89.5859 38.2841 89.5375 38.3335Z" fill="#F06722"/>
<path fill-rule="evenodd" clip-rule="evenodd" d="M72.3634 17.8676C71.7153 16.9786 71.1458 16.2177 70.6086 15.4366C70.5139 15.2985 70.4746 15.0395 70.5381 14.8903C71.1408 13.4733 71.7697 12.0652 72.5135 10.6673C73.1112 11.9372 74.2824 12.9834 73.5506 14.596C73.1888 15.3953 72.9832 16.2661 72.697 17.1006C72.6244 17.3122 72.5166 17.5148 72.3634 17.8676Z" fill="#F06722"/>
<path fill-rule="evenodd" clip-rule="evenodd" d="M117.784 48.9424C122.185 49.4715 126.326 50.6396 130.229 52.4699C127.591 52.8146 120.08 50.7192 117.784 48.9424Z" fill="#F06722"/>
<path fill-rule="evenodd" clip-rule="evenodd" d="M90.6482 36.2502C93.7031 37.119 96.1129 38.7124 97.9301 41.3853C96.9797 41.0577 96.1522 40.6435 95.2794 40.4964C92.9754 40.1093 91.8345 38.4484 90.7903 36.6412C90.7349 36.5475 90.7127 36.4326 90.6482 36.2502Z" fill="#F06722"/>
<path fill-rule="evenodd" clip-rule="evenodd" d="M73.723 19.5497C74.0838 18.1095 74.4375 16.6964 74.8084 15.2199C76.5571 16.8002 77.0348 19.453 76.0622 22.0754C75.2902 21.2409 74.5545 20.4487 73.723 19.5497Z" fill="#F06722"/>
<path fill-rule="evenodd" clip-rule="evenodd" d="M77.7293 19.6313C80.1663 21.2923 80.4163 23.6004 80.4969 26.1906C79.5495 25.3339 78.719 24.5982 77.9087 23.8412C77.8008 23.7405 77.7393 23.5419 77.7373 23.3877C77.7242 22.1752 77.7293 20.9617 77.7293 19.6313Z" fill="#F06722"/>
<path fill-rule="evenodd" clip-rule="evenodd" d="M98.1851 39.4724C101.387 40.325 104.209 41.9134 106.777 44.0713C103.449 43.3466 100.26 42.4486 98.1851 39.4724Z" fill="#F06722"/>
<path fill-rule="evenodd" clip-rule="evenodd" d="M85.5453 30.0387C84.4881 29.2515 83.5689 28.5712 82.6568 27.8788C82.5288 27.782 82.3967 27.6339 82.3584 27.4847C82.0692 26.3357 81.8031 25.1807 81.5007 23.9048C83.8471 25.3349 84.7914 27.4958 85.5453 30.0387Z" fill="#F06722"/>
<path fill-rule="evenodd" clip-rule="evenodd" d="M116.192 46.6263C114.392 46.1737 112.521 45.8986 110.813 45.2183C109.197 44.5742 107.753 43.5069 106.231 42.625C106.262 42.5615 106.294 42.498 106.324 42.4355C107.083 42.6865 107.833 42.9536 108.598 43.1803C111.29 43.9735 113.739 45.3009 116.182 46.6373L116.192 46.6263Z" fill="#F06722"/>
<path fill-rule="evenodd" clip-rule="evenodd" d="M91.13 33.4685C88.5075 32.4515 86.7286 30.6978 86.015 27.9846C88.2605 29.2717 89.7885 31.2602 91.13 33.4685Z" fill="#F06722"/>
<path fill-rule="evenodd" clip-rule="evenodd" d="M97.8787 37.4334C95.2925 36.4397 93.1618 34.8785 91.7407 32.3981C94.1354 33.66 96.0635 35.4812 97.9644 37.3347C97.9341 37.3669 97.9069 37.3992 97.8787 37.4334Z" fill="#F06722"/>
<path fill-rule="evenodd" clip-rule="evenodd" d="M98.4925 36.5273C100.213 37.5564 101.938 38.5764 103.653 39.6165C104.26 39.9864 104.836 40.4046 105.403 40.836C102.686 40.066 100.426 38.5381 98.3887 36.6362C98.4229 36.6009 98.4572 36.5646 98.4925 36.5273Z" fill="#F06722"/>
<path fill-rule="evenodd" clip-rule="evenodd" d="M98.3887 36.6372C98.3222 36.5878 98.2546 36.5384 98.1891 36.4881C98.2062 36.4568 98.2224 36.4256 98.2395 36.3943C98.3232 36.4387 98.4078 36.482 98.4925 36.5274C98.4572 36.5646 98.4229 36.6009 98.3887 36.6372Z" fill="#F06722"/>
<path fill-rule="evenodd" clip-rule="evenodd" d="M116.182 46.6362C116.225 46.6552 116.27 46.6732 116.214 46.6502C116.253 46.6942 116.223 46.6602 116.193 46.6252L116.182 46.6362Z" fill="#F06722"/>
<path fill-rule="evenodd" clip-rule="evenodd" d="M97.9644 37.3336C98.0168 37.378 98.0692 37.4213 98.2798 37.5977C98.0268 37.4939 97.9523 37.4637 97.8787 37.4324C97.9069 37.3992 97.9341 37.3669 97.9644 37.3336Z" fill="#F06722"/>
</svg>
