<svg width="256" height="64" viewBox="0 0 256 64" fill="none" xmlns="http://www.w3.org/2000/svg">
<path fill-rule="evenodd" clip-rule="evenodd" d="M48.8698 31.8836C48.8698 22.9474 48.8672 14.0125 48.871 5.07573C48.8723 1.76718 50.3622 0.266943 53.6669 0.265688C66.4283 0.260669 79.1904 0.261924 91.9519 0.264434C95.532 0.264434 97.072 1.76906 97.0707 5.28153C97.0682 17.9284 97.0618 30.5747 97.0536 43.2191C97.0511 46.4693 95.6498 47.8365 92.3021 47.8403C85.3939 47.8491 78.4857 47.839 71.5775 47.8453C69.317 47.8478 69.0162 48.1502 68.9991 50.3664C68.9757 53.397 68.9706 56.4276 68.9314 59.4582C68.894 62.239 67.4092 63.7154 64.6326 63.728C60.8359 63.7437 57.0393 63.7437 53.2426 63.728C50.4515 63.7154 48.8672 62.1311 48.8634 59.3176C48.8501 50.1731 48.8577 41.0287 48.8577 31.8836C48.8615 31.8836 48.866 31.8836 48.8698 31.8836ZM68.9516 24.0273C68.9516 29.8776 68.9466 35.7305 68.9542 41.5827C68.9567 43.5755 69.3385 43.9394 71.3717 43.9501C72.6368 43.9564 73.902 43.9551 75.1684 43.9463C76.393 43.9388 77.0084 43.3277 77.0072 42.1041C77.0046 30.0859 77.0008 18.0684 77.0059 6.05141C77.0072 4.7413 76.3543 4.14208 75.0582 4.15338C73.8462 4.16216 72.633 4.14836 71.4211 4.15463C69.2955 4.16342 68.9548 4.49785 68.9529 6.62741C68.9478 12.4269 68.9516 18.2271 68.9516 24.0273Z" fill="#DB1A21"/>
<path fill-rule="evenodd" clip-rule="evenodd" d="M105.132 32.0565C105.132 23.0638 105.128 14.07 105.133 5.07733C105.136 1.70855 106.567 0.267291 109.912 0.266036C123.578 0.261016 137.245 0.263522 150.91 0.264777C152.034 0.266032 153.198 0.163131 153.316 1.79513C153.446 3.59529 152.986 4.14556 151.105 4.14807C143.349 4.15811 135.593 4.15058 127.836 4.15435C125.49 4.15435 125.182 4.46054 125.182 6.75953C125.184 20.9813 125.186 35.2031 125.19 49.4249C125.191 51.6028 125.478 51.8977 127.626 51.9053C130.054 51.914 132.482 51.8732 134.908 51.9184C136.381 51.9454 137.012 51.328 136.997 49.8573C136.957 46.0938 136.993 42.3278 136.979 38.5631C136.972 36.7605 136.653 36.5227 134.879 36.3783C133.901 36.2987 132.897 36.0866 131.99 35.7252C130.944 35.3085 130.385 34.4433 130.406 33.2461C130.44 31.4165 130.381 29.5856 130.425 27.7559C130.471 25.8529 131.433 24.8408 133.381 24.8207C138.763 24.768 144.145 24.7592 149.527 24.8107C151.494 24.8289 153.287 26.7043 153.294 28.7605C153.328 39.1649 153.325 49.5692 153.284 59.9736C153.277 62.1245 151.613 63.7114 149.408 63.7151C135.953 63.7409 122.499 63.7434 109.043 63.7151C106.621 63.7101 105.135 62.0104 105.126 59.35C105.105 53.1796 105.124 47.0105 105.125 40.8402C105.126 37.9125 105.125 34.9848 105.125 32.0558C105.127 32.0565 105.13 32.0565 105.132 32.0565Z" fill="#DB1A21"/>
<path fill-rule="evenodd" clip-rule="evenodd" d="M161.321 31.8983C161.321 23.0136 161.318 14.1289 161.322 5.24485C161.323 1.73865 162.789 0.269162 166.28 0.264143C169.708 0.259123 173.136 0.256612 176.564 0.265397C179.781 0.274181 181.441 1.90242 181.442 5.07544C181.447 18.2444 181.443 31.4152 181.444 44.5841C181.444 47.4949 182.275 48.3231 185.179 48.3256C190.98 48.3281 196.782 48.3181 202.583 48.3438C203.47 48.3489 204.375 48.4367 205.237 48.6369C206.454 48.9186 207.121 49.7763 207.128 51.0205C207.152 54.7313 207.139 58.4408 207.141 62.1515C207.142 63.1774 206.62 63.6957 205.595 63.7252C205.227 63.7352 204.857 63.7314 204.488 63.7314C191.726 63.7314 178.962 63.734 166.198 63.7314C162.758 63.7302 161.317 62.2965 161.316 58.8637C161.312 49.8748 161.314 40.8859 161.314 31.8977C161.318 31.8983 161.32 31.8983 161.321 31.8983Z" fill="#DB1A21"/>
</svg>
