<svg width="25" height="36" viewBox="0 0 25 36" fill="none" xmlns="http://www.w3.org/2000/svg">
<path fill-rule="evenodd" clip-rule="evenodd" d="M5.29757 29.9902C6.4103 31.0413 7.9419 32.014 9.37817 32.7277C10.088 33.0804 10.739 33.3521 11.2606 33.5307C11.7285 33.691 11.9749 33.7351 12.038 33.7464C12.046 33.7478 12.0511 33.7487 12.0533 33.7492C12.0732 33.7472 12.1375 33.74 12.2546 33.7136C12.4107 33.6784 12.6154 33.6197 12.8664 33.5317C13.3691 33.3554 13.988 33.0861 14.6652 32.7341C16.0296 32.0249 17.5001 31.0484 18.6292 29.9869C20.7467 27.9945 22.1012 25.5052 22.1012 23.3224V10.7035C21.6383 10.6613 21.0931 10.6151 20.477 10.5689C18.3516 10.4094 15.3905 10.25 12.0512 10.25C8.55414 10.25 5.59296 10.4096 3.51047 10.5687C2.93773 10.6124 2.43186 10.6561 2 10.6964V23.2723C2 25.632 3.27904 28.0853 5.29757 29.9902ZM0 8.899C0 8.899 4.9379 8.25 12.0512 8.25C18.8523 8.25 24.1012 8.899 24.1012 8.899V23.3224C24.1012 26.2631 22.3387 29.2429 19.9991 31.4441C17.4132 33.8751 13.4704 35.75 12.0512 35.75C10.7838 35.75 6.52624 33.902 3.9242 31.4441C1.63187 29.2808 0 26.3352 0 23.2723V8.899Z" fill="white"/>
</svg>
