<svg width="25" height="36" viewBox="0 0 25 36" fill="none" xmlns="http://www.w3.org/2000/svg">
<path d="M4 8.27747C1.48523 8.45376 0 8.64897 0 8.64897V23.0223C0 26.0852 1.63187 29.0307 3.9242 31.1941C6.52624 33.652 10.7838 35.5 12.0512 35.5C13.4704 35.5 17.4132 33.6251 19.9991 31.1941C22.3387 28.9929 24.1012 26.0131 24.1012 23.0724V8.64897C24.1012 8.64897 22.5329 8.45506 20 8.27922V10.2841C20.1633 10.2957 20.3223 10.3073 20.477 10.3189C21.0931 10.3651 21.6383 10.4113 22.1012 10.4535V23.0724C22.1012 25.2552 20.7467 27.7444 18.6292 29.7369C17.5001 30.7984 16.0296 31.7749 14.6652 32.4841C13.988 32.8361 13.3691 33.1054 12.8664 33.2817C12.6154 33.3697 12.4107 33.4284 12.2546 33.4635C12.1375 33.4899 12.0732 33.4972 12.0533 33.4992C12.0511 33.4987 12.046 33.4978 12.038 33.4963C11.9749 33.485 11.7285 33.441 11.2606 33.2807C10.739 33.1021 10.088 32.8304 9.37817 32.4777C7.9419 31.764 6.4103 30.7913 5.29757 29.7402C3.27904 27.8352 2 25.382 2 23.0223V10.4464C2.43186 10.4061 2.93773 10.3624 3.51047 10.3187C3.66863 10.3066 3.83186 10.2945 4 10.2825V8.27747Z" fill="white"/>
<path d="M19.1509 14.5003C19.0688 14.5003 18.9684 14.4932 18.8547 14.4853C18.7654 14.479 18.6699 14.4727 18.5688 14.468C18.5664 14.4443 18.564 14.4229 18.5632 14.4111C18.5379 14.0904 18.5379 13.9553 18.5379 13.5248C18.5379 13.46 18.5174 12.8794 17.797 12.4632L17.7149 12.4142C17.1382 12.0706 16.4842 11.6811 12.2518 11.6811C7.64973 11.6811 6.9159 12.2459 6.52173 12.55C6.13072 12.8502 5.686 13.1922 5.686 13.6646V14.4861C5.6078 14.4924 5.49168 14.5003 5.36924 14.5003C5.29578 14.5003 5.21995 14.498 5.15123 14.4885C5.07776 14.4514 4.82025 14.0833 4.82025 13.2728C4.82025 12.4039 4.90951 12.1804 5.1062 11.6914L5.18282 11.4995C5.2784 11.2546 5.39215 11.0366 5.50037 10.8249C5.67731 10.4813 5.85978 10.1266 5.95536 9.70634C6.09123 9.10917 6.74844 7.22758 7.48938 6.33419C8.55577 5.04504 10.1119 4.41864 12.2494 4.41864C15.0307 4.41864 15.8649 5.30019 16.8317 6.32076L16.8894 6.38237C17.3175 6.83421 17.9265 7.81607 18.3997 9.93384C18.5221 10.4868 18.6951 10.8114 18.8784 11.1543C18.9748 11.3344 19.0767 11.5247 19.1778 11.7672C19.3721 12.2404 19.4021 12.5856 19.4282 13.3163C19.4448 13.8115 19.3721 14.1891 19.3042 14.3621C19.2655 14.4585 19.2378 14.4901 19.2323 14.4956C19.2339 14.4972 19.2023 14.5003 19.1509 14.5003Z" fill="white"/>
<path d="M12.2502 4.83889C14.8506 4.83889 15.5544 5.58141 16.5276 6.60988L16.5861 6.6715C16.906 7.00958 17.515 7.89508 17.9953 10.0468C18.1256 10.6337 18.3207 10.9995 18.5087 11.3525C18.6067 11.5358 18.6991 11.7096 18.7884 11.9244C18.959 12.3391 18.9843 12.6393 19.0095 13.3289C19.0198 13.6386 18.9914 13.8811 18.9598 14.0383C18.9558 13.9071 18.9558 13.7642 18.9558 13.5248C18.9558 13.3787 18.91 12.6219 18.0055 12.0998L17.9266 12.0532C17.1738 11.6045 16.2764 11.2609 12.2486 11.2609C7.87013 11.2609 6.86298 11.7546 6.26344 12.2159C5.81871 12.558 5.2634 12.9837 5.2634 13.6638C5.2476 13.5533 5.23813 13.4237 5.23813 13.2728C5.23813 12.4845 5.30764 12.3115 5.49406 11.847L5.57226 11.6511C5.65757 11.4331 5.76184 11.2309 5.87243 11.0168C6.06043 10.6503 6.25554 10.2711 6.36297 9.80036C6.48856 9.24821 7.12524 7.42903 7.81246 6.6012C8.79433 5.41553 10.2454 4.83889 12.2502 4.83889ZM12.2502 4C9.3449 4 7.92226 5.15407 7.16631 6.06721C6.35586 7.04434 5.68601 8.99938 5.5454 9.61394C5.40559 10.2293 5.04302 10.7032 4.79182 11.3462C4.53984 11.9884 4.40002 12.2128 4.40002 13.2728C4.40002 14.3345 4.79182 14.8653 5.09831 14.9048C5.18362 14.9159 5.27841 14.9198 5.37004 14.9198C5.60781 14.9198 5.82661 14.8937 5.82661 14.8937C5.82661 14.8937 5.85505 14.9056 5.89376 14.9056C5.97591 14.9056 6.10466 14.8542 6.10466 14.5312C6.10466 14.0556 6.10466 13.9174 6.10466 13.6646C6.10466 13.4134 6.41273 13.1622 6.77688 12.8826C7.13946 12.603 7.89303 12.1014 12.251 12.1014C16.609 12.1014 17.0561 12.52 17.5869 12.8273C18.1185 13.1346 18.1185 13.5256 18.1185 13.5256C18.1185 13.9719 18.1185 14.1125 18.1454 14.4474C18.1604 14.6173 18.1896 14.8756 18.4313 14.8827C18.7165 14.8906 18.974 14.9198 19.1509 14.9198C19.3958 14.9198 19.5593 14.8629 19.696 14.5162C19.7916 14.2729 19.8674 13.8321 19.8492 13.3013C19.8231 12.5809 19.7939 12.1606 19.5664 11.6061C19.2773 10.9126 18.9827 10.6187 18.8152 9.86513C18.7038 9.36827 18.2283 7.18336 17.1951 6.09407C16.1635 5.00556 15.2693 4 12.2502 4Z" fill="white"/>
</svg>
