<svg width="10" height="10" viewBox="0 0 10 10" fill="none" xmlns="http://www.w3.org/2000/svg">
<path d="M0 3.49594L2.28531 4.75469L0.566562 7.35312L3.41812 6.52312L3.62281 9.6775L5.16594 6.74781L7.63656 9.10156L6.65031 5.82031L9.785 5.74219L7.22625 3.74031L8.57406 1.43563L6.035 2.65625L5.9275 0L4.20875 1.93375L2.03094 0.185625L2.53875 2.87125L0 3.49594ZM3.09563 1.9725L4.20906 2.99781L5.33219 1.69906L5.49813 3.56437L7.06063 2.83187L6.31844 3.92562L8.03719 5.11719L5.81063 5.18562L6.25 6.875L4.94125 5.68344L4.16 7.08L3.90156 5.55281L2.31437 6.02531L3.33969 4.45312L1.92781 3.71156L3.33969 3.41812L3.09563 1.9725Z" fill="white"/>
</svg>
