<svg width="10" height="10" viewBox="0 0 10 10" fill="none" xmlns="http://www.w3.org/2000/svg">
<path fill-rule="evenodd" clip-rule="evenodd" d="M8.99984 5.19956C9.00644 4.64945 8.8053 4.63707 8.79244 4.29964C8.78551 4.13076 8.80694 3.65683 8.79244 3.20005C8.7776 2.74485 8.72715 2.30584 8.68857 2.20013C8.61075 1.98777 8.52238 1.63732 7.85763 1.10022C7.13023 0.512651 5.72786 0.0126931 4.94935 0.000313162C4.17018 -0.0123842 3.26142 0.362823 2.56007 0.800247C1.85905 1.23767 1.69022 1.42527 1.41786 1.80016C1.14484 2.17505 1.04097 2.43757 1.10593 3.10006C1.17089 3.76254 1.18638 3.58795 1.20979 4.19996C1.22958 4.70627 0.990519 4.86277 1.00206 5.19988C1.01921 5.70365 1.21573 5.80808 1.20979 5.99981C1.20551 6.12552 0.976011 6.28328 1.00206 6.69976C1.02844 7.12385 1.11879 7.23717 1.93687 7.69967C2.46774 7.99965 3.09227 8.11202 3.07941 8.29962C3.06028 8.5742 2.98873 9.02464 2.97587 9.29954C2.96301 9.57444 3.0926 9.59951 3.39101 9.69951C3.69008 9.7995 4.39077 10.0119 5.15708 9.99948C5.92306 9.98678 6.24785 9.83696 6.61122 9.69951C6.97459 9.56206 7.02669 9.43699 7.02669 9.19955C7.02669 8.96211 6.81896 8.47485 6.81896 8.29962C6.81896 8.12472 7.44216 7.93711 8.16923 7.59968C8.89663 7.26225 8.88806 6.92513 8.89663 6.69976C8.91213 6.27503 8.68857 6.17504 8.68857 5.99981C8.68857 5.65794 8.99589 5.59953 8.99984 5.19956ZM2.87167 6.19948C2.50797 6.21218 1.72913 6.21218 1.72913 5.19956C1.72913 3.79682 2.50797 3.63715 3.07941 3.5997C3.65084 3.56224 3.72866 3.4997 4.01454 3.69969C4.52761 4.05902 4.49464 4.69548 4.32581 5.19956C4.20216 5.56874 4.06598 5.7119 3.80648 5.89951C3.54697 6.08711 3.23537 6.18678 2.87167 6.19948ZM5.26095 7.79935L5.11784 7.28891L4.89692 7.29114L4.74128 7.79967C4.1438 7.64349 3.90375 7.4124 3.91034 7.09972C3.91694 6.78737 4.09862 6.46232 4.42935 6.1998C4.76074 5.93728 4.81415 5.89665 5.05288 5.89982C5.28073 5.903 5.30085 5.94553 5.46835 6.09981C5.83008 6.43343 6.06419 6.65563 6.09189 7.09972C6.11893 7.53651 5.59168 7.78062 5.26095 7.79935ZM7.13023 6.19948C6.76653 6.18678 6.45526 6.08711 6.19542 5.89951C5.93592 5.7119 5.78259 5.5735 5.67609 5.19956C5.54189 4.72881 5.47495 4.05902 5.98802 3.69969C6.27357 3.4997 6.35139 3.56224 6.92283 3.5997C7.4936 3.63715 8.2731 3.79682 8.2731 5.19956C8.2731 6.21218 7.49393 6.21218 7.13023 6.19948Z" fill="white"/>
</svg>
