<svg width="10" height="10" viewBox="0 0 10 10" fill="none" xmlns="http://www.w3.org/2000/svg">
<path fill-rule="evenodd" clip-rule="evenodd" d="M8.88066 4.62039C8.93889 4.74504 9.00363 4.88361 8.99984 5.19956C8.99779 5.4067 8.91438 5.52223 8.83443 5.63297C8.76 5.73605 8.68857 5.83499 8.68857 5.99981C8.68857 6.06709 8.72152 6.12327 8.76125 6.19101C8.825 6.29969 8.90618 6.4381 8.89663 6.69976C8.89639 6.70604 8.89617 6.71241 8.89594 6.71886C8.88797 6.94393 8.87636 7.27166 8.16923 7.59968C7.95214 7.70043 7.7443 7.78783 7.55956 7.86552C7.12556 8.04801 6.81896 8.17694 6.81896 8.29962C6.81896 8.38059 6.86332 8.52819 6.91104 8.68698C6.96659 8.87182 7.02669 9.07183 7.02669 9.19955C7.02669 9.43699 6.97459 9.56206 6.61122 9.69951C6.58161 9.71071 6.55226 9.72199 6.52291 9.73327C6.19199 9.86046 5.86065 9.98782 5.15708 9.99948C4.39077 10.0119 3.69008 9.7995 3.39101 9.69951C3.37307 9.6935 3.35575 9.68776 3.33903 9.68222C3.07753 9.5956 2.96378 9.55792 2.97587 9.29954C2.98289 9.14945 3.00741 8.94704 3.03133 8.74949C3.05123 8.58521 3.07072 8.42429 3.07941 8.29962C3.08702 8.18857 2.8713 8.10389 2.58387 7.99104C2.38573 7.91325 2.1535 7.82208 1.93687 7.69967C1.11879 7.23717 1.02844 7.12385 1.00206 6.69976C0.984773 6.42337 1.08003 6.26092 1.14733 6.14616C1.18143 6.088 1.20835 6.0421 1.20979 5.99981C1.21216 5.92353 1.18247 5.86106 1.14478 5.78176C1.08774 5.66176 1.01238 5.50321 1.00206 5.19988C0.996891 5.04887 1.042 4.93411 1.09161 4.80791C1.15275 4.65237 1.22072 4.47948 1.20979 4.19996C1.19563 3.82966 1.18436 3.74733 1.16328 3.59331C1.14952 3.49277 1.13158 3.3617 1.10593 3.10006C1.04097 2.43757 1.14484 2.17505 1.41786 1.80016C1.69022 1.42527 1.85905 1.23767 2.56007 0.800247C3.26142 0.362823 4.17018 -0.0123842 4.94935 0.000313162C5.72786 0.0126931 7.13023 0.512652 7.85763 1.10022C8.47597 1.59982 8.5956 1.93792 8.67192 2.15361C8.67765 2.1698 8.68314 2.1853 8.68857 2.20013C8.72715 2.30584 8.7776 2.74485 8.79244 3.20005C8.80115 3.47436 8.7969 3.75484 8.79361 3.97174C8.79143 4.11603 8.78967 4.23218 8.79244 4.29964C8.79791 4.44327 8.8375 4.528 8.88066 4.62039ZM1.72913 5.19956C1.72913 6.21218 2.50797 6.21218 2.87167 6.19948C3.23537 6.18678 3.54697 6.08711 3.80648 5.89951C4.06598 5.7119 4.20216 5.56874 4.32581 5.19956C4.49464 4.69548 4.52761 4.05902 4.01454 3.69969C3.78517 3.53923 3.68973 3.54777 3.36581 3.57677C3.28602 3.58391 3.19235 3.59229 3.07941 3.5997C2.50797 3.63715 1.72913 3.79682 1.72913 5.19956ZM5.11784 7.28891L5.26095 7.79935C5.59168 7.78062 6.11893 7.53651 6.09189 7.09972C6.06419 6.65563 5.83008 6.43343 5.46835 6.09981C5.45139 6.08419 5.43595 6.06971 5.42164 6.05631C5.29464 5.93732 5.25766 5.90268 5.05288 5.89982C4.81415 5.89665 4.76074 5.93728 4.42935 6.1998C4.09862 6.46232 3.91694 6.78737 3.91034 7.09972C3.90375 7.4124 4.1438 7.64349 4.74128 7.79966L4.89692 7.29114L5.11784 7.28891ZM6.19542 5.89951C6.45526 6.08711 6.76653 6.18678 7.13023 6.19948C7.49393 6.21218 8.2731 6.21218 8.2731 5.19956C8.2731 3.79682 7.4936 3.63715 6.92282 3.5997C6.80987 3.59229 6.71619 3.58391 6.63639 3.57677C6.31251 3.54777 6.21712 3.53924 5.98802 3.69969C5.47495 4.05902 5.54188 4.72881 5.67609 5.19956C5.78259 5.5735 5.93592 5.7119 6.19542 5.89951ZM4.5 3C5.05228 3 5.5 2.55228 5.5 2C5.5 1.44772 5.05228 1 4.5 1C3.94772 1 3.5 1.44772 3.5 2C3.5 2.55228 3.94772 3 4.5 3Z" fill="white"/>
</svg>
