<?xml version="1.0" encoding="utf-8"?>
<!-- Generator: Adobe Illustrator 16.0.0, SVG Export Plug-In . SVG Version: 6.00 Build 0)  -->
<!DOCTYPE svg PUBLIC "-//W3C//DTD SVG 1.1//EN" "http://www.w3.org/Graphics/SVG/1.1/DTD/svg11.dtd">
<svg version="1.1" id="Selected_Items" xmlns="http://www.w3.org/2000/svg" xmlns:xlink="http://www.w3.org/1999/xlink" x="0px"
	 y="0px" width="313.125px" height="96px" viewBox="0 0 104.375 32" enable-background="new 0 0 104.375 32" xml:space="preserve">
<g>
	<g id="Selected_Items_28_">
		<path fill-rule="evenodd" clip-rule="evenodd" fill="#00FFFF" d="M96.369,18.047c-1.132,0.386-2.469,0.797-4.014,1.235
			c-3.087,0.874-5.646,1.479-7.68,1.813c-2.006,0.309-4.579,0.541-7.717,0.694c-1.003,0.051-1.993,0.091-2.971,0.116h-1.158
			c-0.025-0.129-0.091-0.309-0.193-0.541c-0.232-0.437-0.593-0.835-1.081-1.196c-0.438-0.36-0.991-0.618-1.661-0.771
			c-0.179-0.052-0.372-0.078-0.579-0.078l-21.687-0.116c-0.104,0.026-0.219,0.078-0.347,0.154c-0.051,0.027-0.103,0.091-0.155,0.193
			l-0.039,0.116l-0.501,2.392c-0.36,1.698-0.631,2.856-0.811,3.474c-0.026,0.078-0.064,0.18-0.115,0.309
			c-0.078,0.128-0.142,0.218-0.193,0.27c-0.13,0.104-0.374,0.181-0.734,0.232l-0.54,0.077c-0.335-0.026-0.695-0.038-1.081-0.038
			c-0.771-0.026-1.287-0.064-1.543-0.116c-0.104-0.025-0.193-0.077-0.27-0.155c-0.103-0.076-0.168-0.168-0.194-0.27
			c0-0.206,0.143-0.502,0.424-0.888c0.027-0.026,0.221-0.244,0.579-0.656c0.257-0.334,0.502-0.656,0.733-0.963
			c0.411-0.593,0.644-1.043,0.696-1.352c0.025-0.206,0.025-0.554,0-1.042L43.5,20.248c-0.104,0.025-0.18,0.025-0.232,0
			c-0.154-0.207-0.334-0.425-0.539-0.657c-0.361-0.464-0.682-0.81-0.965-1.042c-0.412-0.335-0.812-0.592-1.198-0.772
			c-0.693-0.309-1.452-0.451-2.275-0.425c-0.797,0.051-1.518,0.321-2.162,0.811c-0.693,0.488-1.208,1.157-1.542,2.006
			c-0.283,0.747-0.501,1.299-0.657,1.659c-0.102,0.18-0.167,0.296-0.193,0.348c-0.026,0.051-0.076,0.09-0.154,0.116
			c-0.128,0.103-0.244,0.142-0.348,0.116c-0.127,0-0.295-0.104-0.501-0.309c-0.257-0.284-0.501-0.644-0.733-1.081
			c-0.181-0.309-0.309-0.54-0.387-0.695c-0.154-0.283-0.295-0.526-0.423-0.733c-0.386-0.515-0.888-0.939-1.506-1.273
			c-0.695-0.36-1.337-0.579-1.929-0.656c-0.747-0.077-1.415,0.091-2.007,0.502c-0.412,0.257-0.927,0.618-1.543,1.081
			c-0.438,0.334-0.722,0.527-0.85,0.578c-0.18,0.051-0.373,0.064-0.579,0.039c-0.128-0.025-0.348-0.115-0.656-0.27
			c-0.386-0.154-0.797-0.283-1.235-0.386c-0.669-0.154-1.312-0.205-1.93-0.154c-0.618,0.076-1.144,0.206-1.582,0.386
			c-0.412,0.18-0.823,0.437-1.235,0.772c-0.257,0.232-0.553,0.489-0.888,0.771c-0.231,0.181-0.45,0.309-0.655,0.386
			c-0.464,0.181-0.85,0.297-1.159,0.348c-0.334,0.026-0.63,0.077-0.888,0.154c-0.54,0.104-1.016,0.258-1.427,0.463
			c-0.438,0.231-0.901,0.605-1.389,1.119c-0.179,0.181-0.528,0.618-1.042,1.313c-0.411,0.515-0.861,1.106-1.352,1.775L6.143,27
			l-0.694-0.154c-2.135-3.473-3.357-5.428-3.667-5.866c-0.051-0.078-0.398-0.514-1.042-1.312c-0.462-0.592-0.707-0.965-0.732-1.119
			c-0.025-0.206,0.013-0.463,0.116-0.772c0.103-0.258,0.231-0.515,0.386-0.772c0.103-0.128,0.347-0.411,0.733-0.849
			c0.438-0.438,0.759-0.798,0.964-1.081c0.129-0.179,0.361-0.54,0.695-1.08c0.231-0.438,0.438-0.747,0.617-0.927
			c0.233-0.206,0.438-0.347,0.618-0.423c0.078-0.026,0.231-0.052,0.463-0.078c0.103-0.025,0.386-0.053,0.849-0.077
			c0.566-0.051,1.157-0.154,1.775-0.309c0.771-0.179,1.362-0.334,1.775-0.463c0.412-0.154,1.158-0.463,2.237-0.926
			c1.262-0.566,2.265-1.003,3.011-1.312c1.003-0.386,1.943-0.721,2.818-1.003c1.132-0.361,1.903-0.593,2.315-0.695
			c0.668-0.128,1.492-0.232,2.469-0.309c0.952-0.078,1.878-0.091,2.778-0.039c0.592,0.052,1.364,0.154,2.316,0.308
			c0.771,0.103,1.53,0.181,2.277,0.232c0.617,0.026,1.479,0.039,2.585,0.039c0.797,0,1.582-0.039,2.354-0.115
			c0.387-0.027,0.695-0.052,0.927-0.078l0.038-0.231l0.232-0.039l0.115,0.232l0.386-0.039V7.512l0.309-0.077l0.077,0.27l0.385-0.04
			v-0.27l0.31-0.039l0.038,0.27l0.386-0.038V7.28h0.27l0.038,0.193l0.348-0.039V7.126l0.309-0.039l0.038,0.27l0.31-0.039V6.933
			l0.27-0.039l0.077,0.31l0.309-0.078V6.741h0.271l0.077,0.27h0.231l0.039-0.348l0.308-0.039l0.039,0.309l0.232-0.077v-0.27
			l0.27-0.038l0.077,0.193l0.386-0.117c0.283-0.103,0.477-0.193,0.579-0.27c0.103-0.052,0.218-0.129,0.347-0.231
			c0.104-0.129,0.193-0.207,0.27-0.232c0.103-0.051,0.231-0.077,0.386-0.077c0.155,0.026,0.245,0.039,0.271,0.039
			c0.103-0.051,0.283-0.154,0.54-0.309c0.207-0.155,0.387-0.244,0.542-0.27c0.179-0.052,0.373-0.064,0.579-0.039
			c0.102,0.026,0.257,0.065,0.463,0.116c0.025,0.025,0.207,0.115,0.54,0.27c0.283,0.154,0.541,0.244,0.772,0.27
			c0.257,0.052,0.45,0.052,0.579,0c0.18-0.051,0.296-0.077,0.347-0.077c0.155,0,0.438,0.141,0.85,0.425
			c0.231,0.154,0.437,0.309,0.616,0.462l3.049,0.579c2.238,0.437,3.795,0.733,4.668,0.888c1.107,0.154,2.471,0.283,4.091,0.386
			c1.416,0.052,2.573,0.064,3.474,0.039c1.878-0.051,3.435-0.347,4.669-0.887c0.309-0.129,0.875-0.412,1.697-0.849
			c0.799-0.412,1.262-0.644,1.39-0.694c0.181-0.078,0.412-0.116,0.696-0.116c0.282,0,0.476,0.039,0.579,0.116
			c0.051,0.051,0.115,0.154,0.192,0.308c0.052,0.104,0.142,0.284,0.27,0.542c0.231,0.488,0.451,0.771,0.657,0.848
			c0.232,0.078,0.45,0.065,0.656-0.038c0.18-0.104,0.296-0.271,0.347-0.502c0.026-0.206,0.026-0.412,0-0.617l-0.077-0.232h0.386
			l0.154,0.309c0.155,0.258,0.271,0.463,0.348,0.618c0.103,0.231,0.218,0.438,0.347,0.618c0.181,0.18,0.348,0.283,0.5,0.308
			c0.31,0.026,0.542,0.014,0.696-0.038c0.285-0.077,0.425-0.257,0.425-0.541c0-0.282-0.026-0.553-0.077-0.81L77.96,6.663
			l0.463,0.078l0.194,0.308c0.153,0.231,0.283,0.425,0.386,0.579c0.127,0.309,0.23,0.501,0.308,0.58
			c0.129,0.179,0.297,0.296,0.503,0.347c0.205,0.052,0.398,0.039,0.578-0.039c0.18-0.052,0.296-0.18,0.348-0.386
			c0.051-0.179,0.026-0.412-0.078-0.694l-0.194-0.386l0.387,0.039l0.193,0.27c0.128,0.18,0.219,0.334,0.27,0.463
			c0.102,0.231,0.18,0.398,0.231,0.501c0.129,0.181,0.282,0.309,0.462,0.387c0.515,0.206,0.914,0.18,1.197-0.078
			c0.103-0.077,0.167-0.205,0.193-0.385c0-0.154-0.013-0.309-0.038-0.463c-0.026-0.128-0.091-0.271-0.193-0.425l-0.154-0.154
			l0.541,0.038l0.192,0.348c0.129,0.257,0.231,0.475,0.31,0.656c0.076,0.181,0.18,0.334,0.308,0.463
			c0.052,0.051,0.181,0.128,0.386,0.231c0.155,0.103,0.309,0.154,0.462,0.154c0.155,0.025,0.296-0.013,0.425-0.115
			c0.207-0.155,0.296-0.386,0.27-0.695c-0.026-0.102-0.089-0.257-0.193-0.463L85.563,7.55l0.425,0.039l0.192,0.309
			c0.154,0.23,0.244,0.385,0.27,0.462c0.052,0.129,0.129,0.27,0.232,0.425c0.129,0.18,0.245,0.308,0.347,0.385
			c0.181,0.103,0.373,0.168,0.579,0.193c0.257,0.052,0.463,0.026,0.617-0.077c0.258-0.181,0.347-0.501,0.271-0.965
			c0-0.103-0.039-0.231-0.117-0.385l-0.115-0.193l0.54,0.116l0.117,0.155c0.103,0.18,0.206,0.387,0.309,0.617
			c0.077,0.129,0.153,0.246,0.231,0.348c0.102,0.153,0.27,0.321,0.501,0.501c0.155,0.129,0.334,0.193,0.541,0.193
			c0.18,0,0.335-0.064,0.463-0.193c0.103-0.104,0.167-0.244,0.193-0.424c0.026-0.129,0.013-0.271-0.04-0.426
			c-0.051-0.103-0.128-0.23-0.231-0.385l-0.154-0.193l0.464,0.116L91.391,8.4c0.128,0.179,0.207,0.32,0.231,0.423
			c0.026,0.129,0.103,0.27,0.231,0.425c0.103,0.18,0.231,0.308,0.385,0.385c0.206,0.129,0.36,0.207,0.464,0.232
			c0.205,0.026,0.386-0.04,0.54-0.193c0.128-0.129,0.192-0.27,0.192-0.424c0-0.103-0.025-0.258-0.077-0.463
			c-0.051-0.103-0.115-0.207-0.193-0.309L93.011,8.36l11.269,1.429L96.369,18.047z M43.886,23.913c-0.284,0-0.515,0.089-0.694,0.27
			c-0.181,0.207-0.271,0.438-0.271,0.695s0.09,0.476,0.271,0.656c0.179,0.18,0.41,0.271,0.694,0.271
			c0.256,0,0.488-0.091,0.694-0.271c0.18-0.18,0.269-0.398,0.269-0.656s-0.089-0.488-0.269-0.695
			C44.374,24.002,44.142,23.913,43.886,23.913z"/>
	</g>
</g>
</svg>
